<svg id="Layer_1" data-name="Layer 1" xmlns="http://www.w3.org/2000/svg" viewBox="0 0 628.97 706.53"><defs><style>.cls-1{fill:#fff;}.cls-2{fill:#d9d9d9;}.cls-3{fill:#e6e6e6;}.cls-4{fill:#fdfdfd;}.cls-5{fill:#343532;}.cls-6{fill:#f2f2f1;}.cls-7{fill:#f3f3f2;}.cls-8{fill:#f4f4f3;}.cls-9{fill:#f1f1f0;}.cls-10{fill:#f0f0f0;}.cls-11{fill:#f7f7f7;}.cls-12{fill:#363634;}.cls-13{fill:#3b3b39;}.cls-14{fill:#3a3b39;}</style></defs><path class="cls-1" d="M671.76,522c.91-2.61,2.61-5.22,2.62-7.84q.2-155.72,0-311.42c0-2.46-.91-4.92-1.4-7.38,0-1.41,0-2.81-.07-4.22l-2.59-3c-1.6-12.46-11.39-18.15-20.6-23.73-14.27-8.64-29.11-16.32-43.6-24.61-13.64-7.8-27.12-15.89-40.7-23.79-8.55-5-17.12-9.9-25.74-14.72-13.75-7.68-27.65-15.1-41.3-22.94-12.67-7.28-25-15.19-37.66-22.41-24.89-14.16-50.11-27.74-74.87-42.13-15.43-9-31.81-8.87-47-2.81-16.12,6.44-30.78,16.58-46,25.21C279,44.09,265.2,52.14,251.32,60c-15,8.51-30,16.82-45,25.43-14.3,8.26-28.36,17-42.69,25.17-18.35,10.53-36.88,20.73-55.29,31.15-12.09,6.84-23.67,14.74-36.24,20.51C53.87,170.69,45.48,184,45.52,204q.33,157.51,0,315c0,17.13,7.36,28.5,22.49,35.89,10.38,5.06,20.47,10.76,30.46,16.58,22.59,13.16,45,26.64,67.57,39.85,15.68,9.18,31.5,18.12,47.25,27.17s31.35,18,47,27c23.28,13.35,46.75,26.41,69.78,40.19,8,4.81,16.47,6.47,25.41,7.35,20.89,2.06,36.38-11.12,53.46-19.35,12-5.77,22.74-14,34.37-20.6,17.19-9.73,34.82-18.72,52-28.5,20.39-11.6,40.37-23.94,60.77-35.54,21.75-12.37,43.83-24.15,65.64-36.4,9.62-5.41,18.52-12.22,28.46-16.88C664.91,548.89,673,538.68,671.76,522Z" transform="translate(-45.52 -6.73)"/><path class="cls-2" d="M673,191.18c0,1.41,0,2.81.07,4.22-.45,2-1.31,4-1.31,6q0,160.32,0,320.64c1.23,16.64-6.85,26.85-21.55,33.74-9.94,4.66-18.84,11.47-28.46,16.88-21.81,12.25-43.89,24-65.64,36.4-20.4,11.6-40.38,23.94-60.77,35.54-17.18,9.78-34.81,18.77-52,28.5C431.71,679.68,421,687.93,409,693.7c-17.08,8.23-32.57,21.41-53.46,19.35-8.94-.88-17.37-2.54-25.41-7.35-23-13.78-46.5-26.84-69.78-40.19q-23.52-13.47-47-27c-15.75-9-31.57-18-47.25-27.17-22.57-13.21-45-26.69-67.57-39.85C88.48,565.69,78.39,560,68,554.93,52.88,547.54,45.48,536.17,45.52,519q.33-157.53,0-315c0-20,8.35-33.31,26.62-41.7,12.57-5.77,24.15-13.67,36.24-20.51,18.41-10.42,36.94-20.62,55.29-31.15,14.33-8.22,28.39-16.91,42.69-25.17,14.91-8.61,30-16.92,45-25.43,13.88-7.9,27.68-15.95,41.57-23.82,15.24-8.63,29.9-18.77,46-25.21,15.18-6.06,31.56-6.16,47,2.81,24.76,14.39,50,28,74.87,42.13,12.69,7.22,25,15.13,37.66,22.41,13.65,7.84,27.55,15.26,41.3,22.94,8.62,4.82,17.19,9.75,25.74,14.72,13.58,7.9,27.06,16,40.7,23.79,14.49,8.29,29.33,16,43.6,24.61,9.21,5.58,19,11.27,20.59,23.73Zm-4.26,169h-1.29q0-83,.05-166c0-9.37-4.41-15.91-12-20.36-16.93-9.92-34.05-19.54-51.12-29.23-25.86-14.7-51.81-29.25-77.61-44-22.54-12.93-44.89-26.16-67.39-39.15-12.43-7.18-24.89-14.32-37.51-21.16-18.07-9.8-34-23.45-55.36-27.37a41.81,41.81,0,0,0-25.75,3C321.81,25,304,36.32,285.78,46.78c-14.76,8.48-29.44,17.1-44.25,25.5-15.75,8.94-31.68,17.58-47.41,26.55-22,12.52-43.72,25.33-65.69,37.81C106.71,149,84.71,160.86,63.12,173.43c-5.48,3.19-10,8.2-10.38,15.34-.54,9.59-1.41,19.17-1.42,28.76Q51.16,362.25,51.21,507a70.79,70.79,0,0,1-1,10.56c-1.44,9.33,4.56,24.14,11.6,28.19q29.13,16.71,58.27,33.39,44.26,25.36,88.52,50.74c27.29,15.7,54,32.42,81.92,46.94,20.37,10.61,37.84,27.5,62,30.27,9,1,18.26,1.07,26.39-3.29,15.41-8.27,30.38-17.35,45.61-26,17-9.62,34.15-19,51.14-28.65,18.26-10.36,36.35-21,54.64-31.34,19.49-11,39.16-21.69,58.68-32.65,20.42-11.46,40.65-23.26,61.15-34.57,9.89-5.46,16.09-13.09,17.05-24.45.7-8.25,1.4-16.53,1.43-24.8C668.77,454.29,668.7,407.24,668.7,360.19Z" transform="translate(-45.52 -6.73)"/><path class="cls-3" d="M671.76,522q0-160.32,0-320.64c0-2,.86-4,1.31-6,.49,2.46,1.4,4.92,1.4,7.38q.11,155.72,0,311.42C674.37,516.82,672.67,519.43,671.76,522Z" transform="translate(-45.52 -6.73)"/><path class="cls-3" d="M673,191.18l-2.6-3Z" transform="translate(-45.52 -6.73)"/><path class="cls-4" d="M668.7,360.19c0,47.05.07,94.1-.06,141.15,0,8.27-.73,16.55-1.43,24.8-1,11.36-7.16,19-17.05,24.45-20.5,11.31-40.73,23.11-61.15,34.57-19.52,11-39.19,21.65-58.68,32.65-18.29,10.32-36.38,21-54.64,31.34-17,9.65-34.13,19-51.14,28.65-15.23,8.61-30.2,17.69-45.61,26-8.13,4.36-17.36,4.32-26.39,3.29-24.18-2.77-41.65-19.66-62-30.27-27.89-14.52-54.63-31.24-81.92-46.94q-44.22-25.44-88.52-50.74-29.15-16.68-58.27-33.39c-7-4.05-13-18.86-11.6-28.19a70.79,70.79,0,0,0,1-10.56q.07-144.72.11-289.43c0-9.59.88-19.17,1.42-28.76.4-7.14,4.9-12.15,10.38-15.34,21.59-12.57,43.59-24.45,65.31-36.79,22-12.48,43.74-25.29,65.69-37.81,15.73-9,31.66-17.61,47.41-26.55,14.81-8.4,29.49-17,44.25-25.5C304,36.32,321.81,25,340.71,15.91a41.81,41.81,0,0,1,25.75-3c21.39,3.92,37.29,17.57,55.36,27.37,12.62,6.84,25.08,14,37.51,21.16,22.5,13,44.85,26.22,67.39,39.15,25.8,14.8,51.75,29.35,77.61,44,17.07,9.69,34.19,19.31,51.12,29.23,7.6,4.45,12,11,12,20.36q-.16,83-.05,166Zm-550.16-1H118c0,43.73.09,87.46-.13,131.18,0,5.2,1.54,7.94,6.08,10.53Q239,566.72,353.69,633c3.91,2.25,6.68,1.84,10.32-.24q115.14-65.61,230.43-130.95c4.23-2.39,5.87-5,5.87-9.93q0-131.18.5-262.36c0-4.87-1.37-7.59-5.69-10.07Q480.39,153.87,365.92,87.81c-4.24-2.45-7.3-2.65-11.58-.21q-115.11,65.66-230.43,131c-4,2.27-5.52,4.72-5.49,9.44C118.63,271.73,118.54,315.46,118.54,359.18Z" transform="translate(-45.52 -6.73)"/><path class="cls-5" d="M118.54,359.18c0-43.72.09-87.45-.12-131.18,0-4.72,1.47-7.17,5.49-9.44q115.31-65.31,230.43-131c4.28-2.44,7.34-2.24,11.58.21q114.46,66.06,229.2,131.67c4.32,2.48,5.71,5.2,5.69,10.07q-.48,131.18-.5,262.36c0,5-1.64,7.54-5.87,9.93q-115.3,65.31-230.43,131c-3.64,2.08-6.41,2.49-10.32.24Q238.93,566.75,123.93,500.89c-4.54-2.59-6.11-5.33-6.08-10.53.22-43.72.13-87.45.13-131.18ZM529,393.74a16.49,16.49,0,0,1,2,2c12.3,17.25,31.7,22,50.4,12.39,9.11-4.7,13.57-13.23,11.74-23-1.7-9-8.14-13.63-16.29-16.12-8.61-2.64-17.43-4.62-26-7.39-6-1.95-10.63-5.81-9.84-13s5.95-10.48,12.47-11.79c14-2.81,21.89,1.66,28.79,15.88H591c-.57-2.68-.83-4.77-1.46-6.75-3.51-11.08-11.81-16.43-22.75-17.65-12.36-1.37-24.64-.85-32.72,10.67-7.54,10.76-3.67,24.53,8.33,29.79,5.37,2.35,11.33,3.37,17,5,5.47,1.55,11.21,2.47,16.34,4.76,8.7,3.88,9.89,14,2.91,20.52-10.51,9.78-32.88,5.45-38.21-7.81-2.09-5.22-4.73-7.22-10-5.63-1-.54-2.63-.88-2.86-1.64-3.2-10.69-12.07-14-21.42-16.62-7.07-2-14.26-3.66-21.24-5.94-5.87-1.91-10-5.81-9.43-12.59.62-6.93,5.38-10.27,11.63-11.78,14.15-3.44,23,1.34,29.64,15.84h8.27c-.81-13.29-8.12-21.5-21.24-24.24-16.17-3.37-31.29,1.82-36.48,12.52a20,20,0,0,0-.85,2c-4.36,12,.71,22.76,13.52,27,8.76,2.89,18,4.34,26.85,6.94,6,1.75,10.87,5.07,10.81,12.39-.06,6.37-4.3,11.28-11.66,13.51-15.52,4.7-26.22-.81-33.55-17.27h-8.83c1.09,15.22,11.15,25.46,26.12,26.61C506.26,413.53,520.86,410.4,529,393.74Zm-253.43-63.5V442.11l9.65-.44V399.59c2.45,2.23,3.81,3.56,5.26,4.77a35.83,35.83,0,0,0,57.32-16.49,58.73,58.73,0,0,0,.21-35.75c-4.45-14.76-15.46-23.18-30.79-24.21-13-.88-23.37,4.11-32.21,14.66-.26-4.92-.45-8.58-.65-12.33ZM204.51,372.4c-1.12-6.94-1.62-12.83-3.08-18.47-3.73-14.49-12.82-23.76-28-25.69-15.75-2-28.84,3.09-37,17.23-9,15.74-9.27,32.42-1.54,48.57,10.3,21.52,44.62,25.48,60,7.17,3.5-4.16,5.63-9.49,9.18-15.65-6.05.72-10.37-2.31-13.21,4-5.57,12.42-19.06,17.49-32.37,13.08-11.9-3.94-19.63-17.05-17.48-30.28Zm258.72.15c-1-7-1.36-12.9-2.83-18.54-3.68-14.09-12.4-23.49-27.24-25.67-15.71-2.32-29.05,2.47-37.36,16.44-9.7,16.3-9.64,33.67-1.35,50.47,6.72,13.65,22.11,19.56,39.88,16.76,13.79-2.17,23.9-11.86,27.34-28.18-4.63,2.07-9.55,2.66-11.05,5.23-7.37,12.71-19.25,18.05-33,13.67-11.86-3.78-19.36-16.28-17.75-30.18ZM272.81,409.71c-10.16-13.83-20.06-27.31-30.06-40.94l28.87-38c-8.52-2.44-13.19.28-17.16,6.59-5.21,8.29-11.44,15.93-17.62,24.37-6.65-9.35-13-17.38-18.3-26.07-3.91-6.43-8.79-6.43-15.63-5.11l28.38,38.26c-10.45,13.83-20.52,27.16-31,41,10.77,1.34,10.75,1.33,15.92-5.72,6.78-9.26,13.6-18.51,20.77-28.27,7.27,10.12,14.21,18.91,20.12,28.35C261,410.25,265.48,411.68,272.81,409.71Zm94.15.47c0-14.34-.32-27.86.08-41.36.61-20.59,7-28,26.55-31.55v-9.13c-11.55-.9-19.75,3.86-26.12,15.18-.47-5.76-.76-9.36-1.05-13H358v79.86Z" transform="translate(-45.52 -6.73)"/><path class="cls-6" d="M275.57,330.24h8.79c.2,3.75.39,7.41.65,12.33,8.84-10.55,19.22-15.54,32.21-14.66,15.33,1,26.34,9.45,30.79,24.21a58.73,58.73,0,0,1-.21,35.75,35.83,35.83,0,0,1-57.32,16.49c-1.45-1.21-2.81-2.54-5.26-4.77v42.08l-9.65.44Zm65.6,39.69c-1.29-6.13-1.76-11.69-3.66-16.72-3.74-9.93-11.28-15.62-22-16.68-10.9-1.08-20,2.47-25.35,12.23-7.87,14.38-7.93,29.21.59,43.41,5.37,8.95,13.91,12.57,24.29,11.74,10.16-.82,17.69-5.87,21.38-15.28C338.82,382.55,339.72,375.88,341.17,369.93Z" transform="translate(-45.52 -6.73)"/><path class="cls-7" d="M204.51,372.4H141.09c-2.15,13.23,5.58,26.34,17.48,30.28,13.31,4.41,26.8-.66,32.37-13.08,2.84-6.35,7.16-3.32,13.21-4-3.55,6.16-5.68,11.49-9.18,15.65-15.41,18.31-49.73,14.35-60-7.17-7.73-16.15-7.51-32.83,1.54-48.57,8.14-14.14,21.23-19.23,37-17.23,15.15,1.93,24.24,11.2,28,25.69C202.89,359.57,203.39,365.46,204.51,372.4Zm-63.7-8.27H193c.92-15.55-8.64-26.85-23.2-27.71C153.63,335.46,142.2,346.2,140.81,364.13Z" transform="translate(-45.52 -6.73)"/><path class="cls-8" d="M463.23,372.55H399.87c-1.61,13.9,5.89,26.4,17.75,30.18,13.75,4.38,25.63-1,33-13.67,1.5-2.57,6.42-3.16,11.05-5.23-3.44,16.32-13.55,26-27.34,28.18-17.77,2.8-33.16-3.11-39.88-16.76-8.29-16.8-8.35-34.17,1.35-50.47,8.31-14,21.65-18.76,37.36-16.44C448,330.52,456.72,339.92,460.4,354,461.87,359.65,462.21,365.58,463.23,372.55Zm-11.29-8.21c.21-17.26-9.71-27.93-25.2-28-15.2-.08-27,12.09-26.86,28Z" transform="translate(-45.52 -6.73)"/><path class="cls-9" d="M529,393.74c-8.14,16.66-22.74,19.79-39.25,18.52-15-1.15-25-11.39-26.12-26.61h8.83c7.33,16.47,18,22,33.55,17.28,7.36-2.23,11.6-7.14,11.66-13.51.06-7.32-4.85-10.64-10.81-12.39-8.87-2.6-18.09-4-26.85-6.94-12.81-4.22-17.88-15-13.52-27a20,20,0,0,1,.85-2c5.19-10.7,20.31-15.89,36.48-12.52,13.12,2.74,20.43,10.95,21.24,24.24h-8.27c-6.62-14.5-15.49-19.28-29.64-15.84-6.25,1.51-11,4.85-11.63,11.78-.6,6.78,3.56,10.68,9.43,12.59,7,2.28,14.17,3.93,21.24,5.94,9.35,2.65,18.22,5.93,21.42,16.62.23.76,1.87,1.1,2.86,1.64Z" transform="translate(-45.52 -6.73)"/><path class="cls-6" d="M529,393.74l1.47-8.15c5.3-1.59,7.94.41,10,5.63,5.33,13.26,27.7,17.59,38.21,7.81,7-6.49,5.79-16.64-2.91-20.52-5.13-2.29-10.87-3.21-16.34-4.76-5.69-1.61-11.65-2.63-17-5-12-5.26-15.87-19-8.33-29.79,8.08-11.52,20.36-12,32.72-10.67,10.94,1.22,19.24,6.57,22.75,17.65.63,2,.89,4.07,1.46,6.75h-8.81c-6.9-14.22-14.79-18.69-28.79-15.88-6.52,1.31-11.67,4.55-12.47,11.79s3.81,11.05,9.84,13c8.57,2.77,17.39,4.75,26,7.39,8.15,2.49,14.59,7.08,16.29,16.12,1.83,9.73-2.63,18.26-11.74,23-18.7,9.64-38.1,4.86-50.4-12.39A16.49,16.49,0,0,0,529,393.74Z" transform="translate(-45.52 -6.73)"/><path class="cls-10" d="M272.81,409.71c-7.33,2-11.86.54-15.67-5.55-5.91-9.44-12.85-18.23-20.12-28.35-7.17,9.76-14,19-20.77,28.27-5.17,7.05-5.15,7.06-15.92,5.72,10.44-13.8,20.51-27.13,31-41l-28.38-38.26c6.84-1.32,11.72-1.32,15.63,5.11,5.28,8.69,11.65,16.72,18.3,26.07,6.18-8.44,12.41-16.08,17.62-24.37,4-6.31,8.64-9,17.16-6.59l-28.87,38C252.75,382.4,262.65,395.88,272.81,409.71Z" transform="translate(-45.52 -6.73)"/><path class="cls-11" d="M367,410.18h-9V330.32h8.46c.29,3.64.58,7.24,1.05,13,6.37-11.32,14.57-16.08,26.12-15.18v9.13c-19.56,3.57-25.94,11-26.55,31.55C366.64,382.32,367,395.84,367,410.18Z" transform="translate(-45.52 -6.73)"/><path class="cls-12" d="M341.17,369.93c-1.45,5.95-2.35,12.62-4.73,18.7-3.69,9.41-11.22,14.46-21.38,15.28-10.38.83-18.92-2.79-24.29-11.74-8.52-14.2-8.46-29-.59-43.41,5.33-9.76,14.45-13.31,25.35-12.23,10.7,1.06,18.24,6.75,22,16.68C339.41,358.24,339.88,363.8,341.17,369.93Z" transform="translate(-45.52 -6.73)"/><path class="cls-13" d="M140.81,364.13c1.39-17.93,12.82-28.67,28.94-27.71,14.56.86,24.12,12.16,23.2,27.71Z" transform="translate(-45.52 -6.73)"/><path class="cls-14" d="M451.94,364.34H399.88c-.12-15.91,11.66-28.08,26.86-28C442.23,336.41,452.15,347.08,451.94,364.34Z" transform="translate(-45.52 -6.73)"/></svg>