<svg id="Layer_1" data-name="Layer 1" xmlns="http://www.w3.org/2000/svg" viewBox="0 0 150 99.65"><defs><style>.cls-1{fill:#fdfdfd;}.cls-2{fill:#fd0000;}.cls-3{fill:#0000fd;}.cls-4{fill:#5dc72d;}.cls-5{fill:#f9ae3a;}.cls-6{fill:#f0de3f;}.cls-7{fill:#010101;}.cls-8{fill:#fefefe;}</style></defs><path class="cls-1" d="M0,99.63Q0,50.16,0,.69C0,.13.13,0,.69,0Q75,0,149.31,0c.56,0,.69.13.69.69q0,49.14,0,98.27c0,.56-.13.69-.69.69Q74.66,99.62,0,99.63Z" transform="translate(0 0)"/><path class="cls-2" d="M132.83,38.84c4.12,0,8.23,0,12.35,0,.55,0,.78.08.75.71-.05,1.4,0,2.81,0,4.21,0,.46-.08.65-.61.64H120.41c-.57,0-.66-.2-.65-.69,0-1.4,0-2.81,0-4.21,0-.53.13-.67.66-.66C124.55,38.85,128.69,38.84,132.83,38.84Z" transform="translate(0 0)"/><path d="M4.23,57.84c0-3,0-6.06,0-9.1,0-.52.13-.66.66-.66,1.89,0,1.89,0,1.89,1.84s0,3.81,0,5.71c0,.46.06.66.6.65,2.74,0,5.48,0,8.21,0,.48,0,.59-.13.58-.58,0-2.34,0-4.67,0-7,0-.5.13-.66.62-.62s1.44-.18,1.82.13.13,1.17.13,1.79c0,5.61,0,11.23,0,16.84,0,.65-.18.82-.78.75s-1.34.18-1.67-.11-.12-1.13-.12-1.72q0-3.3,0-6.62c0-.48-.06-.68-.63-.68-2.71,0-5.42,0-8.13,0-.48,0-.64.11-.63.61,0,2.61,0,5.22,0,7.82,0,.58-.15.75-.71.69s-1.37.24-1.74-.12-.1-1.14-.1-1.73C4.23,63.11,4.23,60.47,4.23,57.84Z" transform="translate(0 0)"/><path class="cls-3" d="M66.15,22.4q-10.05,0-20.1,0c-.43,0-.56-.12-.55-.55,0-1.5,0-3,0-4.51,0-.4.11-.5.51-.5q9.83,0,19.64,0c.48,0,.52.2.51.58,0,1.65,0,3.3,0,5l0,0Z" transform="translate(0 0)"/><path class="cls-4" d="M66.14,22.4l10.4,0c3.18,0,6.37,0,9.56,0,.55,0,.74.11.72.69,0,1.4,0,2.81,0,4.21,0,.42-.06.63-.57.63-6.53,0-13,0-19.58,0-.32,0-.58,0-.57-.45,0-1.68,0-3.35.05-5l0,0Z" transform="translate(0 0)"/><path class="cls-5" d="M107.34,38.79c-.25,0-.5.07-.74.07-6.35,0-12.7,0-19,0-.67,0-.85-.14-.8-.82.11-1.54-.09-3.09.11-4.64a1.67,1.67,0,0,1,.74-.06h19c.83,0,.85,0,.83.79C107.37,35.69,107.48,37.24,107.34,38.79Z" transform="translate(0 0)"/><path class="cls-2" d="M35.87,38.84c0,1.65,0,3.31,0,5,0,.45-.1.59-.58.59H17.16c-.47,0-.58-.14-.58-.59q0-2.22,0-4.44c0-.43.14-.53.55-.53q9.38,0,18.76,0Z" transform="translate(0 0)"/><path d="M80.35,55.71c1.74-2.19,4-3,6.2-2.12a4.79,4.79,0,0,1,3.11,4.64c.13,3,0,6,.07,8.94,0,.35-.12.43-.44.42a10.42,10.42,0,0,0-1.58,0c-.49,0-.56-.16-.56-.6,0-2.45,0-4.91,0-7.37A6.48,6.48,0,0,0,87,57.76a3.09,3.09,0,0,0-4.65-1.91,3.58,3.58,0,0,0-2,3.31c0,2.61,0,5.22,0,7.82,0,.51-.14.65-.62.61s-1.43.2-1.82-.11-.12-1.17-.12-1.79c0-6,0-11.93,0-17.89,0-.61.18-.78.75-.72s1.4-.25,1.72.13.11,1.14.11,1.74Z" transform="translate(0 0)"/><path d="M57.22,59.74c1.64-1.89,3.3-3.69,4.86-5.57a1.35,1.35,0,0,1,1.26-.6c.72.06,1.45,0,2.34,0l-2.86,3.07c-.7.75-1.38,1.53-2.11,2.24-.35.34-.33.55-.06.92,1.93,2.53,3.82,5.08,5.83,7.76h-3c-.35,0-.43-.33-.58-.53-1.35-1.87-2.69-3.74-4-5.63-.26-.37-.38-.5-.79-.08a2.76,2.76,0,0,0-.9,2.32c.08,1.12,0,2.25,0,3.38,0,.42-.09.59-.54.55-.64-.07-1.49.27-1.87-.14s-.11-1.18-.11-1.8c0-6,0-11.89,0-17.83,0-.56.1-.83.72-.73s1.37-.28,1.71.15.09,1.11.09,1.68q0,5,0,10Z" transform="translate(0 0)"/><path d="M44.82,53.29a6.43,6.43,0,0,1,6.61,6,8.11,8.11,0,0,1-1.37,6,7,7,0,0,1-7.48,2.36,6.55,6.55,0,0,1-4.72-5.88,9.78,9.78,0,0,1,.2-3.28A6.61,6.61,0,0,1,44.82,53.29Z" transform="translate(0 0)"/><path d="M35.68,60.86a8,8,0,0,1-1.11,3.85,7,7,0,0,1-7.52,3,6.59,6.59,0,0,1-5-5.79,8.13,8.13,0,0,1,1.54-6.23,7,7,0,0,1,7.5-2.11,6.53,6.53,0,0,1,4.52,5.63C35.63,59.76,35.65,60.31,35.68,60.86Z" transform="translate(0 0)"/><path d="M107.31,60.63c0-3.53,1.77-6.16,4.75-7A6.68,6.68,0,0,1,121,60c.08,2.67-.58,5.06-2.92,6.63a6.89,6.89,0,0,1-7.22.48C108.52,66,107.3,63.67,107.31,60.63Z" transform="translate(0 0)"/><path d="M100.09,61.09c-1.43,0-2.86,0-4.29,0-.51,0-.56.18-.53.6a4.31,4.31,0,0,0,4,4.13,9.15,9.15,0,0,0,4.15-.5c.37-.14.49-.11.59.3.39,1.47.41,1.48-1.08,1.87a11.3,11.3,0,0,1-4.7.29,5.93,5.93,0,0,1-5.12-4.54,8.88,8.88,0,0,1,.65-6.63,6.26,6.26,0,0,1,7.93-2.87c2.13.89,3,2.7,3.33,4.83a14.55,14.55,0,0,1,.09,1.87c0,.48-.12.7-.68.68C103,61.06,101.55,61.08,100.09,61.09Z" transform="translate(0 0)"/><path d="M132.47,53.59c.85,0,1.61,0,2.36,0a.51.51,0,0,1,.6.39c.63,1.77,1.28,3.52,1.93,5.28s1.32,3.45,1.83,5.23c.24-.07.21-.3.27-.47,1.09-3.29,2.19-6.58,3.27-9.88a.66.66,0,0,1,.79-.55c.68,0,1.35,0,2.14,0-.43,1.11-.82,2.18-1.24,3.23-1.59,4-2.91,8.14-4.84,12a9.15,9.15,0,0,1-4.39,4.66,3.49,3.49,0,0,1-.34.15c-.94.38-.94.38-1.24-.59-.35-1.15-.35-1.15.7-1.71a7.89,7.89,0,0,0,3.39-3.8,1.3,1.3,0,0,0-.11-1.14q-2.47-6.2-5-12.38C132.59,53.9,132.55,53.79,132.47,53.59Z" transform="translate(0 0)"/><path class="cls-6" d="M107.34,38.79c0-1.5,0-3,0-4.5,0-.68-.17-.89-.87-.88-6.36,0-12.73,0-19.09,0h-.52c.24-.19.53-.09.8-.09,6.25,0,12.51,0,18.76,0,.79,0,1-.22.94-1-.06-1.28,0-2.56,0-3.84,0-.5.1-.69.66-.69,3.71,0,7.43,0,11.15,0,.51,0,.7.13.68.67,0,1.4,0,2.81,0,4.21,0,.6-.21.7-.74.69-3.62,0-7.24,0-10.85,0-.69,0-.85.21-.83.85,0,1.28,0,2.56,0,3.84C107.43,38.31,107.53,38.57,107.34,38.79Z" transform="translate(0 0)"/><path d="M71.31,50.24c0,1,0,1.89,0,2.79,0,.49.15.58.59.57.88,0,1.76,0,2.64,0,.31,0,.42.06.44.41.09,1.55.1,1.54-1.47,1.56-.71,0-1.67-.32-2.08.14s-.1,1.33-.1,2q0,2.6,0,5.19a6.31,6.31,0,0,0,0,1c.22,1.48,1,2.1,2.44,1.81.85-.16,1,.12,1,.84,0,1.06,0,1.07-1,1.24a8.11,8.11,0,0,1-1.2.11,3.37,3.37,0,0,1-3.67-3.27,48.43,48.43,0,0,1-.12-5.25c0-1.1,0-2.21,0-3.31,0-.37-.06-.58-.48-.51a1.5,1.5,0,0,1-.3,0c-1.4,0-1.38,0-1.38-1.42,0-.42.11-.54.54-.55,1.61,0,1.66,0,1.59-1.61,0-.77.19-1.14,1-1.25A12.73,12.73,0,0,0,71.31,50.24Z" transform="translate(0 0)"/><path class="cls-5" d="M35.89,38.85c0-1.65,0-3.3,0-5,0-.38.12-.53.51-.53,2.89,0,5.77,0,8.66,0,.4,0,.51.15.51.53,0,1.48,0,3,0,4.43,0,.44-.15.55-.56.55-3,0-6.07,0-9.11,0Z" transform="translate(0 0)"/><path class="cls-7" d="M126.35,56c.47-.42.69-1,1.09-1.37a3.84,3.84,0,0,1,3-1.33.38.38,0,0,1,.15,0c1,.39.26,1.27.48,1.89.13.36,0,.55-.51.55a3.49,3.49,0,0,0-3.77,3.59c-.11,2.52-.08,5.05-.07,7.58,0,.57-.13.75-.7.69s-1.38.19-1.75-.11-.11-1.13-.12-1.72c0-3.88.08-7.77-.09-11.64,0-.42.09-.54.52-.55,1.72,0,1.72,0,1.77,1.69C126.35,55.5,126.35,55.74,126.35,56Z" transform="translate(0 0)"/><path class="cls-8" d="M48.87,61a5.85,5.85,0,0,1-1.28,3.54,3.75,3.75,0,0,1-5.88,0,6.79,6.79,0,0,1-.06-7.85,3.84,3.84,0,0,1,6.31.41A7.06,7.06,0,0,1,48.87,61Z" transform="translate(0 0)"/><path class="cls-8" d="M24.57,60.39a5.92,5.92,0,0,1,1.47-4,3.82,3.82,0,0,1,5.89.42,6.77,6.77,0,0,1-.15,7.61,3.74,3.74,0,0,1-5.92.09A6.17,6.17,0,0,1,24.57,60.39Z" transform="translate(0 0)"/><path class="cls-8" d="M118.34,60.58a5.75,5.75,0,0,1-1.64,4.29,3.68,3.68,0,0,1-5.36-.18,6.67,6.67,0,0,1,0-8.24,3.86,3.86,0,0,1,6.08.56A6.64,6.64,0,0,1,118.34,60.58Z" transform="translate(0 0)"/><path class="cls-1" d="M98.91,59.23c-1,0-2.06,0-3.08,0-.52,0-.57-.14-.45-.6.45-1.73,1.26-3.14,3.19-3.45,2.58-.42,4,1.43,4.09,3.64,0,.44-.23.4-.52.4Z" transform="translate(0 0)"/></svg>