<svg id="Layer_1" data-name="Layer 1" xmlns="http://www.w3.org/2000/svg" viewBox="0 0 150 150"><defs><style>.cls-1{fill:#fff;}.cls-2{fill:#e8c932;}.cls-3{fill:#fefefd;}.cls-4{fill:#fdfdfd;}.cls-5{fill:#020202;}.cls-6{fill:gray;}.cls-7{fill:#fedd25;}.cls-8{fill:#fdfdfb;}.cls-9{fill:#e7c627;}.cls-10{fill:#030303;}</style></defs><rect class="cls-1" width="150" height="150"/><path class="cls-2" d="M75.29,147.17h-.58c0-.09,0-.23-.1-.24a54.78,54.78,0,0,1-6-1.73c-1.07-.31-2.15-.58-3.22-.9-1.29-.38-2.6-.68-3.88-1-1.76-.5-3.48-1.12-5.26-1.53s-3.25-.95-4.88-1.4c-1.08-.3-2.14-.65-3.22-.91-1.35-.32-2.67-.72-4-1.12-1-.32-2-.62-3.09-.87-1.3-.31-2.58-.74-3.9-1s-2.45-.83-3.73-1c-.38-.06-.65-.24-.65-.6a15,15,0,0,0-.27-1.9c-.13-1.1-.06-2.21-.28-3.33s0-2.21-.28-3.33,0-2.12-.3-3.19,0-2-.27-3,0-2.4-.3-3.61c-.22-1,0-2-.28-3.05s0-2.11-.29-3.18S30.4,108,30.19,107s0-2.49-.28-3.76a23.53,23.53,0,0,1-.27-3.47,26.71,26.71,0,0,1-.36-5c0-.14.06-.33,0-.42a2.5,2.5,0,0,1-.26-1.9,11.77,11.77,0,0,0-.31-1.9,23.4,23.4,0,0,0-.24-3.91c-.25-1.12.11-2.34-.33-3.47.12-1.79-.51-3.54-.29-5.34,0-.14.06-.33,0-.42-.46-.64-.21-1.37-.28-2s-.22-1.35-.28-2c-.09-1,.2-2-.29-2.89.2-1.38-.35-2.7-.29-4,.1-1.94-.5-3.84-.29-5.78,0,0,0-.11,0-.14a2.66,2.66,0,0,1-.27-1.89,10.75,10.75,0,0,0-.29-1.9,21.06,21.06,0,0,0-.26-3.34c-.23-.92-.11-1.92-.28-2.9-.22-1.27,0-2.59-.31-3.9-.22-1,.18-2.15-.31-3.18.22-1.42-.37-2.78-.3-4.19s-.49-3-.28-4.48a.52.52,0,0,0,0-.28c-.58-1.08-.14-2.19-.24-3.29h101.3a1.55,1.55,0,0,1,.43,0,9,9,0,0,1,.88.28v1.44c-.09.07-.27.14-.27.22a8.07,8.07,0,0,1-.27,2.48,7.53,7.53,0,0,0,0,1.72c0,.58-.22,1.16-.27,1.75a17.39,17.39,0,0,1-.25,3.2c-.25.91-.1,1.91-.28,2.89-.23,1.17-.07,2.4-.3,3.62s0,2.59-.28,3.91a40.12,40.12,0,0,0-.33,5c0,.15,0,.33,0,.43a2.86,2.86,0,0,0-.27,1.9,9.08,9.08,0,0,1-.29,1.89,21.24,21.24,0,0,1-.25,3.63c-.25.91-.12,1.92-.29,2.9-.22,1.27,0,2.59-.29,3.9s0,2.41-.29,3.62c-.23.88-.09,1.82-.28,2.76-.24,1.17,0,2.4-.3,3.61-.22,1,0,2-.28,3.05s-.08,2.11-.28,3.18c-.25,1.37,0,2.8-.31,4.2-.22.93,0,1.91-.26,2.9s0,2.21-.31,3.33c-.21.88-.09,1.82-.27,2.75-.24,1.27,0,2.6-.3,3.91s0,2.4-.28,3.62c-.23.92-.1,1.92-.29,2.9s0,2.3-.29,3.47c-.22.88-.12,1.83-.27,2.76-.23,1.32,0,2.7-.32,4-.19.8.18,1.69-.31,2.47a23.19,23.19,0,0,1-.28,3.9c-.15,1.78-.19,3.56-.3,5.34a1.26,1.26,0,0,1-1.23,1.35,4.32,4.32,0,0,0-.51.16c-1.21.33-2.39.71-3.61,1s-2.4.69-3.6,1c-1.5.42-3,1-4.51,1.27a30.82,30.82,0,0,0-3.09.86,24.3,24.3,0,0,1-3.56,1.09c-.91.13-1.69.6-2.62.67a14.85,14.85,0,0,0-2.67.81c-1.07.31-2.15.59-3.23.87-.69.18-1.39.4-2,.62-1.22.42-2.5.63-3.72,1.08a26.93,26.93,0,0,1-3,.85c-1.65.39-3.25,1-4.91,1.34A.61.61,0,0,0,75.29,147.17Zm-15.53-38-.29.29c-.24,0-.54.1-.7,0a8.09,8.09,0,0,0-2.41-.78c-.88-.27-1.88-.38-2.74-.7s-1.92-.37-2.83-.79-1.8-.44-2.67-.83a6.61,6.61,0,0,0-2-.33,10,10,0,0,1-2-.51,20.81,20.81,0,0,1-3.07-.92,2,2,0,0,0-.81,0V116.4c.26,0,.5-.07.63,0,1.14.72,2.55.5,3.7,1.14a2,2,0,0,1,1.58.33c.54.35,1.24,0,1.65.53,2.07.56,4.12,1.18,6.19,1.69s4,1.16,6.07,1.66c1.17.29,2.33.65,3.49.93,1.61.4,3.16,1,4.78,1.33.82.18,1.61.48,2.43.71a1.33,1.33,0,0,0,.46,0V53c0-.46-.27-.65-.68-.72H59.76ZM75,40.36V138a1.83,1.83,0,0,0,.44,0,14.63,14.63,0,0,1,2.25-.78,41.76,41.76,0,0,0,4.17-1.07c1.07-.29,2.13-.68,3.19-.92a37.23,37.23,0,0,1,5.09-1.3,6.85,6.85,0,0,0,1.27-.39c1.55-.42,3.11-.78,4.65-1.25,1.2-.36,2.43-.6,3.61-1,1.43-.5,2.92-.82,4.37-1.23s2.84-.76,4.27-1.29a4.38,4.38,0,0,1,0-1.54,3.61,3.61,0,0,0,.23-1.76,7.81,7.81,0,0,1,.3-1.76c.07-.92.08-1.83.24-2.76.23-1.32,0-2.69.31-4,.23-1.13,0-2.31.27-3.48.25-.92.11-1.92.29-2.9.21-1.17,0-2.4.3-3.61a17.21,17.21,0,0,1,.29-2.62,6.91,6.91,0,0,0,0-1.71c0-.59.22-1.16.27-1.75a24.28,24.28,0,0,1,.24-3.49c.26-1.05.07-2.2.31-3.32s0-2,.28-3,0-2.11.29-3.18.06-1.92.29-2.9.1-1.82.27-2.75c.23-1.32,0-2.7.31-4,.23-1.13,0-2.3.27-3.48.26-.91.07-1.92.29-2.89s.07-2.11.28-3.19,0-2.4.31-3.61c.22-.94,0-1.93.28-2.91a10.15,10.15,0,0,0,.05-2.28c0-.78.27-1.56.26-2.33,0-1.55.52-3.06.31-4.62,0-.05,0-.11,0-.14a2.62,2.62,0,0,0,.25-2,14.14,14.14,0,0,1,.33-2.18c.06-1.59.18-3.18.28-4.77,0,0,0-.1,0-.14.54-1,.17-2.1.29-3a6.17,6.17,0,0,0-3.24-.46H78.25A6.28,6.28,0,0,0,75,40.36Z"/><path class="cls-3" d="M126.46,31.3a9,9,0,0,0-.88-.28,1.55,1.55,0,0,0-.43,0H23.85c.1,1.1-.34,2.21.24,3.29a.52.52,0,0,1,0,.28c-.21,1.51.36,3,.28,4.48s.52,2.77.3,4.19c.49,1,.09,2.15.31,3.18.29,1.31.09,2.63.31,3.9.17,1,.05,2,.28,2.9a21.06,21.06,0,0,1,.26,3.34,10.75,10.75,0,0,1,.29,1.9,2.66,2.66,0,0,0,.27,1.89s0,.1,0,.14c-.21,1.94.39,3.84.29,5.78-.06,1.35.49,2.67.29,4,.49.92.2,1.93.29,2.89.06.69.2,1.36.28,2s-.18,1.41.28,2c.07.09,0,.28,0,.42-.22,1.8.41,3.55.29,5.34.44,1.13.08,2.35.33,3.47a23.4,23.4,0,0,1,.24,3.91,11.77,11.77,0,0,1,.31,1.9,2.5,2.5,0,0,0,.26,1.9c.06.09,0,.28,0,.42a26.71,26.71,0,0,0,.36,5,23.53,23.53,0,0,0,.27,3.47c.27,1.27,0,2.54.28,3.76s.06,2.17.29,3.19.05,2.16.29,3.18.06,2.07.28,3.05c.27,1.21.05,2.45.3,3.61s0,2.07.27,3,.07,2.16.3,3.19.07,2.25.28,3.33.15,2.23.28,3.33a15,15,0,0,1,.27,1.9c0,.36.27.54.65.6,1.28.21,2.47.78,3.73,1s2.6.7,3.9,1c1,.25,2.07.55,3.09.87,1.32.4,2.64.8,4,1.12,1.08.26,2.14.61,3.22.91,1.63.45,3.22,1,4.88,1.4s3.5,1,5.26,1.53c1.28.36,2.59.66,3.88,1,1.07.32,2.15.59,3.22.9a54.78,54.78,0,0,0,6,1.73s.07.15.1.24H23.54V2.83H66.66V17.25H58.08v5.06H71.55v-18a2,2,0,0,0-.29-1.46h3.16V15H87.31v2.26c-2.19,0-4.34,0-6.49,0s-4.27,0-6.34,0v5.09c4.62.18,16.82.11,18-.09v-12H79.65V8h6.49c2.13,0,4.27,0,6.4,0V2.83h33.92Z"/><path class="cls-4" d="M75.29,147.17a.61.61,0,0,1,0-.14c1.66-.35,3.26-.95,4.91-1.34a26.93,26.93,0,0,0,3-.85c1.22-.45,2.5-.66,3.72-1.08.66-.22,1.36-.44,2-.62,1.08-.28,2.16-.56,3.23-.87a14.85,14.85,0,0,1,2.67-.81c.93-.07,1.71-.54,2.62-.67A24.3,24.3,0,0,0,101,139.7a30.82,30.82,0,0,1,3.09-.86c1.54-.3,3-.85,4.51-1.27,1.2-.34,2.39-.74,3.6-1s2.4-.67,3.61-1a4.32,4.32,0,0,1,.51-.16,1.26,1.26,0,0,0,1.23-1.35c.11-1.78.15-3.56.3-5.34a23.19,23.19,0,0,0,.28-3.9c.49-.78.12-1.67.31-2.47.32-1.34.09-2.72.32-4,.15-.93,0-1.88.27-2.76.29-1.17.07-2.35.29-3.47s.06-2,.29-2.9c.31-1.22,0-2.45.28-3.62s.06-2.64.3-3.91c.18-.93.06-1.87.27-2.75.27-1.12.05-2.27.31-3.33s0-2,.26-2.9c.34-1.4.06-2.83.31-4.2.2-1.07,0-2.16.28-3.18s.06-2.07.28-3.05c.28-1.21.06-2.44.3-3.61.19-.94,0-1.88.28-2.76.31-1.21.06-2.44.29-3.62s.07-2.63.29-3.9c.17-1,0-2,.29-2.9a21.24,21.24,0,0,0,.25-3.63,9.08,9.08,0,0,0,.29-1.89,2.86,2.86,0,0,1,.27-1.9c.06-.1,0-.28,0-.43a40.12,40.12,0,0,1,.33-5c.25-1.32,0-2.64.28-3.91s.07-2.45.3-3.62c.18-1,0-2,.28-2.89a17.39,17.39,0,0,0,.25-3.2c0-.59.22-1.17.27-1.75a7.53,7.53,0,0,1,0-1.72,8.07,8.07,0,0,0,.27-2.48c0-.08.18-.15.27-.22V147.17Z"/><path class="cls-5" d="M71.26,2.83a2,2,0,0,1,.29,1.46v18H58.08V17.25h8.58V2.83Z"/><ellipse class="cls-6" cx="83.48" cy="2.98" rx="12.81" ry="0.2"/><path class="cls-7" d="M75,40.36a6.28,6.28,0,0,1,3.21-.43h34.63a6.17,6.17,0,0,1,3.24.46c-.12.94.25,2-.29,3,0,0,0,.09,0,.14-.1,1.59-.22,3.18-.28,4.77a14.14,14.14,0,0,0-.33,2.18,2.62,2.62,0,0,1-.25,2s0,.09,0,.14c.21,1.56-.33,3.07-.31,4.62,0,.77-.21,1.55-.26,2.33a10.15,10.15,0,0,1-.05,2.28c-.31,1-.06,2-.28,2.91-.28,1.21-.07,2.44-.31,3.61s0,2.16-.28,3.19,0,2-.29,2.89c-.32,1.18,0,2.35-.27,3.48-.28,1.35-.08,2.73-.31,4-.17.93-.06,1.87-.27,2.75s-.07,2-.29,2.9,0,2.16-.29,3.18-.07,2.07-.28,3,0,2.27-.31,3.32a24.28,24.28,0,0,0-.24,3.49c-.05.59-.22,1.16-.27,1.75a6.91,6.91,0,0,1,0,1.71,17.21,17.21,0,0,0-.29,2.62c-.28,1.21-.09,2.44-.3,3.61-.18,1,0,2-.29,2.9-.31,1.17,0,2.35-.27,3.48-.27,1.35-.08,2.72-.31,4-.16.93-.17,1.84-.24,2.76a7.81,7.81,0,0,0-.3,1.76,3.61,3.61,0,0,1-.23,1.76,4.38,4.38,0,0,0,0,1.54c-1.43.53-2.86.88-4.27,1.29s-2.94.73-4.37,1.23c-1.18.4-2.41.64-3.61,1-1.54.47-3.1.83-4.65,1.25a6.85,6.85,0,0,1-1.27.39,37.23,37.23,0,0,0-5.09,1.3c-1.06.24-2.12.63-3.19.92a41.76,41.76,0,0,1-4.17,1.07,14.63,14.63,0,0,0-2.25.78,1.83,1.83,0,0,1-.44,0Zm30.44,77.1c0-.36-.14-.81,0-1.09.4-.67.19-1.37.27-2.05s.23-1.36.27-2c.12-1.73.2-3.47.3-5.2,0-.09,0-.23,0-.28.52-.57.18-1.27.27-1.9s.22-1.35.29-2c.09-.87-.22-1.78.29-2.61-.2-1.37.27-2.69.3-4,0-1.59.18-3.17.28-4.76,0,0,0-.12,0-.14.55-.62.18-1.37.28-2a11.7,11.7,0,0,0,.27-2.18c-.08-1.51.53-3,.31-4.48,0-.09,0-.23,0-.28.5-.49.19-1,.24-1.57-.3,0-.58-.08-.66,0-.35.42-.79.22-1.19.28s-.78.23-1.18.28a16.42,16.42,0,0,0-2.74.32c-1.45.46-3,.37-4.41.8-.91.28-2,.11-2.88.36a16.81,16.81,0,0,0-1.88.3,6.44,6.44,0,0,1-1.77.24c-.62.07-1.24.18-1.89.27V63.79h19c1,0,1-.1,1.06-1.06a9.29,9.29,0,0,1,.26-3.19,3.92,3.92,0,0,0,0-1.14c0-.36-.16-.78.25-1-.45-.36.14-.67,0-1.05a4.81,4.81,0,0,1,0-1.14c0-.38,0-.77,0-1.15a4.61,4.61,0,0,1,.11-.82c.16-.59,0-.85-.54-.89-.34,0-.67,0-1,0H79.08c-.21,4.69-.12,43,.09,44.25l18-2.85c0,.25,0,.43,0,.61a14.24,14.24,0,0,1-.28,3.19c-.15,1.3-.2,2.6-.3,3.9,0,0,0,.12,0,.14-.55.62-.18,1.37-.28,2a9,9,0,0,0-.26,2c.06.77-.35,1.43-.35,2.18,0,.19-.31.5-.53.54-1.36.29-2.65.85-4,1.12-2,.43-4,1.13-6,1.58s-4.11,1.15-6.11,1.73v11.92c.14,0,.24.08.32,0,1.15-.34,2.29-.72,3.44-1.06s2.34-.59,3.48-1A37.64,37.64,0,0,0,90,121.66a24.6,24.6,0,0,1,3.07-.9c1-.3,2.06-.57,3.09-.86s2.17-.54,3.23-.89,2.37-.53,3.51-.91A23.56,23.56,0,0,1,105.48,117.46Z"/><path class="cls-8" d="M59.76,109.21V52.29H70.58c.41.07.69.26.68.72v71.68a1.33,1.33,0,0,1-.46,0c-.82-.23-1.61-.53-2.43-.71-1.62-.36-3.17-.93-4.78-1.33-1.16-.28-2.32-.64-3.49-.93-2-.5-4-1.15-6.07-1.66s-4.12-1.13-6.19-1.69c-.41-.55-1.11-.18-1.65-.53a2,2,0,0,0-1.58-.33c-1.15-.64-2.56-.42-3.7-1.14-.13-.08-.37,0-.63,0V104.61a2,2,0,0,1,.81,0,20.81,20.81,0,0,0,3.07.92,10,10,0,0,0,2,.51,6.61,6.61,0,0,1,2,.33c.87.39,1.83.45,2.67.83s1.9.44,2.83.79,1.86.43,2.74.7a8.09,8.09,0,0,1,2.41.78c.16.11.46,0,.7,0Z"/><path class="cls-9" d="M59.76,109.21l-.29.29Z"/><path class="cls-10" d="M74.42,3.12H92.54V8c-2.13,0-4.27,0-6.4,0H79.65v2.25H92.49v12c-1.19.2-13.39.27-18,.09V17.25c2.07-.08,4.21,0,6.34,0s4.3,0,6.49,0V15H74.42Z"/><path class="cls-4" d="M105.48,117.46a23.56,23.56,0,0,0-2.54.64c-1.14.38-2.36.53-3.51.91s-2.16.59-3.23.89-2.06.56-3.09.86a24.6,24.6,0,0,0-3.07.9,37.64,37.64,0,0,1-3.73,1.06c-1.14.36-2.33.62-3.48,1s-2.29.72-3.44,1.06c-.08,0-.18,0-.32,0V112.76c2-.58,4-1.28,6.11-1.73s3.95-1.15,6-1.58c1.33-.27,2.62-.83,4-1.12.22,0,.53-.35.53-.54,0-.75.41-1.41.35-2.18a9,9,0,0,1,.26-2c.1-.67-.27-1.42.28-2,0,0,0-.09,0-.14.1-1.3.15-2.6.3-3.9a14.24,14.24,0,0,0,.28-3.19c0-.18,0-.36,0-.61l-18,2.85c-.21-1.23-.3-39.56-.09-44.25H109.5c.34,0,.67,0,1,0,.56,0,.7.3.54.89a4.61,4.61,0,0,0-.11.82c0,.38,0,.77,0,1.15a4.81,4.81,0,0,0,0,1.14c.09.38-.5.69,0,1.05-.41.27-.23.69-.25,1a3.92,3.92,0,0,1,0,1.14,9.29,9.29,0,0,0-.26,3.19c0,1-.11,1.06-1.06,1.06h-19V83.61c.65-.09,1.27-.2,1.89-.27A6.44,6.44,0,0,0,94,83.1a16.81,16.81,0,0,1,1.88-.3c.93-.25,2-.08,2.88-.36,1.45-.43,3-.34,4.41-.8a16.42,16.42,0,0,1,2.74-.32c.4,0,.78-.21,1.18-.28s.84.14,1.19-.28c.08-.09.36,0,.66,0-.05.54.26,1.08-.24,1.57,0,.05,0,.19,0,.28.22,1.51-.39,3-.31,4.48a11.7,11.7,0,0,1-.27,2.18c-.1.67.27,1.42-.28,2,0,0,0,.09,0,.14-.1,1.59-.24,3.17-.28,4.76,0,1.36-.5,2.68-.3,4-.51.83-.2,1.74-.29,2.61-.07.69-.18,1.36-.29,2s.25,1.33-.27,1.9c0,0,0,.19,0,.28-.1,1.73-.18,3.47-.3,5.2,0,.68-.19,1.36-.27,2s.13,1.38-.27,2.05C105.34,116.65,105.48,117.1,105.48,117.46Z"/></svg>