<svg id="Layer_1" data-name="Layer 1" xmlns="http://www.w3.org/2000/svg" viewBox="0 0 720 720"><defs><style>.cls-1{fill:#c53d14;}.cls-2{fill:#fcf8f7;}.cls-3{fill:#c63f17;}.cls-4{fill:#c7421a;}.cls-5{fill:#c64119;}.cls-6{fill:#c74119;}</style></defs><path class="cls-1" d="M720,720H0V0H720ZM304.2,180.39C319.79,226.72,335,272,350.37,317.65c-16.77,6.56-28.83,16.69-31.72,34.64-2.92,18.11,4.12,32.46,18.72,43.54C323,416.4,305.89,432.18,284,442.31c-3.1,1.44-7.83,2.47-10.54,1.13-17.57-8.72-18.68-37.09-2.22-47.69,20.16-13,26.11-38.69,13.54-58.52a42.13,42.13,0,0,0-57.54-13.3A41.55,41.55,0,0,0,214,382.25c4.57,6.93,3.49,11.57.76,18.42-6.77,17-14.55,34.07-17.83,51.87-11.4,61.87,36.52,105.56,96.87,88.17,21.17-6.09,40.82-17.28,61.47-25.36,23.39-9.14,46.94-18,70.81-25.77,10.86-3.53,22.84-3.48,34-6.2,46.29-11.26,66.85-51.79,49.17-95.86-1.15-2.86-1.92-6.55-1.17-9.4,8.44-32.17,1.65-46.56-29.72-61.22,15.23-45.23,30.49-90.52,46-136.51Z"/><path class="cls-2" d="M304.2,180.39H524.4c-15.49,46-30.75,91.28-46,136.51,31.37,14.66,38.16,29.05,29.72,61.22-.75,2.85,0,6.54,1.17,9.4,17.68,44.07-2.88,84.6-49.17,95.86-11.19,2.72-23.17,2.67-34,6.2-23.87,7.77-47.42,16.63-70.81,25.77-20.65,8.08-40.3,19.27-61.47,25.36-60.35,17.39-108.27-26.3-96.87-88.17,3.28-17.8,11.06-34.88,17.83-51.87,2.73-6.85,3.81-11.49-.76-18.42a41.55,41.55,0,0,1,13.21-58.32,42.13,42.13,0,0,1,57.54,13.3c12.57,19.83,6.62,45.54-13.54,58.52-16.46,10.6-15.35,39,2.22,47.69,2.71,1.34,7.44.31,10.54-1.13,21.89-10.13,39-25.91,53.37-46.48-14.6-11.08-21.64-25.43-18.72-43.54,2.89-18,15-28.08,31.72-34.64C335,272,319.79,226.72,304.2,180.39Zm84,147.06c1.41,1.82,2.69,3.49,4,5.14,10.74,13.74,12.89,29,5.74,44.61s-20,23.68-37.57,24.7c-4.08.23-9.06,3.73-11.7,7.2C331.17,432,310.3,450.6,283,460.68c-4.69,1.73-12.14,1.05-16.26-1.64-20.31-13.32-27.52-32.75-22.95-56.26-7-4.22-11.4-2.93-14.18,4.55-4.75,12.79-11.52,25.06-14.53,38.21-5.51,24-6.18,48.39,13.69,67.05,20.47,19.21,45.08,19.06,69.67,9.67,18.7-7.15,36.89-15.78,54.85-24.69,26.23-13,53.25-22.92,82.46-26.82,11.33-1.52,23-3.78,33.41-8.19,27.37-11.59,38.33-43.5,23.93-66.48a10.19,10.19,0,0,0-2.43.38c-22,9-39.59,5.82-52.5-9.42s-13.11-33.55-1.33-53.43c1.51-2.54,2.82-6.71,1.77-9-7.36-16-15.37-31.78-24.31-49.91Zm67-7.47,4.69-.54c13.68-40.5,27.36-81,41.21-122H327.32l41.56,122.32,4.48-.16,41.08-82.36C428.73,266.21,442,293.09,455.24,320Zm40.57,39.16a26,26,0,0,0-25.84-25,25.35,25.35,0,0,0-25.22,26.59c.55,13.68,12.72,25.12,26.2,24.61S496.13,372.5,495.81,359.14ZM274.89,360c.1-13.6-11.49-25.43-25.16-25.69a25.81,25.81,0,0,0-26,24.76c-.46,14.13,11.63,26.57,25.69,26.46C263,385.42,274.79,373.55,274.89,360Zm84.64-25.83a25.61,25.61,0,0,0-25.16,25.5c0,13.59,11.73,25.49,25.26,25.68,13.9.19,26.31-12.48,25.88-26.42A25.8,25.8,0,0,0,359.53,334.17Z"/><path class="cls-3" d="M388.22,327.45l26.08-52.74c8.94,18.13,16.95,33.87,24.31,49.91,1.05,2.28-.26,6.45-1.77,9-11.78,19.88-11.46,38.33,1.33,53.43s30.46,18.37,52.5,9.42a9.72,9.72,0,0,1,2.44-.37c14.39,23,3.43,54.88-23.94,66.47-10.44,4.41-22.08,6.67-33.41,8.19-29.21,3.9-56.23,13.8-82.46,26.82-18,8.91-36.15,17.54-54.85,24.69-24.59,9.39-49.2,9.54-69.67-9.67-19.87-18.66-19.2-43.07-13.69-67.05,3-13.15,9.78-25.42,14.53-38.21,2.78-7.48,7.19-8.77,14.18-4.55-4.57,23.51,2.64,42.94,22.95,56.26,4.12,2.69,11.57,3.37,16.26,1.64C310.3,450.6,331.17,432,348.68,409.1c2.64-3.47,7.62-7,11.7-7.2,17.6-1,30.42-9.08,37.57-24.7s5-30.87-5.74-44.61C390.91,330.94,389.63,329.27,388.22,327.45Z"/><path class="cls-4" d="M455.24,320c-13.25-26.89-26.51-53.77-40.8-82.76l-41.08,82.36-4.48.16L327.32,197.42H501.14c-13.85,41-27.53,81.52-41.21,122Z"/><path class="cls-4" d="M495.81,359.14c.32,13.36-11.4,25.71-24.86,26.22s-25.65-10.93-26.2-24.61A25.35,25.35,0,0,1,470,334.16,26,26,0,0,1,495.81,359.14Z"/><path class="cls-5" d="M274.89,360c-.1,13.55-11.94,25.42-25.45,25.53-14.06.11-26.15-12.33-25.69-26.46a25.81,25.81,0,0,1,26-24.76C263.4,334.57,275,346.4,274.89,360Z"/><path class="cls-6" d="M359.53,334.17a25.8,25.8,0,0,1,26,24.76c.43,13.94-12,26.61-25.88,26.42-13.53-.19-25.23-12.09-25.26-25.68A25.61,25.61,0,0,1,359.53,334.17Z"/></svg>