<svg id="Layer_1" data-name="Layer 1" xmlns="http://www.w3.org/2000/svg" viewBox="0 0 720 720"><defs><style>.cls-1{fill:#fff;}.cls-2{fill:#fefefe;}.cls-3{fill:#1b3657;}.cls-4{fill:#182d46;}</style></defs><rect class="cls-1" width="720" height="720"/><path class="cls-2" d="M21.89,360q0-176.92-.14-353.86C21.74,1,22.76,0,27.89,0Q360,.26,692.11,0c5.13,0,6.14,1,6.14,6.14q-.24,353.87,0,707.72c0,5.13-1,6.14-6.14,6.14Q360,719.75,27.89,720c-5.13,0-6.15-1-6.14-6.14Q22,536.93,21.89,360ZM359.27,11.82c-2.65.13-4.55,1.91-6.68,3.14Q207.77,98.38,62.87,181.68C57.52,184.75,56,188.19,56,194q.21,167.82,0,335.65c0,5.46,2,7.92,6.78,10.68,79.13,45.34,158,91.09,237.08,136.59,19.63,11.29,38.82,23.37,59.13,33.47,5.17,2.92,9.85.44,14-2,30.89-17.73,61.6-35.76,92.45-53.55q94.2-54.32,188.5-108.44c7.4-4.24,10.85-9.45,10.82-18.49-.29-105.17-.17-210.33-.22-315.49,0-6.74-.77-13.48-.62-20.2.1-4.95-2.05-7.47-6.2-9.86Q512.83,99.07,368,15.53C365.28,14,362.78,11.64,359.27,11.82Z"/><path class="cls-3" d="M359.27,11.82c3.51-.18,6,2.14,8.73,3.71Q512.89,98.95,657.77,182.4c4.15,2.39,6.3,4.91,6.2,9.86-.15,6.72.62,13.46.62,20.2,0,105.16-.07,210.32.22,315.49,0,9-3.42,14.25-10.82,18.49q-94.34,54.07-188.5,108.44c-30.85,17.79-61.56,35.82-92.45,53.55-4.19,2.4-8.87,4.88-14,2,.08-2.49.24-5,.24-7.48q0-94,0-188c3.87.11,5.49-1.77,6.26-5.61,3.68-18.28,7.82-36.47,11.45-54.76,1.28-6.46,6.47-14.72,2.37-19-3.78-3.94-12.78-1-19.48-1.05l-.59-17.35c9.23-.13,18.45-.17,27.67-.45a92.29,92.29,0,0,0,17.55-1.81c19.13-4.19,36.31-11.32,52.08-23.35,15-11.48,24.75-26.41,33.5-42.47.69-1.27,2.25-2.66.31-3.73-1.5-.82-2.68.55-3.57,1.88a43.47,43.47,0,0,1-9.28,10.54,119,119,0,0,1-51.51,23c-18.38,3.46-36.43,2-54.42-1.06-3.91-.67-9.13-.19-12.29-4.18l.36-53.73a117.53,117.53,0,0,0,63.95,12.64c6.63-.53,12.91-2.32,19.34-3.65,13-2.68,23.68-9.91,33.44-18.24s16.7-18.44,19.58-31.44c-2.73.32-3.71,2.12-5.07,3.45-24.85,24.35-54.19,30.59-87.13,21.07-17.84-5.15-33.8-13.75-46.28-27.93,3.08-2.55,1.72-6,1.72-9.11Q359.31,140.19,359.27,11.82Zm69,470.76h8.25c19.55,0,20.67-1.11,21.32-21.25.6-18.66-5.64-25.79-24.31-27.82-1-.11-2-.51-2.95-.52-18.29-.13-33.93,3.13-42.93,21a80.57,80.57,0,0,0-8.54,36.08c-.08,14,6.45,21.74,20.24,24.36,10.89,2.07,21.9.91,32.86,1.05,14.46.19,14.29,0,16.91-14.31.89-4.87.07-6.82-5.32-6.62-9.48.36-19,.1-28.48.11-3.54,0-7-.45-10-2.5a6.75,6.75,0,0,1-2.78-7.27c.64-3.3,3.45-2.23,5.47-2.27C414.82,482.5,421.57,482.58,428.31,482.58Zm117.52-11.45c-3.77-11.94-3.77-11.94-15.34-11.94-2.75,0-5.51.15-8.24,0-4.11-.28-4.5,1.4-3.4,4.94,2.73,8.79,5.06,17.71,7.68,26.54a14.81,14.81,0,0,1,.55,7.33c-1,5.27-5.7,11.88-2.26,15.43s10.93.57,16.58,1.23c5.13.61,7.34-1.74,7.93-6.42,1.11-8.69,5.28-15.78,10.64-22.63,12.14-15.5,23.83-31.37,35.57-47.18,3.53-4.76,11.24-10.75,9.29-14.21-2.67-4.7-11.31-1-17.31-1.83s-9.57,1.71-12.84,6.72C565.57,443,555.87,456.58,545.83,471.13ZM391.39,160.58c-1.34,4.19-6.07,4.26-8.4,7.76C363.78,197.25,375.8,234,404.29,252c17.51,11.08,36.66,13.33,56.09,7.29,12.89-4,23.51-12,28-26.73-20.94,12.66-27.36,14.91-42.63,13s-29.25-8.28-39.94-19.27C387.24,207.11,379.73,181.7,391.39,160.58ZM502.83,434.39c-7,0-14,.35-21-.12-5.3-.35-7.37,1.44-8.4,6.7-3.84,19.54-8.18,39-12.36,58.46-3.29,15.28-3.3,14.95,12.27,15.29,5.89.13,7.68-2.14,8.66-7.39,2.81-15.18,6.34-30.23,9.05-45.43,1-5.4,3.28-6.73,8.43-6.69,12.21.09,24.41-.72,36.62-.69,4.83,0,5.2-1.72,4.3-5.75-2.5-11.22-6.08-14.24-18.12-14.37C515.82,434.33,509.32,434.39,502.83,434.39Z"/><path class="cls-4" d="M359.64,321.75l-.36,53.73c-6.13-1-11.8-3.42-17.34-6.07a154.26,154.26,0,0,1-59-49.08c-22.26-30.64-31.22-64.2-22.41-101.93,1.3-5.54,6.28-10.7,3.42-18.76-5.53,6.7-10.68,12-14.77,18.09-8.14,12.08-13.9,24.94-16.28,39.8a128.51,128.51,0,0,0,1.17,47.17c3.09,14.65,9.3,28.52,17.07,41.63,9,15.22,21.48,27.41,34.53,38.71,14.82,12.83,32.46,21.46,51.1,27.79.48,2.6,2.14,2.73,4.21,2,6.44-1.95,12.12,2,18.27,2.3q.3,8.69.59,17.35-5.54,24.76-11.09,49.53c-2.76,12.33.24,10.53-13,10.6-10.52.05-13.51-3.5-11.64-13.82,1.81-10,4.24-20,6-30,3.38-19.55,7.48-16-14.8-16.44-3.2-.06-4.53,1.48-5,4.26-2.78,16.17-7.66,31.94-9.25,48.35-1.75,18,6.58,27.45,24.59,27.61q16.83.13,33.65.34,0,94,0,188c0,2.49-.16,5-.24,7.48-20.31-10.1-39.5-22.18-59.13-33.47-79.05-45.5-158-91.25-237.08-136.59C58,537.57,56,535.11,56,529.65Q56.22,361.83,56,194c0-5.81,1.5-9.25,6.85-12.32Q207.85,98.54,352.59,15c2.13-1.23,4-3,6.68-3.14q0,128.35-.08,256.72c0,3.06,1.36,6.56-1.72,9.11-5.6-3.15-8.72-8.54-12.41-13.47a91.78,91.78,0,0,1-18.72-53.52c-.19-9.57.63-20.53,5.91-29.84.47-.82,2.31-2.54.36-3.58-1.14-.6-2.43-.32-3.51,1.45-3.87,6.3-9,11.95-12.18,18.55-7.81,16.25-11.47,33-7.95,51.54a102.85,102.85,0,0,0,26.2,51.87C342.55,308.69,351.62,314.57,359.64,321.75Zm-76.87,172c4.33-13.17,9.68-25,11.66-37.9,2.65-17.31-5.48-33.25-21.38-39.41s-32.18-5.78-46.64,3.49c-23.52,15.08-29.91,39-28.72,65,.9,19.51,13.58,29.6,33.33,29.69,14.47.07,28.94,0,43.4,0,15,0,14.92,0,18.37-15,1-4.3,0-6.24-4.54-5.88C286.79,493.81,285.31,493.71,282.77,493.71Zm-138.21,53c20.09,0,26.35-4.73,32-24.17.48-1.67.88-3.38,1.26-5.08,3.46-15.55,7.28-31,10.22-46.68,2.33-12.34,5.68-12.35-10.2-12.22a37.35,37.35,0,0,1-4.49,0c-4.46-.5-6.77,1.08-7.67,5.83-2.13,11.24-4.64,22.42-7.32,33.54-1.73,7.24-2.23,14.84-5.9,21.54-1.7,3.12-3.75,6.85-7.59,6.32-7.28-1-8.61,3-9.86,8.74C132.3,546.75,132.06,546.7,144.56,546.7ZM184.5,434.39c-14.52.05-11.62-.77-13.27,6.57-3.2,14.2-5.91,13.31,10.4,13.59,6.71.11,11-.67,12.22-8.75C195.65,434.29,196.3,434.39,184.5,434.39Z"/><path class="cls-2" d="M336.76,412.83c-18.64-6.33-36.28-15-51.1-27.79-13.05-11.3-25.5-23.49-34.53-38.71-7.77-13.11-14-27-17.07-41.63a128.51,128.51,0,0,1-1.17-47.17c2.38-14.86,8.14-27.72,16.28-39.8,4.09-6,9.24-11.39,14.77-18.09,2.86,8.06-2.12,13.22-3.42,18.76-8.81,37.73.15,71.29,22.41,101.93a154.26,154.26,0,0,0,59,49.08c5.54,2.65,11.21,5,17.34,6.07,3.16,4,8.38,3.51,12.29,4.18,18,3.08,36,4.52,54.42,1.06a119,119,0,0,0,51.51-23,43.47,43.47,0,0,0,9.28-10.54c.89-1.33,2.07-2.7,3.57-1.88,1.94,1.07.38,2.46-.31,3.73-8.75,16.06-18.45,31-33.5,42.47-15.77,12-33,19.16-52.08,23.35a92.29,92.29,0,0,1-17.55,1.81c-9.22.28-18.44.32-27.67.45-6.15-.26-11.83-4.25-18.27-2.3C339.93,413.4,338.81,412.14,336.76,412.83Z"/><path class="cls-2" d="M359.64,321.75c-8-7.18-17.09-13.06-24.47-21.1A102.85,102.85,0,0,1,309,248.78c-3.52-18.55.14-35.29,7.95-51.54,3.17-6.6,8.31-12.25,12.18-18.55,1.08-1.77,2.37-2.05,3.51-1.45,1.95,1,.11,2.76-.36,3.58-5.28,9.31-6.1,20.27-5.91,29.84a91.78,91.78,0,0,0,18.72,53.52c3.69,4.93,6.81,10.32,12.41,13.47,12.48,14.18,28.44,22.78,46.28,27.93,32.94,9.52,62.28,3.28,87.13-21.07,1.36-1.33,2.34-3.13,5.07-3.45-2.88,13-10,23.24-19.58,31.44S456,328.06,442.93,330.74c-6.43,1.33-12.71,3.12-19.34,3.65A117.53,117.53,0,0,1,359.64,321.75Z"/><path class="cls-2" d="M428.31,482.58c-6.74,0-13.49-.08-20.24,0-2,0-4.83-1-5.47,2.27a6.75,6.75,0,0,0,2.78,7.27c3,2,6.44,2.5,10,2.5,9.49,0,19,.25,28.48-.11,5.39-.2,6.21,1.75,5.32,6.62-2.62,14.32-2.45,14.5-16.91,14.31-11-.14-22,1-32.86-1.05-13.79-2.62-20.32-10.38-20.24-24.36A80.57,80.57,0,0,1,387.69,454c9-17.87,24.64-21.13,42.93-21,1,0,2,.41,2.95.52,18.67,2,24.91,9.16,24.31,27.82-.65,20.14-1.77,21.25-21.32,21.25Zm-7.92-17.69a68,68,0,0,0,7.42-.06c2.37-.27,5.89,1.63,6.56-2.64.63-4-1.41-6.63-4.93-8.22-6-2.71-15.44-.64-19.89,4.31-1.35,1.49-3,3.2-2.46,5.15.72,2.61,3.34,1.27,5.13,1.41C414.92,465,417.66,464.89,420.39,464.89Z"/><path class="cls-2" d="M359.23,514.9q-16.82-.18-33.65-.34c-18-.16-26.34-9.6-24.59-27.61,1.59-16.41,6.47-32.18,9.25-48.35.48-2.78,1.81-4.32,5-4.26,22.28.48,18.18-3.11,14.8,16.44-1.74,10.05-4.17,20-6,30-1.87,10.32,1.12,13.87,11.64,13.82,13.27-.07,10.27,1.73,13-10.6q5.55-24.76,11.09-49.53c6.7.09,15.7-2.89,19.48,1.05,4.1,4.27-1.09,12.53-2.37,19-3.63,18.29-7.77,36.48-11.45,54.76C364.72,513.13,363.1,515,359.23,514.9Z"/><path class="cls-2" d="M545.83,471.13c10-14.55,19.74-28.11,28.85-42.06,3.27-5,6.89-7.54,12.84-6.72s14.64-2.87,17.31,1.83c1.95,3.46-5.76,9.45-9.29,14.21C583.8,454.2,572.11,470.07,560,485.57c-5.36,6.85-9.53,13.94-10.64,22.63-.59,4.68-2.8,7-7.93,6.42-5.65-.66-13.11,2.36-16.58-1.23S526,503.23,527.08,498a14.81,14.81,0,0,0-.55-7.33c-2.62-8.83-4.95-17.75-7.68-26.54-1.1-3.54-.71-5.22,3.4-4.94,2.73.19,5.49,0,8.24,0C542.06,459.19,542.06,459.19,545.83,471.13Z"/><path class="cls-2" d="M391.39,160.58c-11.66,21.12-4.15,46.53,14.45,65.66,10.69,11,24.6,17.3,39.94,19.27s21.69-.3,42.63-13c-4.52,14.68-15.14,22.72-28,26.73-19.43,6-38.58,3.79-56.09-7.29-28.49-18-40.51-54.74-21.3-83.65C385.32,164.84,390.05,164.77,391.39,160.58Z"/><path class="cls-2" d="M502.83,434.39c6.49,0,13-.06,19.48,0,12,.13,15.62,3.15,18.12,14.37.9,4,.53,5.77-4.3,5.75-12.21,0-24.41.78-36.62.69-5.15,0-7.47,1.29-8.43,6.69-2.71,15.2-6.24,30.25-9.05,45.43-1,5.25-2.77,7.52-8.66,7.39-15.57-.34-15.56,0-12.27-15.29,4.18-19.48,8.52-38.92,12.36-58.46,1-5.26,3.1-7.05,8.4-6.7C488.82,434.74,495.83,434.39,502.83,434.39Z"/><path class="cls-2" d="M282.77,493.71c2.54,0,4,.1,5.48,0,4.58-.36,5.53,1.58,4.54,5.88-3.45,15-3.34,15-18.37,15-14.46,0-28.93.06-43.4,0-19.75-.09-32.43-10.18-33.33-29.69-1.19-25.92,5.2-49.88,28.72-65,14.46-9.27,30.81-9.63,46.64-3.49s24,22.1,21.38,39.41C292.45,468.68,287.1,480.54,282.77,493.71Zm-36.88-.65c3.24,0,6.49-.13,9.72,0,2.94.16,4.61-.87,5.37-3.83,2.86-11.07,6.47-22,8.66-33.18,2.8-14.32-7-23.44-21.51-21.3-8.29,1.23-14.1,5.58-18.35,12.56a47.86,47.86,0,0,0-6.13,17.5C220.64,483.63,222.36,495.06,245.89,493.06Z"/><path class="cls-2" d="M144.56,546.7c-12.5,0-12.26,0-9.57-12.2,1.25-5.69,2.58-9.74,9.86-8.74,3.84.53,5.89-3.2,7.59-6.32,3.67-6.7,4.17-14.3,5.9-21.54,2.68-11.12,5.19-22.3,7.32-33.54.9-4.75,3.21-6.33,7.67-5.83a37.35,37.35,0,0,0,4.49,0c15.88-.13,12.53-.12,10.2,12.22-2.94,15.65-6.76,31.13-10.22,46.68-.38,1.7-.78,3.41-1.26,5.08C170.91,542,164.65,546.7,144.56,546.7Z"/><path class="cls-2" d="M184.5,434.39c11.8,0,11.15-.1,9.35,11.41-1.27,8.08-5.51,8.86-12.22,8.75-16.31-.28-13.6.61-10.4-13.59C172.88,433.62,170,434.44,184.5,434.39Z"/><path class="cls-3" d="M336.76,412.83c2.05-.69,3.17.57,4.21,2C338.9,415.56,337.24,415.43,336.76,412.83Z"/><path class="cls-3" d="M420.39,464.89c-2.73,0-5.47.15-8.17-.05-1.79-.14-4.41,1.2-5.13-1.41-.54-1.95,1.11-3.66,2.46-5.15,4.45-4.95,13.89-7,19.89-4.31,3.52,1.59,5.56,4.22,4.93,8.22-.67,4.27-4.19,2.37-6.56,2.64A68,68,0,0,1,420.39,464.89Z"/><path class="cls-4" d="M245.89,493.06c-23.53,2-25.25-9.43-22.24-28.21a47.86,47.86,0,0,1,6.13-17.5c4.25-7,10.06-11.33,18.35-12.56,14.51-2.14,24.31,7,21.51,21.3-2.19,11.19-5.8,22.11-8.66,33.18-.76,3-2.43,4-5.37,3.83C252.38,492.93,249.13,493.06,245.89,493.06Z"/></svg>