<?xml version="1.0" encoding="utf-8"?>
<!-- Generator: Adobe Illustrator 24.3.0, SVG Export Plug-In . SVG Version: 6.00 Build 0)  -->
<svg version="1.1" id="Layer_1" xmlns:sketch="http://www.bohemiancoding.com/sketch/ns"
	 xmlns="http://www.w3.org/2000/svg" xmlns:xlink="http://www.w3.org/1999/xlink" x="0px" y="0px" viewBox="0 0 150 150"
	 style="enable-background:new 0 0 150 150;" xml:space="preserve">
<style type="text/css">
	.st0{fill-rule:evenodd;clip-rule:evenodd;}
	.st1{fill-rule:evenodd;clip-rule:evenodd;fill:#FFFFFF;}
	.st2{fill-rule:evenodd;clip-rule:evenodd;fill:#00F2E6;}
	.st3{fill-rule:evenodd;clip-rule:evenodd;fill:#00B9F1;}
	.st4{fill-rule:evenodd;clip-rule:evenodd;fill:#D63AFF;}
	.st5{fill-rule:evenodd;clip-rule:evenodd;fill:#FB015B;}
</style>
<desc>Created with Sketch.</desc>
<g>
	<rect x="0.5" class="st0" width="150" height="150"/>
	<g>
		<path class="st1" d="M83.6,50.4l-0.1-28.6H67.6l0.1,28.6l8,11L83.6,50.4z"/>
		<path class="st1" d="M67.6,99.5v28.7h15.9V99.5l-8-11L67.6,99.5z"/>
		<path class="st2" d="M83.6,99.5l16.8,23.2l12.8-9.4L96.4,90.1l-12.8-4.1V99.5z"/>
		<path class="st2" d="M67.6,50.4L50.7,27.2l-12.8,9.4l16.8,23.2l13,4.1L67.6,50.4L67.6,50.4z"/>
		<path class="st3" d="M54.6,59.7l-27.2-8.9L22.5,66l27.2,9l12.8-4.2L54.6,59.7z"/>
		<path class="st3" d="M88.4,79.1l8,11l27.2,8.9l4.9-15.1L101.3,75L88.4,79.1z"/>
		<path class="st4" d="M101.3,75l27.2-9l-4.9-15.1l-27.2,8.9l-8,11L101.3,75z"/>
		<path class="st4" d="M49.7,75l-27.2,8.9L27.4,99l27.2-8.9l8-11L49.7,75z"/>
		<path class="st5" d="M54.6,90.1l-16.8,23.2l12.8,9.4l16.9-23.2V85.9L54.6,90.1z"/>
		<path class="st5" d="M96.4,59.7l16.8-23.2l-12.8-9.4L83.6,50.4v13.5L96.4,59.7z"/>
	</g>
</g>
</svg>
