<svg id="Layer_1" data-name="Layer 1" xmlns="http://www.w3.org/2000/svg" viewBox="0 0 720 720"><defs><style>.cls-1{fill:#fefcfc;}.cls-2{fill:#e1672b;}.cls-3{fill:#fdfaf8;}.cls-4{fill:#fcf5f1;}.cls-5{fill:#fdf7f4;}.cls-6{fill:#fdf7f5;}.cls-7{fill:#fdf9f7;}.cls-8{fill:#fdf8f5;}</style></defs><path class="cls-1" d="M720,720H0V0H720ZM208.7,472.48c-21.84-3.2-38.94,2.11-46.85,24.69-1.17,3.32-7.79,5-12.12,6.9-12.6,5.59-25.08,11.6-38,16.19-18.56,6.56-13.9,20.76-10.4,32.87,4.14,14.33,15.2,7.32,23.81,4.43,22.43-7.52,44.72-15.43,71.62-24.77-10,27.51-19,50.11-25.93,73.35-1.79,6,.91,17.39,5.45,20.38,11.92,7.86,26.16,1.87,32.48-11.34,6.22-13,11.23-26.58,18.2-39.11,3.83-6.89,9.58-14.05,16.3-17.7,10.61-5.76,14.55-13,13.31-24.53-.53-4.93.9-10.07,1.34-14.19l78.71,31.16c-5,5.32-11,9.9-14.4,15.93-3.12,5.47-4.13,12.44-4.85,18.89-1.34,12-.31,24.37-3,36-2.86,12.11-9.24,23.36-13.59,35.17-6.27,17.07,8.63,22.1,18.53,27.92,2.57,1.51,13.81-6.38,17-12.18,11.92-21.78,22.15-44.48,34.63-70.17,12.24,26.19,22.74,48.83,33.41,71.4,3.84,8.13,9.27,15.88,19.22,9.7,11.45-7.12,21.44-15.79,14-32.31a378.51,378.51,0,0,1-15.79-42.06c-1.85-5.85-2.81-13.38-.7-18.78,5.19-13.27,2.38-22.89-8.55-31.37-3.35-2.61-5.42-6.86-7.32-9.35l78-33.45c0,7.25-1.31,14.6.38,21.19,1.56,6.1,5,14.12,9.93,16.48,13.13,6.3,19.73,16.48,24.49,29.25,4.19,11.22,9.32,22.09,14,33.13,6.79,16,20.16,10.67,31,8.06,12.68-3.05,9-13,5.81-21.87-8.3-23.46-16.3-47-25.55-73.84,26.27,9.46,49.11,17.86,72.07,25.9,17.21,6,24.29,1.8,23.21-16.3-.43-7.31-6.06-16.85-12.25-20.75-13.06-8.24-28.27-13-42.11-20.12-5.5-2.84-11.72-7.33-14.07-12.65-5.72-12.91-14.08-18.38-28.07-16.39-4.12.58-8.57-1.13-11.68-1.61l30.82-77.88c5.27,4.8,9.89,10.61,15.89,14,5.48,3.09,13.44,6.4,18.56,4.61,13-4.56,24.27-2.85,36.2,2.81,11.35,5.38,23.2,9.78,35,14.12,16.89,6.2,22.6-8,28.06-18.24,1.54-2.91-6.29-13.86-12.08-17-21.8-12-44.54-22.28-69.81-34.62,25.69-12.14,48.3-23,71-33.52,13.1-6.08,15-13.87,5.58-25.19-8.38-10.08-16.86-12.29-29.85-7.67-23,8.18-44.63,24.81-71.82,14.07-3.29-1.3-9.56,3.35-13.71,6.29-5.14,3.66-9.51,8.42-14,12.46l-33.33-77.66c26.42-3.05,26.28-3.17,45.64-24.4,3.06-3.35,7.77-5.46,12-7.38,13.13-5.89,26.22-12,39.7-16.93,17.17-6.33,13.52-19.56,10.4-31.5-3.73-14.25-14.3-9-23.37-5.9-23,7.86-46,15.81-72.48,24.94,9.77-27.13,18.07-50.61,26.69-74,3.29-8.91,4.19-17.65-6.72-20.35-13.06-3.24-26.28-4.28-32.75,12.67a392.9,392.9,0,0,1-18.6,40.91c-2.84,5.48-7.41,11.57-12.73,14-12.95,5.83-18,14.52-16.05,28.34.58,4.18-1,8.66-1.35,11.66l-77.75-31.07c2.5-2.93,4.69-6.62,7.86-9,12.22-9.25,14.61-20.1,8.83-34.41-2.13-5.28-.75-12.9,1.21-18.72,4.79-14.18,10.47-28.09,16.52-41.8,7.43-16.83-5.54-23.47-15.72-29.48-12.71-7.5-16.06,4.65-20.19,13.08-10.64,21.67-21.18,43.38-33.49,68.62C353.1,87.89,343.76,67.27,333.8,47c-4.2-8.55-6.37-21.39-21-16.08C298.4,36.11,293,49.23,298.36,64.17,303.24,77.7,308.77,91,313.3,104.65c1.81,5.45,4.05,12.52,2.07,17.12-6.51,15.1-3.26,26.27,9.4,36,2.79,2.13,4.09,6.2,5.08,7.79l-76.61,32.68c-.4-3.73-1.27-6.72-.92-9.56,2-16-2.76-27.27-19-33.65-5.13-2-9.08-9.11-11.81-14.73-6.26-12.94-11.89-26.23-16.95-39.69-6.53-17.37-20.53-12.5-31.89-9.81-14.26,3.37-8.48,14.37-5.41,23.32,7.82,22.84,15.72,45.65,24.89,72.24C165,176.54,142.09,168,119,160.07c-15.76-5.42-20.51-1.32-22.57,14.59-2.29,17.74,9.77,22,22,28,19.87,9.74,44.32,13.09,54,38.09,1.25,3.22,8.9,4.67,13.83,5.59,6.2,1.16,12.66.91,19.1,1.28l-30.84,78.18c-1.17-.84-3.4-1.83-4.75-3.53-11.05-13.87-23.43-21.18-41.78-12.59-4.41,2.06-11.69-.48-17.11-2.41-13.55-4.82-27.1-9.86-40.07-16-17-8.05-23.23,5.06-29.48,15.13C33.54,318.9,45,322.75,53.58,327c21.83,10.63,43.69,21.22,69,33.51-26.28,12.41-48.78,23.14-71.38,33.65C38,400.27,36.43,408.06,46,419.27c8,9.38,16.27,12.7,28.37,7.82,17.18-6.93,36.24-19.92,52-17,21.6,4,34.94-1.51,48.75-14.69.42-.4,2.12.53.69.13Z"/><path class="cls-2" d="M208.7,472.48l-32.89-77c1.43.4-.27-.53-.69-.13-13.81,13.18-27.15,18.7-48.75,14.69-15.78-2.92-34.84,10.07-52,17C62.25,432,54,428.65,46,419.27c-9.55-11.21-8-19,5.24-25.15,22.6-10.51,45.1-21.24,71.38-33.65-25.33-12.29-47.19-22.88-69-33.51-8.63-4.21-20-8.06-12.28-20.58,6.25-10.07,12.49-23.18,29.48-15.13,13,6.15,26.52,11.19,40.07,16,5.42,1.93,12.7,4.47,17.11,2.41,18.35-8.59,30.73-1.28,41.78,12.59,1.35,1.7,3.58,2.69,4.75,3.53l30.84-78.18c-6.44-.37-12.9-.12-19.1-1.28-4.93-.92-12.58-2.37-13.83-5.59-9.66-25-34.11-28.35-54-38.09-12.22-6-24.28-10.25-22-28,2.06-15.91,6.81-20,22.57-14.59,23.09,8,46,16.47,73.17,26.26-9.17-26.59-17.07-49.4-24.89-72.24-3.07-9-8.85-20,5.41-23.32,11.36-2.69,25.36-7.56,31.89,9.81,5.06,13.46,10.69,26.75,16.95,39.69,2.73,5.62,6.68,12.72,11.81,14.73,16.22,6.38,21,17.66,19,33.65-.35,2.84.52,5.83.92,9.56l76.61-32.68c-1-1.59-2.29-5.66-5.08-7.79-12.66-9.7-15.91-20.87-9.4-36,2-4.6-.26-11.67-2.07-17.12C308.77,91,303.24,77.7,298.36,64.17c-5.4-14.94,0-28.06,14.43-33.29,14.64-5.31,16.81,7.53,21,16.08,10,20.31,19.3,40.93,30.76,65.41,12.31-25.24,22.85-46.95,33.49-68.62,4.13-8.43,7.48-20.58,20.19-13.08,10.18,6,23.15,12.65,15.72,29.48-6,13.71-11.73,27.62-16.52,41.8-2,5.82-3.34,13.44-1.21,18.72,5.78,14.31,3.39,25.16-8.83,34.41-3.17,2.41-5.36,6.1-7.86,9l77.75,31.07c.39-3,1.93-7.48,1.35-11.66-1.92-13.82,3.1-22.51,16.05-28.34,5.32-2.4,9.89-8.49,12.73-14A392.9,392.9,0,0,0,526,100.3c6.47-17,19.69-15.91,32.75-12.67,10.91,2.7,10,11.44,6.72,20.35-8.62,23.36-16.92,46.84-26.69,74,26.52-9.13,49.49-17.08,72.48-24.94,9.07-3.1,19.64-8.35,23.37,5.9,3.12,11.94,6.77,25.17-10.4,31.5-13.48,5-26.57,11-39.7,16.93-4.28,1.92-9,4-12,7.38-19.36,21.23-19.22,21.35-45.64,24.4l33.33,77.66c4.45-4,8.82-8.8,14-12.46,4.15-2.94,10.42-7.59,13.71-6.29,27.19,10.74,48.84-5.89,71.82-14.07,13-4.62,21.47-2.41,29.85,7.67C699,307,697.05,314.74,684,320.82c-22.73,10.56-45.34,21.38-71,33.52,25.27,12.34,48,22.64,69.81,34.62,5.79,3.18,13.62,14.13,12.08,17-5.46,10.28-11.17,24.44-28.06,18.24-11.81-4.34-23.66-8.74-35-14.12-11.93-5.66-23.17-7.37-36.2-2.81-5.12,1.79-13.08-1.52-18.56-4.61-6-3.39-10.62-9.2-15.89-14l-30.82,77.88c3.11.48,7.56,2.19,11.68,1.61,14-2,22.35,3.48,28.07,16.39,2.35,5.32,8.57,9.81,14.07,12.65,13.84,7.14,29,11.88,42.11,20.12,6.19,3.9,11.82,13.44,12.25,20.75,1.08,18.1-6,22.33-23.21,16.3-23-8-45.8-16.44-72.07-25.9,9.25,26.81,17.25,50.38,25.55,73.84,3.15,8.92,6.87,18.82-5.81,21.87-10.84,2.61-24.21,7.91-31-8.06-4.69-11-9.82-21.91-14-33.13-4.76-12.77-11.36-22.95-24.49-29.25-4.92-2.36-8.37-10.38-9.93-16.48-1.69-6.59-.38-13.94-.38-21.19l-78,33.45c1.9,2.49,4,6.74,7.32,9.35,10.93,8.48,13.74,18.1,8.55,31.37-2.11,5.4-1.15,12.93.7,18.78a378.51,378.51,0,0,0,15.79,42.06c7.45,16.52-2.54,25.19-14,32.31-10,6.18-15.38-1.57-19.22-9.7-10.67-22.57-21.17-45.21-33.41-71.4-12.48,25.69-22.71,48.39-34.63,70.17-3.18,5.8-14.42,13.69-17,12.18-9.9-5.82-24.8-10.85-18.53-27.92,4.35-11.81,10.73-23.06,13.59-35.17,2.73-11.58,1.7-24,3-36,.72-6.45,1.73-13.42,4.85-18.89,3.43-6,9.42-10.61,14.4-15.93l-78.71-31.16c-.44,4.12-1.87,9.26-1.34,14.19,1.24,11.56-2.7,18.77-13.31,24.53-6.72,3.65-12.47,10.81-16.3,17.7-7,12.53-12,26.14-18.2,39.11-6.32,13.21-20.56,19.2-32.48,11.34-4.54-3-7.24-14.39-5.45-20.38,6.92-23.24,16-45.84,25.93-73.35-26.9,9.34-49.19,17.25-71.62,24.77-8.61,2.89-19.67,9.9-23.81-4.43-3.5-12.11-8.16-26.31,10.4-32.87,13-4.59,25.45-10.6,38-16.19,4.33-1.92,11-3.58,12.12-6.9C169.76,474.59,186.86,469.28,208.7,472.48ZM319.75,357.09a48,48,0,0,0,47.14,48.83c25.7.67,48.58-21.24,49.27-47.17.72-27-21.29-49.42-48.5-49.4C340.76,309.37,320,330.11,319.75,357.09Zm63.9-142.22v42.56C426,274.7,426,274.7,450.09,241.26ZM350.79,499.24c4.23-42.13,4.61-43.42-29.89-53.59-19.06-5.62-22.1,16.27-34.35,23.22.09,1.85.19,3.69.28,5.54Zm-95.41-53.75C288.63,418,289.89,417.23,272.12,386c-9.55-16.77-27-4.55-46.72-8.38C236.68,403.18,245.6,423.36,255.38,445.49Zm-3.85-171.18c-8.8,22.81-16.8,43.52-25.76,66.74h42C284,300.34,284,300.34,251.53,274.31Zm202.8,196c-22.06-32.33-24.77-33.77-56.85-17.56-18.91,9.56-4.27,26.89-8.65,40.16l4.35,4.28ZM280,245.14c26.49,32.51,27.05,33.56,58.12,16.93,18-9.63,4.17-27.26,8.34-40.8l-4.09-3.83ZM480.4,270c-32.67,24.74-34.29,27.49-17.19,58,9.75,17.4,26.77,4.87,46.33,8.57Zm29,105.43c-40.79-5.38-41.56-5.64-53,27.62-7.05,20.49,16.55,22.12,22.1,35.27l5.65.21Z"/><path class="cls-3" d="M319.75,357.09c.2-27,21-47.72,47.91-47.74,27.21,0,49.22,22.4,48.5,49.4-.69,25.93-23.57,47.84-49.27,47.17A48,48,0,0,1,319.75,357.09Z"/><path class="cls-4" d="M383.65,214.87l66.44,26.39C426,274.7,426,274.7,383.65,257.43Z"/><path class="cls-4" d="M350.79,499.24l-64-24.83c-.09-1.85-.19-3.69-.28-5.54,12.25-6.95,15.29-28.84,34.35-23.22C355.4,455.82,355,457.11,350.79,499.24Z"/><path class="cls-4" d="M255.38,445.49c-9.78-22.13-18.7-42.31-30-67.85,19.77,3.83,37.17-8.39,46.72,8.38C289.89,417.23,288.63,418,255.38,445.49Z"/><path class="cls-5" d="M251.53,274.31c32.44,26,32.44,26,16.19,66.74h-42C234.73,317.83,242.73,297.12,251.53,274.31Z"/><path class="cls-6" d="M454.33,470.3l-61.15,26.88-4.35-4.28c4.38-13.27-10.26-30.6,8.65-40.16C429.56,436.53,432.27,438,454.33,470.3Z"/><path class="cls-7" d="M280,245.14l62.37-27.7,4.09,3.83c-4.17,13.54,9.65,31.17-8.34,40.8C307,278.7,306.44,277.65,280,245.14Z"/><path class="cls-5" d="M480.4,270l29.14,66.57C490,332.82,473,345.35,463.21,328,446.11,297.44,447.73,294.69,480.4,270Z"/><path class="cls-8" d="M509.4,375.38l-25.24,63.1-5.65-.21c-5.55-13.15-29.15-14.78-22.1-35.27C467.84,369.74,468.61,370,509.4,375.38Z"/></svg>