<svg id="Layer_1" data-name="Layer 1" xmlns="http://www.w3.org/2000/svg" viewBox="0 0 718.9 406.27"><defs><style>.cls-1{fill:#fcfcfc;}.cls-2{fill:#896343;}.cls-3{fill:#8b4640;}.cls-4{fill:#8f463f;}.cls-5{fill:#a64e45;}.cls-6{fill:#8e4841;}.cls-7{fill:#974a43;}.cls-8{fill:#8f4842;}.cls-9{fill:#8c4741;}.cls-10{fill:#8e4943;}.cls-11{fill:#8d4841;}.cls-12{fill:#8b4741;}.cls-13{fill:#8c4841;}.cls-14{fill:#8e4842;}.cls-15{fill:#914a43;}.cls-16{fill:#8c453e;}.cls-17{fill:#853f39;}.cls-18{fill:#904943;}.cls-19{fill:#8c4740;}.cls-20{fill:#964c45;}.cls-21{fill:#8f4943;}.cls-22{fill:#944b45;}.cls-23{fill:#8f4c45;}.cls-24{fill:#823a34;}.cls-25{fill:#914740;}.cls-26{fill:#8b4a43;}.cls-27{fill:#955a54;}.cls-28{fill:#7d3731;}.cls-29{fill:#7f3c36;}.cls-30{fill:#8b4942;}.cls-31{fill:#964b44;}.cls-32{fill:#8d4d47;}.cls-33{fill:#8e4942;}.cls-34{fill:#fdfcfc;}.cls-35{fill:#845b3a;}.cls-36{fill:#855c3b;}.cls-37{fill:#845c3b;}.cls-38{fill:#b2534b;}.cls-39{fill:#a84f46;}.cls-40{fill:#b3544b;}.cls-41{fill:#a84e46;}.cls-42{fill:#9d4c44;}.cls-43{fill:#8c6546;}.cls-44{fill:#8a6344;}.cls-45{fill:#855d3c;}.cls-46{fill:#a64d45;}.cls-47{fill:#a54e46;}.cls-48{fill:#904942;}.cls-49{fill:#914941;}.cls-50{fill:#974a42;}.cls-51{fill:#8b4941;}.cls-52{fill:#aa5047;}.cls-53{fill:#8c4941;}.cls-54{fill:#8b4a42;}.cls-55{fill:#863f38;}.cls-56{fill:#f6f5f2;}.cls-57{fill:#f6e8c8;}.cls-58{fill:#944841;}.cls-59{fill:#8d4842;}.cls-60{fill:#8f4a43;}.cls-61{fill:#8c4842;}.cls-62{fill:#8b4841;}.cls-63{fill:#8c4942;}.cls-64{fill:#8d463f;}.cls-65{fill:#833831;}.cls-66{fill:#8d4d46;}.cls-67{fill:#934e47;}.cls-68{fill:#954e47;}.cls-69{fill:#833731;}.cls-70{fill:#964d46;}.cls-71{fill:#f6edd8;}.cls-72{fill:#8a3f38;}.cls-73{fill:#8e4640;}.cls-74{fill:#8a4740;}.cls-75{fill:#8d463e;}.cls-76{fill:#8f4841;}.cls-77{fill:#88423b;}.cls-78{fill:#8a453d;}.cls-79{fill:#8f4942;}.cls-80{fill:#863f39;}.cls-81{fill:#f6f2e8;}.cls-82{fill:#904e47;}.cls-83{fill:#fcfdfb;}.cls-84{fill:#80352f;}.cls-85{fill:#88453e;}.cls-86{fill:#89463f;}.cls-87{fill:#b6554c;}.cls-88{fill:#b3554c;}.cls-89{fill:#b5554c;}.cls-90{fill:#b6554d;}.cls-91{fill:#ab5149;}.cls-92{fill:#944c45;}.cls-93{fill:#b0544c;}.cls-94{fill:#8a4d46;}.cls-95{fill:#96554d;}.cls-96{fill:#934c44;}.cls-97{fill:#9a4d45;}.cls-98{fill:#8e463f;}.cls-99{fill:#94443d;}.cls-100{fill:#b1534a;}.cls-101{fill:#8b3f38;}.cls-102{fill:#8d4941;}.cls-103{fill:#ac7f75;}.cls-104{fill:#fdf8e2;}.cls-105{fill:#faf3dd;}.cls-106{fill:#ac5047;}.cls-107{fill:#8e473f;}.cls-108{fill:#924d45;}.cls-109{fill:#aa5149;}.cls-110{fill:#8e4a42;}.cls-111{fill:#8b473f;}.cls-112{fill:#91433c;}.cls-113{fill:#99554d;}.cls-114{fill:#934b43;}.cls-115{fill:#984d45;}.cls-116{fill:#894a43;}.cls-117{fill:#a0534b;}.cls-118{fill:#9c564e;}.cls-119{fill:#995048;}.cls-120{fill:#84413a;}.cls-121{fill:#98473f;}.cls-122{fill:#904f47;}.cls-123{fill:#934e46;}.cls-124{fill:#934640;}.cls-125{fill:#924740;}.cls-126{fill:#9a5850;}.cls-127{fill:#97443d;}.cls-128{fill:#96544c;}.cls-129{fill:#99544c;}.cls-130{fill:#955049;}.cls-131{fill:#97544c;}.cls-132{fill:#904b43;}.cls-133{fill:#944e46;}.cls-134{fill:#b0877a;}.cls-135{fill:#fbf3de;}.cls-136{fill:#8e443d;}.cls-137{fill:#944b44;}.cls-138{fill:#8b4740;}.cls-139{fill:#9a574f;}.cls-140{fill:#fbf4df;}.cls-141{fill:#6f2d28;}.cls-142{fill:#843b35;}.cls-143{fill:#78403a;}.cls-144{fill:#782e28;}.cls-145{fill:#904c44;}.cls-146{fill:#8f443d;}.cls-147{fill:#cfb9b0;}.cls-148{fill:#ae544b;}.cls-149{fill:#a44f47;}.cls-150{fill:#faf9ef;}.cls-151{fill:#954d45;}.cls-152{fill:#8b4a44;}.cls-153{fill:#f9f7ed;}.cls-154{fill:#934b44;}.cls-155{fill:#8c4b45;}.cls-156{fill:#924942;}.cls-157{fill:#faf8ef;}.cls-158{fill:#8f423b;}.cls-159{fill:#8a4841;}.cls-160{fill:#93463f;}.cls-161{fill:#965149;}.cls-162{fill:#8a413a;}.cls-163{fill:#984e46;}.cls-164{fill:#c2a49c;}.cls-165{fill:#8f4b44;}.cls-166{fill:#98443d;}.cls-167{fill:#894039;}.cls-168{fill:#8f443c;}.cls-169{fill:#8b3b34;}.cls-170{fill:#94423b;}.cls-171{fill:#b8564d;}.cls-172{fill:#96433b;}.cls-173{fill:#b6564d;}.cls-174{fill:#b1534b;}.cls-175{fill:#b58f88;}</style></defs><rect class="cls-1" width="718.9" height="406.27"/><path class="cls-2" d="M349.75,203.68c-1.92,63.43-27,114.89-79.92,151.45-21.94,15.17-46.59,23.71-73.21,27C125.9,390.72,59.2,351.86,26.78,290.67a178.73,178.73,0,0,1-19.06-56,191.23,191.23,0,0,1-1.08-54.16c4.2-33.34,16-63.33,36.42-89.76,27.27-35.25,62.62-58,107-65,61.43-9.66,112.55,10.23,154,55.75,24,26.35,37.62,57.83,43.46,92.74A149,149,0,0,1,349.75,203.68Z"/><path class="cls-3" d="M698.9,283.26c.05,4.88-1.56,9.54-1.65,14.5-.07,3.67-2.23,7.64-7,8.38-1.45-2.88,1.2-4.76,1.75-7.17.32-.75.65-1.48,1-2.23a100.27,100.27,0,0,0,2.17-17.69c1.83-36.7,2.61-73.46,1.24-110.15-.61-16.59.28-33.38-3-49.85a10,10,0,0,1-.48-2.59c.27-2.08-.1-4.62,3.23-4.54a6.43,6.43,0,0,1,1.5,4.64c-.65,4.26.58,8.31,1.26,12.42,1.63,5.25-.44,10.76,1.2,16q2.05,61.05,0,122.08C698.49,272.37,700.4,277.93,698.9,283.26Z"/><path class="cls-4" d="M362.45,169.43l.06-3c1.56-6.33-.41-12.86,1.08-19.2l.42-9.51c1.22-2.91-.22-6.13,1-9-.06-4.87-.4-9.72,1.46-14.46,1.59-4,3.86-6.82,8.49-6.94.22.27.43.54.66.8-2.2,5.28-6.29,9.79-6.45,15.89-.93,2.83-.57,5.74-.62,8.63a30.8,30.8,0,0,1-.61,7.1c-1.52,6.21-.46,12.51-.73,18.77,0,29.54-.68,59.1.24,88.6.57,18.17.27,36.63,5.85,54.35a3.44,3.44,0,0,1-2.43,3c-3.29-1.4-4.76-3.83-4.23-7.4-1.71-2.12.24-5-1.37-7.1a17.83,17.83,0,0,1-.27-6.59c-1.19-3,.19-6.21-1-9.18-.13-2.75-.25-5.5-.38-8.26-1.56-6.75.47-13.71-1.14-20.46a8.17,8.17,0,0,1-.06-4.36c1.42-9.43.62-18.92.57-28.37C362.9,198.33,363.9,183.86,362.45,169.43Z"/><path class="cls-5" d="M508.77,386.26l-4.09-2.9c-12.45-7-25.17-13.54-37.62-20.55-3.9-2.63-8.08-4.79-12-7.31-13-7.22-25.78-14.94-38.61-22.52-3.45-3.54-9.52-3.94-11.33-9.44a2.19,2.19,0,0,1,1.47-1.34c6.42.78,11.26,4.95,16.48,8.09,31.46,18.92,63.18,37.35,95.94,54,7,3.54,13.7,6.88,21.57,2.56a3.82,3.82,0,0,1,4.64.79c-4.32,6.44-11.92,8.64-19.56,5.61C520,391,514.9,387.24,508.77,386.26Z"/><path class="cls-6" d="M550.66,24.56c11.52,5.58,22.63,12,34.13,17.62,9.82,4.82,19,11,28.41,16.57q18.43,10.81,36.92,21.54a3.16,3.16,0,0,1-2.08,2.3c-7.43-.84-12.87-5.9-18.91-9.43-25.08-14.65-50.23-29.09-75.94-42.69-1.68-.89-3.44-1.7-4.27-3.61C548.77,25.54,549.56,24.93,550.66,24.56Z"/><path class="cls-7" d="M508.77,386.26c2.21-1.64,4.32-1.1,6.53.1,5.2,2.82,10.41,5.62,16.57,7.06,4.46-1.26,9.33-2.2,13.06-5.81a53.57,53.57,0,0,1,26.8-13.31c1.54,1.61-.13,2.47-.83,3.55-6.78,6-15.22,9.15-23.13,13.2-3.72,1.9-7.67,3.36-11.51,5a24.58,24.58,0,0,0-8.51-.15C521.25,393.06,514.19,391.25,508.77,386.26Z"/><path class="cls-3" d="M447.05,61.5Q469.52,48.55,492,35.57a12,12,0,0,1,5.31-1.76c1.28,1.19.56,2.3-.14,3.42a7.09,7.09,0,0,1-1.43,1.25c-1.62.92-3.34,1.64-5,2.58a35.9,35.9,0,0,0-3.88,2.48,12.82,12.82,0,0,1-1.62,1c-3.2,1.56-6.47,3-9,5.66-8.42,5.67-17,11.06-26.82,14.07C448,63.9,446.4,63.67,447.05,61.5Z"/><path class="cls-8" d="M447.05,61.5c.44,1.56,1.7,1.66,3,1.68.53,2.42-1.39,3.38-2.87,4.36-10.63,7-21.7,13.39-32.69,19.86-1.45.85-3,1.43-4.68.47-1.09-2,.88-3.28,1.28-4.93Z"/><path class="cls-9" d="M648.44,81.85a2.15,2.15,0,0,1,1.68-1.56c13.21,8.08,26.39,16.19,38.82,25.45,2.51,1.88,6,2.69,7.17,6.18-2.25.81-1.49,2.76-1.66,4.37-4.17-1.4-5.48-6.27-9.52-7.83-9.43-8-20.51-13.47-30.62-20.42C651.9,86.41,648.44,85.75,648.44,81.85Z"/><path class="cls-10" d="M644.13,337.1c-14.42,7.92-28,17.32-42.61,24.9-4.91-2.86.9-3.65,1-5.54,12.31-8.66,25.6-15.67,38.93-22.58a3.2,3.2,0,0,1,2.69,1.32A1.73,1.73,0,0,1,644.13,337.1Z"/><path class="cls-11" d="M550.66,24.56a1.68,1.68,0,0,1-1.43,1.29c-3.2,2.18-6.23.38-8.68-1.11-6.14-3.73-11.81-2.58-17.62.47a71.7,71.7,0,0,1-9.83,4.33,51.2,51.2,0,0,0-10.52,5.32,4.78,4.78,0,0,1-2,.44c-1.52-.36-2.57-1-1.95-2.85a145.3,145.3,0,0,1,30.5-15.15c2.46.46,5.08,0,7.4,1.29A63,63,0,0,1,550.66,24.56Z"/><path class="cls-12" d="M417,331.62l38.83,23c0,1.38-.15,2.61-2,1.68A446.78,446.78,0,0,1,414.1,333C414.11,330.63,415.28,330.62,417,331.62Z"/><path class="cls-13" d="M467.3,361.75c11.1,5.78,22.22,11.53,33.3,17.36,1.76.94,4.3,1.33,4.08,4.25-5.39.51-9.16-3.31-13.42-5.45-8.73-4.38-17.05-9.57-25.54-14.43C465.31,362.05,465.74,361.39,467.3,361.75Z"/><path class="cls-14" d="M644.13,335.93a1.85,1.85,0,0,1-1.44-1.45c-.46-1.37.31-2.26,1.3-2.94,7.17-5,14.69-9.38,22.06-14a6.22,6.22,0,0,1,5.4-.93,3.54,3.54,0,0,1,2,2.39c-7.08,5.69-15.27,9.59-23,14.26C648.22,333.74,646.42,335.42,644.13,335.93Z"/><path class="cls-15" d="M417,331.62c-1.17,0-2.35,0-2.85,1.4-9.5-5.07-18.37-11.16-27.43-16.94a3,3,0,0,1-.31-3.09c2.14-1.73,4.09-.59,5.83.63,4.43,3.11,9.53,5.3,13.26,9.4C408.16,327.39,413.55,328.18,417,331.62Z"/><path class="cls-16" d="M411.09,82.94c.46,1.8-.73,3.13-1.31,4.63a2.43,2.43,0,0,1-1.21,3c-7.07,4.31-13.8,9.21-21.6,12.23a3.49,3.49,0,0,1-3.3-2.42C392.1,93.49,402,88.81,411.09,82.94Z"/><path class="cls-17" d="M362.45,169.43c1.56.86,1.31,2.37,1.31,3.77v64.2c0,1.4.24,2.9-1.34,3.75Q361.37,205.29,362.45,169.43Z"/><path class="cls-18" d="M603.9,357.45c-.35,2-2.53,2.33-3.54,3.75l1.19.8c-10.13,5.43-19.87,11.62-30.62,15.85l1.34-3.17c.17-.27.34-.55.5-.83,3.75-3,8.82-4,12.13-7.76,4.06-3.69,9.27-5.52,13.81-8.43C600.23,356.67,602.08,355.84,603.9,357.45Z"/><path class="cls-19" d="M673.5,319a2.84,2.84,0,0,1-2.06-1.76c.94-5.91,6.23-6.36,10.38-8.24,1.48.28,3.16.35,2.63,2.63A48.8,48.8,0,0,1,673.5,319Z"/><path class="cls-20" d="M684.45,311.64c-.46-1.5-1.7-1.55-3-1.57,1.91-5.55,5.86-8.77,11.52-10,.52,2.68-2.59,3.73-2.76,6.1C690,309.72,686.8,310.24,684.45,311.64Z"/><path class="cls-21" d="M467.3,361.75a2.25,2.25,0,0,0-1.58,1.73c-4.11-2.21-8.35-4.21-12-7.2a2.62,2.62,0,0,0,2-1.68C459.9,356.61,464,358.44,467.3,361.75Z"/><path class="cls-22" d="M383.67,100.41l3.12,1.53c.58,3.41-2.32,4.1-4.3,5.52-2.37,1-4.73,2.33-7.21.27l-.3-.4A20.66,20.66,0,0,1,383.67,100.41Z"/><path class="cls-23" d="M362.48,245.51c2.55,3.06,1,6.66,1.22,10s0,7-.08,10.46C361.51,259.25,362.6,252.35,362.48,245.51Z"/><path class="cls-24" d="M370.9,304.5a2,2,0,0,1,1.52-1.6c4.26-.18,6.57,2.26,8,5.92a2.45,2.45,0,0,1-1,1.87A26.23,26.23,0,0,1,370.9,304.5Z"/><path class="cls-25" d="M363.59,147.28c-.42,6.4,1.69,12.94-1.08,19.2C362.56,160.07,361.58,153.59,363.59,147.28Z"/><path class="cls-26" d="M379.41,310.69c.06-.68.13-1.37.19-2.05,4.36-1.82,5.8,1.19,7.17,4.32,0,1-.06,2.08-.1,3.12C384.12,314.46,381.25,313.27,379.41,310.69Z"/><path class="cls-20" d="M698.9,283.26c.26-5.41-1.49-11,1.12-16.2C699.9,272.47,700.84,278,698.9,283.26Z"/><path class="cls-27" d="M700.07,145c-2.82-5.15-.74-10.67-1.2-16C701,134.19,699.9,139.64,700.07,145Z"/><path class="cls-28" d="M527.75,395.93c2.87-1.82,5.71-1.91,8.51.15A8.12,8.12,0,0,1,527.75,395.93Z"/><path class="cls-29" d="M536.53,18.59c-2.47-.39-5.3,1.26-7.4-1.29C532,15.48,534.5,15.67,536.53,18.59Z"/><path class="cls-30" d="M644.13,335.93a6.61,6.61,0,0,1,6.39-2.66c-1.7,2-4,2.93-6.39,3.83Z"/><path class="cls-31" d="M498.65,32.45c.41,1.67,1.66,2,3.14,2-.54,3.7-2.67,4.23-5.74,2.88.41-1.18.83-2.35,1.25-3.52A1.73,1.73,0,0,1,498.65,32.45Z"/><path class="cls-32" d="M365,128.73c-.24,3,1.4,6.26-1,9C363.9,134.71,363.25,131.58,365,128.73Z"/><path class="cls-33" d="M364,274.23c2.45,2.83.76,6.12,1,9.18C363.24,280.51,364,277.34,364,274.23Z"/><path class="cls-33" d="M365.29,290c2.51,2,.87,4.74,1.37,7.1C364.7,295,365.31,292.45,365.29,290Z"/><path class="cls-34" d="M106.49,219.26q-.15-13.26-.29-26.51a19.85,19.85,0,0,0-.89-7.06c-2.47-6.37-8.65-8-13.75-3.44-3.59,3.2-4.87,7.4-5,12.2-.18,8.33.82,16.7-.64,25a4,4,0,0,1-5.21,0c-2-1.94-1.42-4.44-1.43-6.78V189.72c0-4.32-.88-8.2-5.58-9.79-3.61-1.22-7.9,1-10.86,5.28A14.8,14.8,0,0,0,60.5,194c0,8.36-.12,16.73-.2,25.09-2.36,1.67-4.68,2-7-.17V175.73a5,5,0,0,1,5.72-1c2.06,1.27.54,3.69,1.74,5.21,9.74-9.35,17.18-8.83,24.84,2.05,3.53-5.17,7.77-9,14.6-8.32,5.62.52,10.32,3.36,11.38,8.4a92.72,92.72,0,0,1,.28,37.47C110,220.64,108.22,221,106.49,219.26Z"/><path class="cls-34" d="M257.45,219.3q-.19-11.78-.38-23.56a49.13,49.13,0,0,0-.18-6.42c-.58-4.17-1.95-7.92-6.63-9.22-4.37-1.22-8.09.27-11.1,3.24a15,15,0,0,0-4.87,11.45c.2,8.09,0,16.2,0,24.3-2.27,2-4.61,1.71-7,.18V153.53c2.1-1.53,4.14-1.11,6.67-.44,1.11,8.83-.14,17.84.73,27.48,4.32-3.68,8.19-7.11,13.92-7.17,9.09-.1,13.8,3.75,14.89,12.74,1.21,10,.43,20,.56,30,0,1.09-.78,2.2-1.2,3.29C261,220.68,259.19,220.92,257.45,219.3Z"/><path class="cls-34" d="M304.12,192.54c.61-6.56-.74-9.93-4.79-11.78-6.95-3.19-11.24,1.14-15,5.68-2.46-.06-3.7-1.56-5.11-2.28,0-.88-.18-1.44,0-1.77a18.29,18.29,0,0,1,12.07-8.27c11.39-2.59,20.12,4.1,20.49,15.74.2,6.21.08,12.43.06,18.64a32.36,32.36,0,0,0,1.48,10.34,6,6,0,0,1-5.71.19c-1.6-1.29-1.1-3.26-2.1-4.81-.59.21-1.44.24-1.82.67A16.31,16.31,0,0,1,289.77,221a14.49,14.49,0,0,1-13.63-12.47c-.77-6.67,2.52-11.36,9.75-13.91C291.81,192.5,298.05,192.77,304.12,192.54Z"/><path class="cls-34" d="M124.9,197.46c-.1-15.77,10.44-25.75,25.14-23.79a2.41,2.41,0,0,1,.71.07c8.53,1.82,13.91,7.14,16.12,15.38,2.62,9.77,1.56,19-6.28,26.28-6.34,5.91-13.84,7.11-21.9,4.15C130,216.35,125,208.14,124.9,197.46Z"/><path class="cls-1" d="M202.65,213.59c3.94-.66,5.64-4.09,8-6.63a6.92,6.92,0,0,1,5.21,3c-3.78,7.37-9.81,11.07-18.18,11a20.42,20.42,0,0,1-19.29-13.51,28.33,28.33,0,0,1,.48-21.66c3.26-7.22,8.93-11.63,17.17-12.15,8.42-.53,14.86,2.5,18.93,10.24a6.41,6.41,0,0,1-4.84,3.41c-1.73-.53-2.07-2.12-3-3.13-6-6.25-13.92-5.94-19.16.79a19,19,0,0,0,3.31,26.67,19.57,19.57,0,0,0,2.94,1.88A23,23,0,0,1,202.65,213.59Z"/><path class="cls-35" d="M202.65,213.59a11.91,11.91,0,0,1-8.44-.09A7.44,7.44,0,0,1,202.65,213.59Z"/><path class="cls-36" d="M80.74,219.51H86l.78,1a7.62,7.62,0,0,1-6.67.07,1,1,0,0,1,.13-.57A2.17,2.17,0,0,1,80.74,219.51Z"/><path class="cls-37" d="M227.26,219.27l7-.18C231.63,221.89,230.22,221.93,227.26,219.27Z"/><path class="cls-36" d="M257.45,219.3l5.38.17,1.22,1.51C261.43,220.71,259,222.31,257.45,219.3Z"/><path class="cls-37" d="M53.33,219l7,.17C57.39,222,55.9,221.93,53.33,219Z"/><path class="cls-37" d="M106.49,219.26l5.4.23,1.18,1.53C110.47,220.68,108,222.34,106.49,219.26Z"/><path class="cls-38" d="M693,300,681.5,310c-2.92,3-7.77,3.29-10.06,7.18-6.1,1-10.06,5.84-15.24,8.54-4.72,2.47-9,5.76-13.51,8.69-12.74,8-26.47,14.32-38.82,23-6.81,2.27-12.61,6.42-18.68,10.06-2,.69-3.59,3.77-6.09.9.89-4.4,4.79-5.71,8-7.58,32.18-18.72,64.81-36.68,95.61-57.72,7.79-5.31,7.7-12.83,8.17-20.15q2.21-34.28,1.67-68.67c-.23-17-.14-33.93,0-50.89.09-12.18-2.24-24.24-1.65-36.43.37-7.71-4.59-13.06-8.24-19,1-1.25,2-1.11,3.18-.31,4.49,1.27,6.8,4.7,8.61,8.63v1.43A110.68,110.68,0,0,1,696.37,136c1,33.36,3,66.76,1.42,100.11-.88,18.53-.44,37.14-2.64,55.61A31.84,31.84,0,0,1,693,300Z"/><path class="cls-20" d="M693,300c2.93-18.61,1.89-37.45,3.22-56.12,1.57-21.95,1.35-43.86.72-65.72-.39-13.54-.21-27.14-1.31-40.62-.54-6.62-1.15-13.21-1.19-19.85,2.79,4.88,2.59,10.65,2.55,15.64-.15,19.55,2.47,39,1.85,58.52-.46,14.55-.11,29.13-.09,43.7,0,15-2.1,29.87-1.65,44.9.14,4.59-1.42,9.3-1.3,14.08A6.27,6.27,0,0,1,693,300Z"/><path class="cls-39" d="M386.77,313c-2.74-.86-3.72-4.64-7.17-4.32l-7.19-5.74c-4.4-9.83-5.09-20.33-5.78-30.86-2.51-38-1-76.07-1.42-114.11,2.08-6.11-.59-12.57,1.43-18.68v-7.16c1.85-2.65-.37-6,1.43-8.63-.75-6.68,3.26-11.19,7.2-15.73,2.6.51,4.67-1.53,7.18-1.5.63,2.54-.92,4.24-2.63,5.45-5.44,3.85-7.12,9.43-7.58,15.56-.71,9.29-2.09,18.5-2.17,27.86-.12,15-1.12,30.19-.74,45.1.78,30-1,60.24,3.64,90.15.93,6,4.22,10,8.93,13.2,6.16,4.13,12.12,8.56,18.43,12.47,2.56,1.59,5.66,3,5.13,7h0c-5.8-.9-9.47-5.61-14.38-8.11C389.65,314.19,388.59,312.78,386.77,313Z"/><path class="cls-25" d="M366.64,139.25v14.26c0,1.59.5,3.4-1.41,4.42V143.66C365.23,142.07,364.71,140.25,366.64,139.25Z"/><path class="cls-25" d="M368.08,123.46c-.56,2.86,1.36,6.14-1.43,8.63C367.21,129.23,365.25,126,368.08,123.46Z"/><path class="cls-40" d="M405.47,323c-1.12-2.61-3.52-3.67-5.76-5.08-8.41-5.3-17-10.4-24.4-17.12-3-2.7-3.87-6.08-4.5-10.08-3.62-22.94-2.34-46-2.91-69.07-.15-6.09-1.91-12.26-1.18-18.39,2.3-19.49.75-39,1.47-58.55.31-8.23,1.75-16.41,2.82-24.6.53-4,3.08-7,6.35-9.11,2-1.32,4.07-2.46,5.1-4.77.93-1.94,3.88-1.85,4.33-4.29,7.13-5.64,16.07-8.39,23-14.37,8.9-3.8,16.68-9.56,25-14.32,5.29-3,10.67-5.93,15.23-10.07,8.64-4.76,17.64-8.87,25.86-14.37,3.13-2.32,7-3.31,10.07-5.74h0c1.62-1.35,4-1.37,5.43-3.07A21.12,21.12,0,0,0,496,37.33h0c2.29-.21,4.34-.89,5.74-2.88h0A51.46,51.46,0,0,1,512,29.34c1.75-.78,3.72-1.11,5.27-2.26,10.88-8,21.15-5.07,32,.71C576,42,602.36,57,628.53,72.25c16.47,9.62,32.57,19.81,48.74,29.88,2.15,1.34,5.58,1.9,5.69,5.54,1.7,3.64,6.62,3.9,7.75,7.07,2.71,9.74,1.71,19.06,2.42,28.25,3,38.11.47,76.25,1.33,114.36-3.08,10.88.15,22.27-2.72,33.19-.52,2-.07,4.28-.07,6.13-3.34,7.07-10.54,9.08-15.87,13.25-8.36,6.53-18.2,11-27,16.84-15.32,10.27-32.14,17.92-47.27,28.37-6.11,4.22-13.32,6.34-19.22,10.85-1.15.88-2.41,1.51-2.9,3-.68,4.07-5.3,3.2-7.2,5.73h0c-9.63,3.21-18.13,8.79-27.31,12.93-4.78-.33-8.21,3.61-13.71,3.92-11-4-22-10.19-33.16-16-10.73-5.55-21.1-11.8-31.57-17.86-14.75-8.55-29.39-17.31-44.2-25.75C416.77,328.82,411.82,324.57,405.47,323Z"/><path class="cls-41" d="M683,107.67c-12.22-9.26-25.56-16.8-38.54-24.85C629.16,73.35,613.79,64,598,55.46c-14.69-8-28.9-16.84-44.15-23.79-4.5-2.05-8.92-4.3-13.31-6.61a17.56,17.56,0,0,0-17-.08c-3.8,1.9-7.35,4.41-11.66,5.17-.5-.32-.67-.65-.51-1s.33-.48.49-.48c5.51-2.61,10.79-5.63,16.6-7.67a10.86,10.86,0,0,1,9.54.58,37.54,37.54,0,0,0,11.25,4.23c5.63,4.34,12.24,7,18.41,10.42q31.1,17.06,61.63,35.11c6.22,3.69,12.23,8,19.17,10.47C659.21,88.9,669.9,96,680.78,103c2,1.3,4,2.43,5.06,4.7Z"/><path class="cls-42" d="M486,43.07c-2.39,3.6-6.21,4.71-10.07,5.74C478.3,45.21,482.12,44.1,486,43.07Z"/><path class="cls-42" d="M491.74,40.2c-1,2.78-3.28,3-5.76,2.87a4,4,0,0,1,4.31-2.88.83.83,0,0,1,1.15-.29A.79.79,0,0,1,491.74,40.2Z"/><path class="cls-31" d="M491.74,40.2h-1.45A7.28,7.28,0,0,1,496,37.34,4,4,0,0,1,491.74,40.2Z"/><path class="cls-31" d="M511.84,28.71v1.44c-3.4,1.32-6.27,3.9-10.07,4.3C504.17,30.84,508,29.76,511.84,28.71Z"/><path class="cls-7" d="M572.24,374.68c1.12-3.5,5.51-2.92,7.2-5.73l5.75-1.44C581.9,371.74,577,373.16,572.24,374.68Z"/><path class="cls-43" d="M283.45,207.16c3.23-8.42,7.37-10,20.76-8.49,1.3,8.55-2.15,14.24-9.73,16C289.15,216,286.05,213.92,283.45,207.16Z"/><path class="cls-44" d="M140.33,212.64c-10.1-6.59-10.64-24.4-.94-31.16a12.43,12.43,0,0,1,15.72,1.32c9,8.46,6.81,24.78-4.2,30.91C147.4,213.18,143.74,214.19,140.33,212.64Z"/><path class="cls-45" d="M140.33,212.64c3.54.21,7.26-1.35,10.58,1.07C147.19,215.32,143.59,215.6,140.33,212.64Z"/><path class="cls-38" d="M418.4,90.44a5.4,5.4,0,0,1,2.7-3.24c19.27-9,36.4-21.78,55.24-31.63,11.51-6,22.71-12.72,34.11-19,4.15-2.3,8.65-3.78,12.8-6.12s9.23-1.92,14-1.6c7.75,3.92,15.85,7,23.62,11,5.85,3,11.73,6.14,17.33,9.4,10.49,6.08,21.41,11.45,31.61,17.91,9.77,6.19,20.09,11.39,29.86,17.6,9.13,5.8,18.07,12,27.62,17.18,6.57,3.54,11.65,8.93,17.49,13.37a10.2,10.2,0,0,1,3.62,6.76c.2,4.07,1.59,7.87,1.8,11.92,2,38.86,1.87,77.76,1.07,116.62-.25,12.2,0,24.64-2.48,36.81-1.28,6.18-3,11.35-8.86,15.33-12.87,8.71-25.2,18.22-39.32,25-2.3,1.1-3.38,4.24-6.53,3.94a2.32,2.32,0,0,1-.71-1.81c1.6-3.88,5.44-5,8.62-6.85,3.62-2.15,7.65-3.77,9.69-7.87a10.45,10.45,0,0,1,5.09-3.63c3.57-1,6.36-3.54,9.77-4.87,12.39-6.07,18.25-15.25,19.24-29.72,1.42-20.49-.27-41,1.46-61.37a42,42,0,0,0,0-19.13c-1-11.68-.64-23.39-.34-35.07.26-10.54-1.29-20.92-1.8-31.38-.3-6.3-2.45-12.2-8.35-15.81A191.44,191.44,0,0,0,652.38,99c-3.56-3.45-8-5.62-12-8.54a23.87,23.87,0,0,0-9.67-5.79,47.33,47.33,0,0,1-4.58-2c-19.41-13.34-40.3-24.13-60.9-35.44a52.19,52.19,0,0,0-9.1-4.06c-2.82-1.13-5.53-2.6-8.66-2.82a9.31,9.31,0,0,1-4.57-2.28c-3.36-3.63-7.67-4.76-12.44-4.65-6.38.41-11.59,3.87-17.09,6.54-8.71,4.24-17.09,9.09-25.43,14-8.92,4.39-17.21,9.89-26,14.57-11.47,6.57-22.75,13.47-34.29,19.92-2.16,1-4,2.66-6.48,3A3.39,3.39,0,0,1,418.4,90.44Z"/><path class="cls-46" d="M418.4,90.44h2.88a1.64,1.64,0,0,1,.39,1.71c-1.37,2.16-3.84,3.21-5.34,5.25A6.82,6.82,0,0,1,413.9,99c-10.16,4.91-19.35,11.36-28.56,17.76a9.06,9.06,0,0,0-3.77,7.14,12.74,12.74,0,0,1-.92,1.94,204.62,204.62,0,0,0-3.34,41.34c-.2,6.92.42,13.85-.45,20.75a150.27,150.27,0,0,0-.05,37.49c.86,5.62.33,11.28.51,16.93.28,7.51-.78,15.06.69,22.54a24.36,24.36,0,0,1,.64,5.9c.12,3.25-.37,6.54.59,9.74a36.88,36.88,0,0,0,1.51,4.82c1.42,3.28,2.37,6.75,4.13,9.89.71,2.07,3,3.68,1.92,6.27-9.16-2.89-10.61-10.71-11.44-18.55-4-37.44-3-75-2.81-112.59a227.31,227.31,0,0,1,2.58-33.16c.72-4.64-.06-9.43,1.71-14,1.84-4.81,4.45-8.59,9-11.41C396.78,104.83,407.54,97.56,418.4,90.44Z"/><path class="cls-47" d="M634.06,330.18v1.44c-16.32,9.59-33,18.5-49.37,28.05-12.27,7.18-25.23,13.19-37.84,19.79a9.44,9.44,0,0,1-4.81,1c-.29-3.53,2.9-3.76,4.9-5,3-1.8,6.37-2.93,8.72-5.68a8.69,8.69,0,0,1,4.38-2.29,9.77,9.77,0,0,0,6-2.5c3-2.47,7-3.18,10.06-5.47,3.75-2.19,8.15-3.32,11.14-6.77a7.35,7.35,0,0,1,2.34-1.68,39.06,39.06,0,0,0,15.29-7.66c5.5-4.22,13-5.31,17.47-11.11,2.3-1.79,4.66-3.45,7.71-3.65A5.06,5.06,0,0,1,634.06,330.18Z"/><path class="cls-48" d="M386.77,301.47c-.58-2-3.22-3-2.86-5.5,3.57-1.17,5.77,1.5,8.11,3.18,6.93,5,14.42,9.09,21.5,13.82,10.41,6.53,21.93,11.28,31.3,19.47,1,1.53,1.84,3.07.89,4.94-7.28-1.79-12.89-6.76-19.1-10.44C413.05,318.92,400,310,386.77,301.47Z"/><path class="cls-49" d="M556.44,370.36c.27,2.54-1.87,3-3.43,3.91-3.63,2.1-7.85,3.14-11,6.16-10.24,5.71-18.89,1.41-27.31-4.32,1.24-3.64,4-1.26,6.15-1.61,8.88,5.07,16.91,1.42,25-2.26C549.19,370.77,552.33,367.53,556.44,370.36Z"/><path class="cls-50" d="M513.31,376.09l-20.14-10c-1-.84-2.35-1.53-1.56-3.24a5.34,5.34,0,0,1,3.68-1.73A70.94,70.94,0,0,1,514,372,3.92,3.92,0,0,1,513.31,376.09Z"/><path class="cls-13" d="M470.16,351.72c-3.75-2.53-8.83-2.93-11.51-7.17a4.3,4.3,0,0,1,2.87-1.49c8.14,1.34,14.28,6.36,20.5,11.23a2.27,2.27,0,0,1-.33,2C477,356.93,473.9,353.43,470.16,351.72Z"/><path class="cls-51" d="M445.71,337.38c-.44-1.4-1.66-2.52-1.43-4.15,5.39-1.17,7.7,3.27,11,6,.68,1.22,1.37,2.45.53,3.88C451.59,342.66,448.71,339.91,445.71,337.38Z"/><path class="cls-50" d="M470.16,351.72c4.28.23,7.22,4.06,11.5,4.32,1.32.54,2.11,1.35,1.42,2.89C478.33,357.32,473.42,356,470.16,351.72Z"/><path class="cls-52" d="M491.72,363.21c.48,1,1,1.91,1.45,2.86-3.86-1-7.68-2.13-10.07-5.74,1.54-1.45,3.12-.7,4.71-.12C489.32,360.94,490.9,361.63,491.72,363.21Z"/><path class="cls-53" d="M487.42,361.75c-1.44-.48-2.64-1.69-4.32-1.42v-1.4L481.66,356v-1.39c3.49-.64,5.38,1.3,6.71,4.14A3.25,3.25,0,0,1,487.42,361.75Z"/><path class="cls-54" d="M513.31,376.09v-4.2c3.72-.83,6.76-.47,7.36,4.17-2,.92-4-1.62-5.91.05H514Z"/><path class="cls-55" d="M455.78,343.1l-1.37-3.1c4.06-1.15,6.68.05,7.3,4.49l-3.06.07Z"/><path class="cls-56" d="M380.84,123.48l.39-1.36c.13-2.6,2-4,3.79-5.47,9.56-6.65,19.19-13.18,29.33-18.94.63,0,1.2-.2,1.32-1,2-2.28,5-3,7.32-4.84A20.51,20.51,0,0,0,428.52,88c11.29-5.42,21.5-12.67,32.24-19,9.57-4.69,18.35-10.77,27.77-15.74,11.32-5.63,22.26-12,33.66-17.47,2.77-1.33,5.39-3.16,8.72-2.82a20.11,20.11,0,0,1,12.57,4.2c1.36.57,2.28,2.27,4.12,1.56a87.87,87.87,0,0,0,9.77,4.48c6.53,3.24,12.93,6.75,19.3,10.3a39.89,39.89,0,0,0,7.73,4.39q21.08,11.2,41.12,24.19c4,2.28,8.09,4.5,12.1,6.84a7,7,0,0,1,1.65,1.31c.79,1.26,1.63,2.52,0,3.8-3.41,1.65-7.06,1.12-10.61,1-50.12-1-96.44,12.26-140.08,36.35A323.92,323.92,0,0,0,433,170.5c-16.92,14.62-32.06,30.73-46.55,47.6-1.88,2.18-3.56,7.28-8.16,2.93-1.59-12.87-.33-25.79-.72-38.68-.1-3.58.11-7.17-.22-10.74l-.54-2.35a25.42,25.42,0,0,0-.75-3.44c.82-4.12.49-8.33.88-12.5a38.28,38.28,0,0,0,1.2-10.44C378,136.3,378,129.69,380.84,123.48Z"/><path class="cls-57" d="M461.71,344.48c-1.4-3.17-4.3-3.91-7.3-4.49-3.12-2.62-6.17-5.38-10.13-6.76L412.64,314c-1.17-6.52,4.32-7.3,8.18-8.64,14.44-5,28.79-10.26,43.49-14.6A335.94,335.94,0,0,1,561.9,276.7c35.75.24,70.87,5.81,104.6,18.4,2.25.84,4.48,1.7,6.1,3.6,1.52,2.18.06,3.53-1.36,4.89-4.8,3.25-9.86,6.1-14.73,9.25-1.28.85-3,1-3.85,2.55-6.49,7-15.25,10.33-23.42,14.63-3-.46-3.74,3.62-6.67,3.21-5.49,4.46-12.3,6.7-18.09,10.67a71.61,71.61,0,0,1-14.9,7.84l-1.52,1.52a109.56,109.56,0,0,1-12.16,6.57c-3.1,2.35-7.15,3-10.14,5.52-1.55,1.63-3.63,2.41-5.57,3.43-1.64-.4-2.48,1.06-3.72,1.58-3.94-.87-6.63,2-9.81,3.35-5.84,2.44-11.23,6.09-18,5.86-2.74-.72-4.68-3.6-8-3.51-1.49-3.08-5-2.65-7.36-4.17a44.11,44.11,0,0,1-13.19-7.07,17.56,17.56,0,0,0-5.53-2.91,7,7,0,0,1-7.07-3.26l-5.84-4c-4.85-2.54-9.78-4.94-14.2-8.2C465.74,345.18,464,344.09,461.71,344.48Z"/><path class="cls-58" d="M669.84,302.83l2.87-2.86c4-4.81,8-9.57,9.71-15.77,2.94-7,.81-14.42,1.43-21.61v-7.41c.11-3.9-.23-7.83.6-11.7,1.7-9,.62-18,.77-27,.2-12.13,0-24.27,0-36.39a353.84,353.84,0,0,0-2.32-50.52c-1.94-4.25-2.87-9-6.28-12.53-.85-1.6-1.77-3.2-.81-5.09,9.09,2.93,10.63,10.69,11.43,18.54,2.26,22,1.42,44.11,1.51,66.18a52.75,52.75,0,0,1,0,18.67c0,16,.39,32-.17,48A160.45,160.45,0,0,1,686,289.4,14.71,14.71,0,0,1,681.4,298c-4.75,4.22-9.07,9.11-15.66,10.65C664.59,305,669.72,305.66,669.84,302.83Z"/><path class="cls-6" d="M576,54.74c-7.11-2.34-12.91-7.18-19.61-10.32a1.87,1.87,0,0,1-.15-2.64l.15-.15c5,.93,9.21,3.74,13.52,6.09q23,12.53,45.7,25.69c4,2.33,7.51,5.58,11.25,8.41.25,1.39,0,2.2-1.68,1.55-7.05-3.73-13.56-8.39-20.45-12.29s-14-8-21.16-11.76C581.69,56.8,578.73,56,576,54.74Z"/><path class="cls-59" d="M530.57,34.23c-10.43,3.84-20,9.47-29.74,14.69a67.77,67.77,0,0,1-12,5.5,2.33,2.33,0,0,1-1.42-1.31c.38-.59.62-1.44,1.16-1.73,12.51-6.57,24.44-14.31,37.81-19.2a11.8,11.8,0,0,1,4.17-.58,1.69,1.69,0,0,1,.27,2.37A1.54,1.54,0,0,1,530.57,34.23Z"/><path class="cls-60" d="M461.54,70.17c-10.79,6.57-20.64,14.77-32.8,19-1.48.46-1.94-.19-1.72-1.58a319.06,319.06,0,0,1,34.51-20.08,1.78,1.78,0,0,1,.16,2.51Z"/><path class="cls-61" d="M461.54,70.17V67.48c8.31-5.37,16.43-11.07,25.88-14.37a1.68,1.68,0,0,1,1.42,1.31C480,60.07,471.22,65.93,461.54,70.17Z"/><path class="cls-62" d="M675.77,112c.4,1.37,1.65,2.44,1.44,4a1.74,1.74,0,0,1-1.94.44c-8.56-5.26-17.88-9.46-24.58-17.34.26-1.12.66-2,2.12-1.49C661,101.54,669.12,105.57,675.77,112Z"/><path class="cls-58" d="M629.22,330c7.09-6,15.42-10.06,23.42-14.63.36,2.54-1.22,3.58-3.08,5-4.9,3.73-11.2,5.19-15.5,9.8Z"/><path class="cls-63" d="M652.81,97.58a2.25,2.25,0,0,0-1.59,1.78c-4.84,0-8.05-2.77-10.85-6.26l-2.23-2.18c-.24-2.68,1.06-2.92,3.1-1.92C644.8,92.27,649.9,93.39,652.81,97.58Z"/><path class="cls-64" d="M669.84,302.83c1.83.93.72,1.82-.18,2.37-1.54.94-3.39,1.45-4,3.46-3,1.63-5.29,4.65-9.21,4.18C659.64,307.78,665.22,305.93,669.84,302.83Z"/><path class="cls-65" d="M530.57,34.23V31.6c4.85.65,10.35-.18,12.93,5.64C539,37.12,535.19,33.9,530.57,34.23Z"/><path class="cls-66" d="M625.22,83.37a2.19,2.19,0,0,0,1.68-1.55c1.68-.27,2.88.92,4.29,1.45,1.73,2.48,7.41,1.71,5.76,7C633,88.09,628.72,86.35,625.22,83.37Z"/><path class="cls-67" d="M688.71,215.34V196.67C690.69,201.63,690.69,210.38,688.71,215.34Z"/><path class="cls-68" d="M427,87.56a2.24,2.24,0,0,0,1.72,1.58c-.48,2.56-2.64,3.19-4.63,4-.76-.83-2.18-.19-2.83-1.27V90.44C423.34,89.78,424.41,87.13,427,87.56Z"/><path class="cls-69" d="M556.43,41.63v2.79c-3.19-1.48-7-2.05-8.82-5.62C551.05,38.17,553.57,40.42,556.43,41.63Z"/><path class="cls-70" d="M637,90.24c.4-4.23-5-3.7-5.76-7,4.2.44,7.08,3.17,10,5.74-1.43,0-2.67.28-3.1,1.91A2.1,2.1,0,0,1,637,90.24Z"/><path class="cls-71" d="M683,285.67l-1.89,7.65a26.77,26.77,0,0,1-8.44,6.65c-10-4.18-20.52-7-30.89-10.26-10.64-3.33-21.72-4.39-32.32-7.65a9.56,9.56,0,0,0-3.47-.63c-9.81.83-19.44-1.52-29.22-1.76-6.82-.17-13.79-2-20.57-1-10.13,1.49-20.33,1.09-30.48,2.31-8.45,1-16.93,1.84-25.32,3.3A182.09,182.09,0,0,0,475,290.4c-4.27,1.4-8.68,2.42-13,3.4-15.1,3.43-29.09,9.95-43.7,14.66-3,1-5.16,2.3-5.68,5.55-9.43-5-18.07-11.22-26.88-17.19a11.32,11.32,0,0,0-1.85-.82c-2.88-2.86-2.92-7-4.57-10.37-.58-2.58-.82-5.2-1.17-7.81-.11-2.55.19-5.13-.35-7.67a1.79,1.79,0,0,1,1.22-2.22,1.55,1.55,0,0,1,.31-.06c3.39.22,2.55,3.49,3.27,4.57,10.31-7.73,19.6-16.82,31-23.16,3.13-.31,4.41,2.45,6.5,3.87,1.22,1,2.38,2.11,3.58,3.17,2.41,2.53,5.75,3.08,8.84,4.14a11.5,11.5,0,0,1,1.65,1,6.91,6.91,0,0,0,7.08,0,18.52,18.52,0,0,1,1.53-1.1c3.85-2,8.18-3.13,11.68-5.86a21,21,0,0,0,3.67-2.9c2.37-2.12,5-4,6.71-6.65-.06,0-.18-.53-.18-.53a2.47,2.47,0,0,0-.6.19c-2.09,1.78-3.89,3.81-6.19,5.25a58.58,58.58,0,0,1-5,3.25c-4.58,2.31-9.29,3.29-14.29,1.45-3.63-.77-6.18-3.32-9-5.44a10.55,10.55,0,0,1-1.44-1.69c-1.43-2.3-3-4.59-1.23-7.41,10.86-8.18,22.91-14.47,34.69-21.15,4.54-2.58,9.24-4.89,13.49-7.34,2.09-3.09,1.64-6.26,1.65-9.32.07-14.78-.16-29.55.16-44.32.07-3-1.29-7.89,4.84-7.31a4.18,4.18,0,0,1,.74,2.37c-.6,34.3-.12,68.59-.23,102.88a6,6,0,0,0,1,4c4.72.6,8.66-.22,10.31-5.43,1-3,.41-6.1,1-9.1,1-4.19,2.12-8.35,3.05-12.56,2.09-7.43,3.76-15.06,9.4-20.91,3.08-1.85,6-2,8.53.91a7.67,7.67,0,0,1,.87,2.26c.61,10.84.11,21.7.29,32.55,0,3.06-.25,6.2,2,8.72.8.67,1.59,1.38,2.42,2,3.33,1.89,6.76,1.44,10.2.4a13.57,13.57,0,0,0,6.27-5.25c-3,.42-5.72,1.29-8-.67a6,6,0,0,1-1.54-5.26c.93-14.14.61-28.29.2-42.42-1.9-3.25-7.3-4.29-6.08-9.52,2-2.29,4.89-2.87,7.64-3.65a267.68,267.68,0,0,1,66.35-10.4,218.36,218.36,0,0,0,26.31-1.87c4.57-2,3.84,3.33,5.77,4.34,1.73.35,2.49-.62,3.39-1.28,1-.9,2-1.92,3.47-2,5.93,4,13,2.38,19.43,3.74,8.79,1.86,17.57,4,26,5.07,3-2.25,1.33-6.32,4.64-7.6a1.63,1.63,0,0,1,1.39,1.69v43.57c-1.37,5-.13,10.19-1,15.23-2,7.78-1.19,15.62-.51,23.46C685.25,272.55,685,279.19,683,285.67Z"/><path class="cls-72" d="M376.9,166.45c.77.23,1.26.65,1,1.55.63,22.06-.23,44.14.8,66.19.12,2.59.23,5.25-1.08,7.68a1.69,1.69,0,0,1-2.26.78l-.08,0V225.39a206,206,0,0,1,0-37.33V166.53l.77-.77Z"/><path class="cls-18" d="M376.9,166.45l-1.61.08c-.24-13.36,1.1-26.61,2.81-39.83.25-1.88.56-3.22,2.75-3.22-1.32,6.66-.67,13.47-1.49,20.17-1.28,3.37.21,7-1,10.39C378.9,158.3,378,162.39,376.9,166.45Z"/><path class="cls-73" d="M414.35,97.71c-7.28,6.81-16,11.65-24.29,17-1.55,1-2.5,2.83-4.47,3.16-1.65.65-1.95-.16-1.71-1.56,2.13-3.64,6.17-4.82,9.35-7.06,5.13-3.62,10.64-6.71,15.83-10.26A7.58,7.58,0,0,1,414.35,97.71Z"/><path class="cls-48" d="M375.26,188.06v37.33c-1.22-.64-1.43-1.74-1.43-3V191C373.83,189.8,374,188.7,375.26,188.06Z"/><path class="cls-48" d="M375.27,242.61h1.43a5.79,5.79,0,0,1,2.64,3.57,12.5,12.5,0,0,1,0,5.77c-1.73,4.38,1,9.63-2.65,13.65-1.89-1-1.39-2.84-1.39-4.43C375.25,255,375.27,248.8,375.27,242.61Z"/><path class="cls-72" d="M376.68,265.6c.66-4.77-1.4-9.79,1.32-14.36,2.08,1.69,1.91,4.09,2.08,6.4a61.84,61.84,0,0,0,.23,8.82,2.45,2.45,0,0,1-.86,1.94,1.29,1.29,0,0,0-1.27,1.31v.05a1.38,1.38,0,0,1,.43,1.13c0,.42-.11.62-.21.62a1.24,1.24,0,0,1-1.69-.19Z"/><path class="cls-74" d="M421.28,91.87c1.12,0,2.28,0,2.83,1.27-3.25.2-4.9,4.11-8.44,3.61C416,93.33,419.22,93.28,421.28,91.87Z"/><path class="cls-18" d="M383.9,116.28a2.21,2.21,0,0,0,1.71,1.56l-4.36,4.28C379.42,119,381.78,117.68,383.9,116.28Z"/><path class="cls-48" d="M376.71,271.32h1.41c1.3,1.73.49,3.73.72,5.6-.14,1.49.41,3.1-.71,4.45C375.32,278.36,377.3,274.66,376.71,271.32Z"/><path class="cls-72" d="M378.13,281.39v-4.34c.47-.65.94-.61,1.39,0l-.21,8.53C377.54,284.6,378.32,282.85,378.13,281.39Z"/><path class="cls-75" d="M603.77,342.87c6.25-3.23,11.62-8.18,18.78-9.64.12,2.67-1.77,3.6-3.79,4.58-4.51,2.18-9,4.5-13.42,6.76C604,344.79,603.27,344.38,603.77,342.87Z"/><path class="cls-76" d="M603.77,342.87a2.21,2.21,0,0,0,1.57,1.7c-4.53,4-9.14,7.8-15.78,7.17C593.5,347.52,599.08,345.9,603.77,342.87Z"/><path class="cls-77" d="M575.17,359.15c4.26-2,7.48-6.33,12.87-5.89-2.21,4.95-7.21,5.41-11.45,7.1C575.27,361,575.1,360.2,575.17,359.15Z"/><path class="cls-78" d="M575.17,359.15l1.42,1.21c-2.12,4.08-7.13,3.1-10.08,5.74-1.38.21-2.08-.2-1.58-1.72A34.93,34.93,0,0,1,575.17,359.15Z"/><path class="cls-79" d="M564.9,364.38a2.24,2.24,0,0,0,1.58,1.72c-1.2,3-3.71,3-6.35,2.68C560.37,365.82,563.16,365.66,564.9,364.38Z"/><path class="cls-80" d="M487.5,358.65a13.88,13.88,0,0,1,7.07,3.26c-.54,1.33-1.72,1.27-2.85,1.3-1.68.25-2.88-.92-4.3-1.46C487.44,360.72,487.47,359.68,487.5,358.65Z"/><path class="cls-81" d="M378.37,258.1l-.37-6.86c0-1.93,0-3.86-.07-5.78a7,7,0,0,1-.13-4.8c1.37-6-1.28-12.33,1.79-18.14,5.23-2.86,7.65-8.36,11.47-12.52,6.39-6.93,12.95-13.74,19.12-20.79,4.51-5.15,10.93-8.44,14-14.83a28.29,28.29,0,0,0,9.43-6.41c8.95-8.85,19.15-16.06,29.47-23.29,14.19-9.92,29.5-17.68,44.83-25.32a216.55,216.55,0,0,1,27.32-10.9c8-2.7,16.19-5.78,24.3-7.43,9.86-2,19.71-4.42,29.76-5.81a210.61,210.61,0,0,1,30.32-1.93c6.93,0,13.86-.12,20.8-.19,4.12,1.21,7,4.55,10.85,6.26l26,16.61a14.07,14.07,0,0,1,5.86,11.8c2.14,6.44,2.15,13.09,1.93,19.76.13,8.66-.7,17.33.61,26,.07,2.89.88,5.87-1,8.52-.19,3.28-.38,6.57-.59,10.34-16.2-2.95-31.65-7.42-47.61-7.72-1.39-1-.4-3-1.87-3.83l-.75-.67c-.45-2.68.15-5.28.64-7.88a20.07,20.07,0,0,0,.83-5.71c0-2.22.94-4.4.59-6.41-1.58-1.34-2.88-.46-4.16-.26-2.38.9-5,1.23-7.2,3-1,2.66.14,5.37.34,8.09.7,2.86,1.64,5.73-.7,8.32-.28,1.34.29,2.9-1,4-14.85-2.27-29.47,1-44.2,1.66-12.61.53-24.69,3.26-36.87,5.94a130,130,0,0,0-20.28,5.89c-3.16,3.14-8.2,2.78-11.26,6.07a20.06,20.06,0,0,0-2.26,2.93c-.93,1.28-2,2.42-3,3.65a46.52,46.52,0,0,0-5.58,10.37c-.65,1.84-1.45,4.42-4.34,2-2.17-5.52-1.21-11.16-.7-16.79,1.82-9.7.61-19.49.81-29.24.17-8.82.24-17.65-.11-26.44-.33-1.47-1.35-1.82-2.73-1.56-3.46.62-6.26,3-9.68,3.64a2.06,2.06,0,0,1-1.68-.78c-3.69.7-2.37,3.65-2.38,5.75-.09,16.43-.05,32.86-.05,49.29v7.14c-18.74,7.44-34.7,19.16-52,28.41-1.26.2-1.95-.56-2.55-1.51a10.08,10.08,0,0,1-1.15-6.21,37.8,37.8,0,0,0,0-13.5,10.18,10.18,0,0,1,1.21-6.14,15.6,15.6,0,0,1,9-8,6.87,6.87,0,0,1,1.92-.1c2.68.67,5.38,1.11,8.11.21l.92-.22a7.81,7.81,0,0,1,1.93-.08,7.57,7.57,0,0,1,1.86.52c2.4,1,4.17,3,6.71,3.85,2.22-.09,3.85-1.49,5.55-2.68,1.71-2.41-.75-2.87-1.87-3.94-.79-.48-1.58-1-2.4-1.42a28.36,28.36,0,0,0-8.26-2,44.37,44.37,0,0,0-5.88,0,40.48,40.48,0,0,0-9.5,2.39,22.75,22.75,0,0,0-10.5,8.14,26.68,26.68,0,0,0-8.78,17.4c-.1,3.16,0,6.32,0,9.48a14.67,14.67,0,0,0,.78,5.13c.39,2.36,2.08,4.69.21,7.11-10.65,8.39-21.31,16.77-32.09,25.25-2.29-1.72.47-5.34-2.58-6.56L379.3,267C378.23,264.09,379.58,261,378.37,258.1Z"/><path class="cls-82" d="M378.37,241.11c-.15,1.45-.29,2.9-.44,4.35-1.26-.59-1.21-1.73-1.23-2.85q0-33.95.05-67.9c0-2.23-1.07-4.79,1.14-6.71.17.49.33,1,.5,1.46Q379.5,205.3,378.37,241.11Z"/><path class="cls-83" d="M378.37,241.11q-1.11-35.82,0-71.65c2.22,1.91,1.12,4.47,1.13,6.7.11,15.45.07,30.91.07,46.36v14.81C379.57,238.71,379.9,240.2,378.37,241.11Z"/><path class="cls-40" d="M378.39,154c0-3.5-1.31-7.11,1-10.39C379.39,147.15,379.9,150.69,378.39,154Z"/><path class="cls-59" d="M576,54.74c3.36.16,6.41.82,7.58,4.58C581,58,578,57.19,576,54.74Z"/><path class="cls-84" d="M685.64,228.05V182.53a3.37,3.37,0,0,1-.19-3,1.29,1.29,0,0,1,1.82,0q0,28.92-.06,57.85c0,2.2,1.17,4.79-1.21,6.63C684.39,238.68,685,233.37,685.64,228.05Z"/><path class="cls-85" d="M687.26,179.46a7.46,7.46,0,0,0-1.16.09c-2.33-6.55-1.53-13.36-1.7-20.08-.09-2.74.24-5.5-.35-8.22a4.21,4.21,0,0,1,.1-3.32c.93-6.79-1.91-13.37-1.08-20.16,2.78,0,2.78,2,2.77,4C685.72,147.67,688.28,163.51,687.26,179.46Z"/><path class="cls-86" d="M683,285.67c-.87-6.79,1.91-13.37,1.08-20.15a3.27,3.27,0,0,1,0-2.91,1.33,1.33,0,0,1,1.76.09v17.07C685.9,282.24,685.81,284.57,683,285.67Z"/><path class="cls-38" d="M685.64,228.05q.18,7.95.35,15.89l-.17,11.57-1.19.38-.81-.94c.07-4.12-.78-8.27.54-12.32C685.39,237.82,683.6,232.77,685.64,228.05Z"/><path class="cls-67" d="M684.74,255.52h1.08v7.19h-1.2C683.25,260.3,683,257.9,684.74,255.52Z"/><path class="cls-87" d="M507.45,205c0-1.08-.08-2.22,1.24-2.71,3.83-1.21,7.3-3.49,11.48-3.86,5.73,1.49,7.94,5.66,8,11.13,0,12.83.42,25.66-.21,38.48.21,2.35,1,4.37,3.19,5.62,1,.56,2.09,1.13,2.44,2.41.08,1.68-.91,2.59-2.32,3.19-3.6,1.2-7.41,0-11,1a1.74,1.74,0,0,1-1.2-1.62c-2.91-3.5-3.52-7.55-3.61-12-.22-10.92,1-21.86-.69-32.74a.7.7,0,0,1-.12-.88c-1.32-3.37-5.12-1.55-7.06-3.28A3.92,3.92,0,0,1,507.45,205Z"/><path class="cls-88" d="M601,217c2.46,1.78,1,4.32,1.08,6.46.18,9.36.08,18.74.08,27.18,1.68,2.32,3.25,1.78,4.57,2.08,1.09,1.15-2.7,2.57.19,3.77.18.07-1,1.36-1.56,2l.1-.07a22,22,0,0,1-11.68,1c-3.07-.56-3.27-4.19-5.81-5.3-1.81-.89-.25-3.89-2.73-4.36-2-2.65.71-4.74.83-7.13.8-3.55,1.84-7,2-10.71-.22-4.67-.22-9.26,4.32-12.24a.8.8,0,0,1,1-.17,8,8,0,0,1,6.31-.15c1.22,9.43.2,18.91.62,28.36-.06-9,0-18.09,0-27.13C600.25,219.4,600,218.09,601,217Z"/><path class="cls-89" d="M422.4,257.45l-2.63-3.13c-2.89-3.67-5.45-7.53-6.47-12.2a10.5,10.5,0,0,1-.64-4.44c-.19-7.14-.33-14.26,3.54-20.73,1.22-2,2.09-4.31,4.62-5.14,2,0,2.79,1.25,3.07,3a17.14,17.14,0,0,1-.64,3.4c-.27,4.75.14,9.52-.18,14.27-.6,2.5.77,4.59,1.44,6.82,1.15,2.92,2.07,6,5.12,7.66a1.87,1.87,0,0,1,.35,1.16c2.28,2.77,4.75,5.23,8.63,5.5,1.62.6,3.27,1.11,4.91,1.63,1.47.55,3.44.4,3.65,2.84-6.24,4.76-12.8,3.2-19.38.94C426,258.42,424.44,257.15,422.4,257.45Z"/><path class="cls-90" d="M552.31,254.1A1.8,1.8,0,0,1,552,253c-1.82-3.33-2.6-7-3.61-10.63-1-3.3-.65-6.64-.32-10,.35-1,.89-1.94,1.25-2.93a32.89,32.89,0,0,0,2.81-8.59,6.73,6.73,0,0,1,1.71-3.66c1.79-1.52,2.84-3.73,4.7-5.15s3.81-2.42,4.46,1.15c-.27,2.78-2.35,5.09-2.07,8a6.75,6.75,0,0,1-1.34,3.94,65.64,65.64,0,0,0,0,13.73c.34,1,.81,1.87,1.06,2.86,1.32,5.29,3.56,9.89,9.09,12a4.8,4.8,0,0,1,2.34,2.11c1.24,3.69-1.55,3.82-3.84,4.19-4.24.68-7.77-1.37-11.36-3.13C555.11,256.39,553.79,255.11,552.31,254.1Z"/><path class="cls-91" d="M623.9,203.67c1.54-1.92,4-1.61,6-2.36,2.11,1,5.19-1.2,6.67,2,1,14.73,0,29.48.58,44.22a6.79,6.79,0,0,0,1,2.27c.43,1.1.7,2.28,1.76,3,.92,1,2.26,1.53,3,2.76.48,1.81-.74,3-1.57,4.29a2.62,2.62,0,0,1-2.93,1.22c-3.17-1-6.58-.19-9.75-1.22l-1.76-1.57c-1-1.44-1.26-2.87,0-4.28,2.07-1,4.05,1.33,6.29.15-2.47-15-.27-30.15-1.59-46.26-3.36,3-2.66,5.92-2.69,8.52-.12,10,.08,20-.13,30,0,2.87.82,6.38-3.12,7.83a10.27,10.27,0,0,1-2.14-6.62C623.56,233,622.9,218.3,623.9,203.67Z"/><path class="cls-92" d="M481.22,150.65l1.51-.25a4,4,0,0,1,1.68,1.9c1.19,3.47.83,7.08.84,10.65v83.11c0,3-.57,6.2,1.2,8.81,2.64,1.18,5-.73,7.32,0l1,.74c-.18,1.34-1.56,2.33-.8,3.81l-9.58,3c-2.61-.32-3.56-1.76-3.54-4.39.25-35.15-.4-70.3.37-105.45a2.05,2.05,0,0,1,.27-.67A1.53,1.53,0,0,0,481.22,150.65Z"/><path class="cls-93" d="M634.51,180.8c-.22,1.15.09,2.56-1.48,3.06a5,5,0,0,1-5.61-.21c-2.4-5.1-2.69-11-3.75-16.62-1.39-5.95,3.66-5.89,7-7.46,1.36-.24,2.6-1.13,4-.73,2,.87,1.83,2.48,1.52,4.15-.8,2.09-.7,4.28-.75,6.46-.36,3.83-1.56,7.56-1.5,11.45Z"/><path class="cls-94" d="M481.58,151.94V258.17c.3,2.91,2.31,3,2.9,4.28l-2.93,1.4c-1.86-.76-1.4-2.12-1.4-3.18q0-51.44.09-102.88C480.25,155.82,479.2,153.44,481.58,151.94Z"/><path class="cls-95" d="M527.64,249.8c-2.5-1.76-1.32-4.37-1.34-6.58q-.19-17.13,0-34.27c0-4.5-1.15-7.93-6.27-9.36-2.55.88-5.65,1.12-8.07,3.31-1.18,1.06-2.13-.51-3.25-.6,3.2-4.56,8.19-4.91,13.06-5.54a14.66,14.66,0,0,1,7.29,7.21c1,1.16.68,2.44.32,3.72-.57,11.07-.09,22.14-.26,33.2C529.05,243.93,529.51,247.06,527.64,249.8Z"/><path class="cls-96" d="M497.28,222.36c1.77-5.16,2.54-10.82,7.3-14.48a14.78,14.78,0,0,1,3.57,4.83c-4.93,5.8-6.33,13.21-9.18,20-2.32-.71-3.15-2.62-3.82-4.67A5.83,5.83,0,0,1,497.28,222.36Z"/><path class="cls-97" d="M422.4,257.45c.9-2.32,2.28-1.57,4-.82,6.43,2.93,13,4.59,19.82,1.05-.83-1.21-2.92-.38-3.35-2.13,3.45-1.2,7.3-1.21,10.41-3.44,2.39-.15,3.83.45,2.55,3.2a21.34,21.34,0,0,1-12.64,6.09,11.19,11.19,0,0,1-10.71,0A11.43,11.43,0,0,1,422.4,257.45Z"/><path class="cls-98" d="M635.47,202.43c-1.87-.37-4.07.9-5.62-1.12,2.62-.94,5-2.61,8.24-2.15v50.61H636.9c-1.55-13-.23-26-.72-39C636.11,208,637,205.1,635.47,202.43Z"/><path class="cls-99" d="M623.9,203.67c2.63,1.68,1.49,4.33,1.51,6.55.11,12.43,0,24.86.11,37.29,0,2.2-1.17,4.84,1.38,6.58h0v4.18c-3-.6-3-3-3.16-5.32a216.7,216.7,0,0,1,0-49.36Z"/><path class="cls-100" d="M562.18,213.89c-.12-.65-.25-1.31-.39-2.11-3.9.59-3.45,5.54-6.82,6.42-1.87-2.15.2-3.72.82-5.5a51,51,0,0,1,7.78-7.55h-.1c2.81-1.16,4.87-4.24,8.5-3.32a2.75,2.75,0,0,1,1,1.74c-.21,3.22-3.81,3.74-5,6.2a1.41,1.41,0,0,1-1.34,1.25C565.2,212.06,564.9,214.81,562.18,213.89Z"/><path class="cls-101" d="M514.7,213.86c1.91,1,1.47,2.75,1.48,4.34v17.68c0,7.68-.83,15.48,2.8,22.73-4.67-.72-4.22-4.58-4.32-7.66-.25-8.32-.16-16.65-.16-25C514.52,221.94,514.64,217.9,514.7,213.86Z"/><path class="cls-102" d="M527.64,249.8c0-12.11,0-24.22.08-36.32,0-2.25-1-4.78,1.09-6.73,2.23,6.43.76,13.06.9,19.58.16,7.31.63,14.66-.36,22-.61,1.72.55,3,1.2,4.35a.87.87,0,0,1,.37,1c-.13.36-.25.48-.37.48A4,4,0,0,1,527.64,249.8Z"/><path class="cls-103" d="M623.73,203.6c.44,16.46.47,32.91,0,49.36l-1.24-1.77a377.66,377.66,0,0,1,0-47.34A3.56,3.56,0,0,1,623.73,203.6Z"/><path class="cls-104" d="M622.47,203.85v47.34c-1.22-.67-1.36-1.79-1.36-3V206.9C621.12,205.65,621.29,204.54,622.47,203.85Z"/><path class="cls-105" d="M529.35,248.3l-.54-41.55c.08-.93.16-1.86.23-2.78.46-.72,1.42-.77,1.42-.07q0,21.69-.2,43.38C530.25,247.62,529.67,248,529.35,248.3Z"/><path class="cls-106" d="M556.44,255.53c4.86,1.31,9.42,4.28,14.87,2.53.4-.86-.31-1.65-.51-2.52,1.46-1.58,3.16-1.45,4.94-.71,1.85,1.37,1.44,3.09.78,4.85a.72.72,0,0,1-.81.36,29,29,0,0,0-7.18,2.48c-3.35-.79-6.37-2.08-9.59-2.55l-2.52-1.84a1.65,1.65,0,0,1-.25-2.33A1.72,1.72,0,0,1,556.44,255.53Z"/><path class="cls-107" d="M588,254.19c.28-1.12-.26-2.4.84-3.65,1.33,2.45,1.52,5.43,4.28,7.47,3.78.95,8.11.1,12.37.48-3.36,4.07-7.92,2.62-12.1,2.8C590.9,259.3,588.39,257.54,588,254.19Z"/><path class="cls-76" d="M624,166.5c2.32,4.83,2.33,10.17,3.09,14.65,1.57,3,3.87,2.51,5.92,2.71a6,6,0,0,1-6.77,2.86c-1.89-2,.2-5.46-2.16-7.46.17-2.92-.61-5.69-1.26-8.49C623.81,169.51,622.69,167.67,624,166.5Z"/><path class="cls-108" d="M530.55,254.09v-1.44c3.61,1,6.16-2,9.94-2.53-.57,5.44-3.87,8.19-8.45,9.91a1,1,0,0,1-.4-1.07c.11-.36.22-.55.34-.55l.8-2Z"/><path class="cls-109" d="M568,209.82c-.72-3.5,2.85-4,4.23-6,7-3.16,9.72-2.58,11.94,2.56a1.42,1.42,0,0,1-1.88.71,1.34,1.34,0,0,1-.4-.27C576.77,205.53,572.48,208.09,568,209.82Z"/><path class="cls-110" d="M586.61,242.61c.68,2.63-1.55,4.69-1.37,7.22-.89,3.16-3.8,4.78-5.55,7.28-4.31-1.77-.8-3.87-.25-5.85l6-8.64a.71.71,0,0,1,1-.17A.65.65,0,0,1,586.61,242.61Z"/><path class="cls-111" d="M457.3,248.65l7-6.19a4.11,4.11,0,0,1,3.2,1.69c-1.66,4-5.73,5.69-8.31,8.8C455,253.11,457,250.51,457.3,248.65Z"/><path class="cls-112" d="M588.24,199.38a10.36,10.36,0,0,1,7,3.13,1.26,1.26,0,0,1,0,1.78,1.06,1.06,0,0,1-.29.22c-2.29,1.25-4.46.65-6.6-.41-4.48-2.55-9.5-1.14-14.22-1.92-1-.49-2.11-.93-1.82-2.41a2.24,2.24,0,0,1,1.21-.34A19.67,19.67,0,0,1,588.24,199.38Z"/><path class="cls-113" d="M496.13,228.25c1.64,1,1.93,2.92,2.84,4.42a32.61,32.61,0,0,1-3,12.81,1.42,1.42,0,0,1-2-.41l0,0c-2.09-5.1.46-10,.8-14.92A4,4,0,0,1,496.13,228.25Z"/><path class="cls-114" d="M586.61,242.61h-1.22a98.07,98.07,0,0,0,1.32-19.21,1.87,1.87,0,0,1,1.37-2.15c2.15,3.56-.69,7.73,1.38,11.29C587.9,235.72,589.21,239.73,586.61,242.61Z"/><path class="cls-115" d="M579.44,251.26c.88,1.92-1.85,4,.25,5.85a5,5,0,0,1-3.17,2.57c-.61-1.24-1.23-2.47-.52-4.14h-5.2a1.85,1.85,0,0,1-1.44-1.45c-.51-.28-.67-.56-.5-.84s.34-.41.52-.41C572.76,252.47,576.31,253.2,579.44,251.26Z"/><path class="cls-116" d="M641.24,259.82c2.1-2.86-1.55-4.58-1.39-7l8.55-1.66C647.9,256.07,644.19,257.65,641.24,259.82Z"/><path class="cls-117" d="M508.15,212.71c-1.14-.22-2.37-.24-3.29-1.5-.08-1-.18-2.15-.28-3.33a6.24,6.24,0,0,1,2.87-2.87l.28,3.25c1.69,2.44,4.63.36,6.64,2.38,0,.59.13,1.47.21,2.34l-3.08-1.33Z"/><path class="cls-118" d="M569.38,252.84v1.25c-6.09-1.45-8.17-6.38-10-11.51,1-.75.32-2.37,1.52-3C563.15,244.32,564.17,249.92,569.38,252.84Z"/><path class="cls-99" d="M549.29,231.14V242.6c.5,1.49-.18,1.79-1.48,1.45a18.62,18.62,0,0,1,0-14.36C549.07,229.36,549.76,229.64,549.29,231.14Z"/><path class="cls-119" d="M562.18,213.89l4.49-2.82c-1,3.86-2.54,7.47-5.72,10.14C557.21,218.08,560.73,216.16,562.18,213.89Z"/><path class="cls-120" d="M605.36,258.56c.1-1.18,1.74-2.62-.62-3.42-.07-1.41,1.91-1.13,2-2.38l3.91-2.87c1,.7,2.22,1.51,1.7,2.74C611,255.68,609.19,258.36,605.36,258.56Z"/><path class="cls-121" d="M559.28,239.76c-2.15-4.92-2.68-9.8.33-14.61,2.15,3.32.35,6.94.81,10.38C559.52,236.8,560.62,238.61,559.28,239.76Z"/><path class="cls-38" d="M685.83,157.92l.27,21.63c-.16,1-.31,2-.47,3a8.53,8.53,0,0,1-1-.52l-.18-8.3c-1.43-5-.47-10.09-.59-15.14a1.27,1.27,0,0,1,1.57-.89A1.18,1.18,0,0,1,685.83,157.92Z"/><path class="cls-122" d="M532,258.41,532,260c-3.91,2.34-7.86,2-11.84.2C523.65,256.55,528.09,259.24,532,258.41Z"/><path class="cls-105" d="M684.74,255.52l-.11,7.21-.51,2.79c-1.8-7.65-2.17-15.29.24-22.89Z"/><path class="cls-123" d="M414.12,242.6c1.83,3.94,4.64,7.4,5.65,11.72-3-.15-3.33-3.6-5.65-4.61-.15-2.44-2.18-4.42-1.75-7a1.2,1.2,0,0,1,1.69-.16Z"/><path class="cls-124" d="M581.9,206.85l1.85-.15c4.37-1.69,7.37,2.76,11.42,2.51a1.21,1.21,0,0,1,.37,1.12c-.09.39-.18.59-.29.59l-6.35,3.38C587.7,210.51,584.44,209.06,581.9,206.85Z"/><path class="cls-125" d="M452.9,252.66c-2.63,3.53-6.49,2.78-10.1,2.89-1.54-.16-3.38.56-4.32-1.42-.49-.32-.65-.63-.48-.94s.35-.44.52-.44c5,1.84,9.75.94,14.36-1.37.51.28.69.56.52.85S453.09,252.66,452.9,252.66Z"/><path class="cls-126" d="M558.9,260l16.77.07-3.53,2.36a8.35,8.35,0,0,1-8.51.07C562.52,260.84,559.9,261.92,558.9,260Z"/><path class="cls-127" d="M589.46,232.55c-2.89-3.46-.69-7.55-1.38-11.29,1.22-1.09,2.54-1.92,4.3-1.51.33,2.49-2.14,3.61-2.92,6.07Z"/><path class="cls-113" d="M494.61,245.48h1.29c.29,3.46.79,7-1.07,10.18l-.34-.15C491,252.13,489.07,248.77,494.61,245.48Z"/><path class="cls-128" d="M549.29,231.14a1.91,1.91,0,0,0-1.51-1.45c-.29-3.25,1-6,2.59-8.73a1.5,1.5,0,0,1,2,.07c.61,3.13-1.27,5.76-1.75,8.67A1.74,1.74,0,0,1,549.29,231.14Z"/><path class="cls-129" d="M572.29,199.72a1.66,1.66,0,0,0,1.4,1.3,1.17,1.17,0,0,1,.45,1.07q-.09.6-.24.6a1.21,1.21,0,0,1-1.66-.26c-3.26-.17-5.44,3.13-8.77,2.77C565.2,201.43,568.73,200.55,572.29,199.72Z"/><path class="cls-130" d="M547.8,244.05a1.94,1.94,0,0,0,1.48-1.45A20.09,20.09,0,0,1,552,253C548.61,250.94,547.9,247.66,547.8,244.05Z"/><path class="cls-131" d="M552.12,221.08l-1.75-.12c.85-3.23,2.12-6.23,4.77-8.45.41-.64.84-.66,1.29,0q-.72,2.87-1.46,5.73c-1.38.51-1.41,1.68-1.42,2.87C553.08,221.79,552.6,221.76,552.12,221.08Z"/><path class="cls-130" d="M438.54,252.75v1.38c-3.9-.51-8.09-.6-8.52-6C433.62,248.21,434.83,252.79,438.54,252.75Z"/><path class="cls-132" d="M556.43,212.47q-.64,0-1.29,0c2-3.4,4.1-6.65,8.43-7.36A19.7,19.7,0,0,1,556.43,212.47Z"/><path class="cls-133" d="M452.9,252.66v-1.28l4.4-2.73c1.57,1-.71,3.76,1.92,4.3-.88,1.17-1.7,2.43-3.44,2.36C455.84,253.34,454.77,252.58,452.9,252.66Z"/><path class="cls-134" d="M588.24,199.38H573.5a2.58,2.58,0,0,0,.22-1.06,23.62,23.62,0,0,1,14.31,0A2.42,2.42,0,0,0,588.24,199.38Z"/><path class="cls-135" d="M588,198.32a90,90,0,0,0-14.31,0A15.58,15.58,0,0,1,588,198.32Z"/><path class="cls-136" d="M595.25,210.92v-1.34c-.31-1.9-1.13-3.8,0-5.71v-1.36c2,.51,3.16,1.9,4.42,3.89C598.69,208.25,599.32,211.56,595.25,210.92Z"/><path class="cls-137" d="M429.63,247l-2,.81c-1.35-2.65-3.26-5-3.45-8a.78.78,0,0,1,1.08-.21,1,1,0,0,1,.21.21l1.41,1.5Q428.25,244.1,429.63,247Z"/><path class="cls-138" d="M628.56,259.82a13.55,13.55,0,0,1,9.75,1.22C635,261.24,631.5,262.73,628.56,259.82Z"/><path class="cls-139" d="M432.43,261.42h10.71a1.81,1.81,0,0,0-.35,1,11.82,11.82,0,0,1-10,0A2.12,2.12,0,0,0,432.43,261.42Z"/><path class="cls-140" d="M432.83,262.46h10C439,264.83,436.74,264.84,432.83,262.46Z"/><path class="cls-141" d="M599.51,219.69l-6.11-.11c2.32-1.48,4.7-2.77,7.6-2.54l-.24,2.52C600.42,220.35,600,220.36,599.51,219.69Z"/><path class="cls-140" d="M563.67,262.47l8.51-.07C569.37,265.2,566.53,265.08,563.67,262.47Z"/><path class="cls-142" d="M559.28,239.76c.22-1.45-.56-3.17,1.14-4.23.15,1.34.29,2.68.44,4-.26,1.13,0,2.51-1.52,3Z"/><path class="cls-143" d="M467.53,244.15c-1.32-.09-2.69-.09-3.2-1.69.61-1.19,1.56-1.85,2.71-.93C467.74,242.09,469.17,243,467.53,244.15Z"/><path class="cls-144" d="M379.55,277.07h-1.39v-5.71l.06-1.58C380.82,271.78,379.31,274.59,379.55,277.07Z"/><path class="cls-145" d="M556.44,255.53v2.6a5.08,5.08,0,0,1-4.11-4C553.9,253.84,555.06,255.06,556.44,255.53Z"/><path class="cls-40" d="M378.37,258.1c1.56,2.83.95,5.88.93,8.86C377.07,264.21,378.33,261.09,378.37,258.1Z"/><path class="cls-146" d="M482.73,150.4c3-2.56,6.78-3.36,10.47-4.31,3,1.41,2.79,4.16,2.81,6.77.19,24.47,0,48.94-.81,73.39-3.85,1.29-3.5-2-3.87-3.87-.72-3.76-.36-7.62-.37-11.44v-48c0-2.85.25-5.75-1-8.51-1.72-2.18-4.9-1.75-6.8-3.67Z"/><path class="cls-147" d="M494.39,226.68q.11-37.58.26-75.16a13.71,13.71,0,0,0-1.45-5.43c.51-1.35,1.7-1,2.72-1.08,1.82,5.55.77,11.27.73,16.88-.1,14.45.84,28.91-.49,43.34.49,5.7-1.44,11.56,1.12,17.13.73,2.18-1.8,3.72-1.15,5.89a2.05,2.05,0,0,0-.19,1.17C493.34,229.68,493.82,228.21,494.39,226.68Z"/><path class="cls-148" d="M446.79,206.83h-.59l-.49-.31c-1.08-1.07-2.64-1.29-3.83-2.17s-2.82-1.78-2-3.83a8.2,8.2,0,0,1,3.73-1.64c1.81,0,3.61-.08,5.42.06,2.64,1.71,5.83.94,8.63,1.91.73.16.92.72,1,1.35,2,1.64,3.33,3.43,1.66,6.06-1.87.81-3.36,2.49-6.09,2.36C451.9,209.71,449.9,207.12,446.79,206.83Z"/><path class="cls-149" d="M440,201l2.88,2.86c-2,2.19-4.67,1.53-7.12,1.84a4.08,4.08,0,0,0-1.49,1.08c-2.81,2.3-6.94,3.14-8.11,7.27-1.16.35-1.75,2.2-3.4,1.32,0-1.19-.05-2.39-1.46-2.89a2.19,2.19,0,0,1-.06-3,17.15,17.15,0,0,1,10.18-8.23C434.27,202,437.05,198.79,440,201Z"/><path class="cls-150" d="M496.16,205.23,495.9,145c2.05.89,1.54,2.73,1.55,4.31v52.14C497.48,202.86,497.75,204.37,496.16,205.23Z"/><path class="cls-151" d="M421.21,209.42l.06,3c-4.82,4.25-6.63,9.89-7.14,16-.27,3.25-.06,6.55-.07,9.83a1.25,1.25,0,0,1-1.76-.1,1,1,0,0,1-.15-.2c-.69-3.68.49-7.47-.7-11.12C412.59,219.89,414.9,213.56,421.21,209.42Z"/><path class="cls-152" d="M624,166.5c-.19,1.48.57,3.22-1.18,4.27-.4-3-.81-5.94-1.22-8.93,2.85-2.14,6.32-2.64,9.57-3.68a1.64,1.64,0,0,1,.28,2.3,1.48,1.48,0,0,1-.28.28C628.08,161.77,624.26,161.91,624,166.5Z"/><path class="cls-153" d="M684.78,157.93l-.38,15.78c-1.59-.77-1.44-2.24-1.44-3.64v-19c0-1.21.07-2.35,1.21-3.09l.5,2.84A15.13,15.13,0,0,1,684.78,157.93Z"/><path class="cls-154" d="M446.79,206.83c3.17-.79,5.47,1,7.22,2.9l6.06-1.58a1.28,1.28,0,0,1,1.81.07,1.24,1.24,0,0,1,.14.18,25.68,25.68,0,0,1-8,4.45Z"/><path class="cls-155" d="M631.19,160.74v-2.58c1.88-.22,3.32-1.95,5.79-1.47,3,3.18-.27,6.5-.29,9.78-2.47-.06-2-1.37-1.21-2.83-.06-1.15-.11-2.31-.14-3.14C633.5,158.72,632.48,160.67,631.19,160.74Z"/><path class="cls-156" d="M440,201a9,9,0,0,0-4.85,1c-1.29.73-2.75.82-3.73-.75,3-2.13,6.59-2.32,10.06-2.85a2.53,2.53,0,0,1,1.41,1.22C442.34,200.94,441.16,201,440,201Z"/><path class="cls-157" d="M424.29,219.71c2.12,4.74,1.87,9.5.16,14.28a3.51,3.51,0,0,1-1.64-3c.1-3.51-.66-7.07.61-10.51Z"/><path class="cls-158" d="M634,180.9a2.41,2.41,0,0,1-1-3.51c1.5-2.57.91-5.31,1.09-8,2.84-.11,2.12,1.54,1.54,3.12C635.81,175.46,635.81,178.36,634,180.9Z"/><path class="cls-159" d="M462,208.4l-1.95-.25c.44-2.18-.63-4-1.36-6a6,6,0,0,1,5.63,4.66C463.9,208.2,462.9,208.28,462,208.4Z"/><path class="cls-160" d="M434.31,205.57c2.27-3.45,5.75-.9,8.54-1.73,1.86-.07,2.93.7,2.86,2.68h-1.45C440.9,206.8,437.52,207.05,434.31,205.57Z"/><path class="cls-161" d="M424,231.23c.16.92.33,1.84.49,2.76-.51,2.06,1.65,3.67,1,5.76h-1.29c-2.17-1.31-1.39-4.09-2.86-5.75,1-.83.53-2.22,1.22-3.16A1.06,1.06,0,0,1,424,231.23Z"/><path class="cls-162" d="M411.45,226.89c2.46,3.59.61,7.63,1.19,11.42a.74.74,0,0,1-1,.21.84.84,0,0,1-.21-.21A31.31,31.31,0,0,1,411.45,226.89Z"/><path class="cls-163" d="M635.62,172.52c-.2-1.19,0-2.58-1.54-3.12.35-2-1-4.3,1.4-5.76,0,1.09,0,2.24,1.21,2.83C636.9,168.58,637.06,170.69,635.62,172.52Z"/><path class="cls-164" d="M434.31,205.57c3.34.11,6.84-1.57,9.95.94v.59a20.37,20.37,0,0,1-8.48-.12l-1.52-.22C434.27,206.36,434.3,206,434.31,205.57Z"/><path class="cls-165" d="M457.71,200.85c-3.12.2-6.28.59-9.11-1.3-.47-.28-.63-.56-.48-.85s.31-.44.46-.44C451.64,199.08,455,198.88,457.71,200.85Z"/><path class="cls-157" d="M435.76,207a22.81,22.81,0,0,1,8.48.12C441.39,208.75,438.56,209,435.76,207Z"/><path class="cls-166" d="M411.39,238.31h2.67l.06,4.29-1.75.1C410.9,241.49,411.22,239.88,411.39,238.31Z"/><path class="cls-167" d="M448.58,198.26v1.29H442.9a1.63,1.63,0,0,1-1.41-1.22A16,16,0,0,1,448.58,198.26Z"/><path class="cls-168" d="M422.73,215.35l3.4-1.32c-.61,1.89-1.22,3.79-1.84,5.68l-.29-.17a1.07,1.07,0,0,1-1.49.34l-.06,0a1.29,1.29,0,0,1,.26-1.65Z"/><path class="cls-67" d="M684.78,157.93a22.06,22.06,0,0,1-.13-7.16c2.29,2.07.74,4.77,1.18,7.15h-1.05Z"/><path class="cls-169" d="M599.51,219.69a8.68,8.68,0,0,0,1.25-.13V250h-1.25Z"/><path class="cls-170" d="M422.71,218.19v1.52a20.51,20.51,0,0,1,0,11.31c-.09,1.19,0,2.47-1.49,3C422.08,228.75,419.51,223.22,422.71,218.19Z"/><path class="cls-100" d="M552.12,221.08h1.43a12.28,12.28,0,0,1-2.88,8.63C550.06,226.64,551.76,224,552.12,221.08Z"/><path class="cls-171" d="M626.9,254.09V208.25c1.53-2.89,3.76-3.5,6-4.06,2,1.63,1.16,3.67,1.17,5.44.08,11.18.18,22.37,0,33.56-.09,4.89.39,9.42,4.19,13.22-5.19,4.36-7.84-.9-11.31-2.31Z"/><path class="cls-172" d="M635.47,202.43c2.63,1.7,1.39,4.35,1.41,6.54.12,13.6.06,27.2.06,40.79-2.58-1.73-1.35-4.36-1.37-6.56C635.44,229.61,635.49,216,635.47,202.43Z"/><path class="cls-173" d="M494.39,226.68c.38,1,0,2.39,1.55,2.74,1.19,5.49-2,10.62-1.33,16.06-2.91,3.32-1.4,6.67-.09,10-3.68.67-6.4,4-11.39,3.82V150.73c2.65.39,5.14-.41,7.45-1.19,3.62,1.81,2.52,5,2.53,7.68.07,20.94,0,41.88.1,62.81C493.22,222.24,492.06,224.82,494.39,226.68Z"/><path class="cls-174" d="M595.24,203.87c.56,1.91,3,3.81,0,5.71l-4.63,1.18c-2.55-.87-3.59-4.37-6.87-4.06,0-2-1-2.91-3.08-2.86-2.81.07-5.62,0-8.43,0v-1.42h1.44a38.24,38.24,0,0,1,15.8,0C590.9,204.84,593.3,203.48,595.24,203.87Z"/><path class="cls-109" d="M589.48,202.42h-15.8V201C578.9,201.79,584.46,199.22,589.48,202.42Z"/><path class="cls-175" d="M422.78,231V219.69a6.7,6.7,0,0,0,1.26-.17v11.69Z"/></svg>