<svg id="Layer_1" data-name="Layer 1" xmlns="http://www.w3.org/2000/svg" viewBox="0 0 720 720"><defs><style>.cls-1{fill:#8bc400;}.cls-2{fill:#fefefe;}.cls-3{fill:#fefefd;}.cls-4{fill:#666860;}.cls-5{fill:#fdfdfc;}.cls-6{fill:#676a5e;}.cls-7{fill:#8ac202;}.cls-8{fill:#8dc505;}</style></defs><path class="cls-1" d="M352.8,1.63h13.5c.39.3.73.76,1.17.86,1.23.3,2.71-.53,3.7.86,4.3.17,7.53,3,11,4.91,5.5,3,10.87,6.37,16.31,9.55,2.4,1.41,5,2.55,7.33,4,5,3.08,10,6.13,15.22,8.89a80.43,80.43,0,0,1,8,4.48c6.35,4.4,13.23,7.89,19.93,11.67,4.73,2.68,9.36,5.54,14.14,8.16,5.5,3,10.89,6.34,16.29,9.59,2.39,1.43,5.07,2.4,7.33,4a141.92,141.92,0,0,0,13.41,7.86c4.77,2.62,9.47,5.4,14.12,8.17,6.38,3.8,12.78,7.63,19.2,11.35,6.87,4,13.65,8.18,20.71,11.85a53.65,53.65,0,0,1,7,3.71c6.17,4.44,13.05,7.65,19.52,11.56,4.78,2.88,9.77,5.43,14.54,8.27,5.53,3.31,11.1,6.54,16.68,9.75,2.42,1.39,4.9,2.67,7.3,4.1,4.58,2.71,9,5.76,13.72,8.18s9.17,5.31,13.81,7.86c4.4,2.41,8.69,5.16,13.06,7.66a36.61,36.61,0,0,1,10.66,9.68,16.7,16.7,0,0,1,2.3,4c2.28,5.67,4,11.46,4,17.67q0,156.8,0,313.57c0,5,.36,9.93-.71,15-1,4.47-2,8.63-4.56,12.56a48.62,48.62,0,0,1-12.86,13.44c-2.51,1.78-5.22,3.28-7.89,4.82-3,1.74-6.14,3.32-9.14,5.09-4.59,2.7-9.08,5.58-13.69,8.23s-9.38,5-13.9,7.7c-5.14,3.14-10.29,6.25-15.55,9.18-2.68,1.49-5.39,2.92-8,4.47-4.48,2.61-8.82,5.45-13.39,7.89-4.79,2.58-9.37,5.52-14.14,8.14-5.51,3-10.89,6.35-16.3,9.6-2.38,1.43-5.06,2.4-7.33,4a141.77,141.77,0,0,1-13.4,7.86c-4.77,2.62-9.37,5.53-14.15,8.14-5.63,3.08-11,6.62-16.69,9.73-2.44,1.35-4.89,2.7-7.28,4.12-4.58,2.73-9.08,5.59-13.69,8.24s-9.41,4.9-13.89,7.71c-5.22,3.29-10.62,6.26-15.89,9.47-2.61,1.6-5.38,3-8,4.48-4.73,2.73-9.36,5.62-14.14,8.25-4.53,2.49-8.81,5.37-13.44,7.71s-8.77,5-13,7.64c-5.93,3.73-12.37,6.59-18.07,10.71a13.66,13.66,0,0,1-2.74,1c-2.23.92-4.77,1.07-6.72,2.69h-18A2.22,2.22,0,0,0,348,719.8a6.19,6.19,0,0,1-2.46-.56c-4.46-2.28-8.95-4.51-13.29-7-4.75-2.72-9.3-5.77-14-8.53-3-1.74-6.36-2.92-9.21-4.86-6.4-4.34-13.25-7.87-20-11.65-4.73-2.67-9.37-5.53-14.14-8.16-5.5-3-10.89-6.35-16.29-9.59-2.38-1.43-5-2.5-7.35-4-5-3.1-10-6.15-15.21-8.89-2.84-1.5-5.62-3.13-8.38-4.77-4.58-2.72-9.07-5.58-13.69-8.24s-9.4-4.9-13.89-7.71c-5.35-3.34-10.82-6.47-16.27-9.63-2.28-1.32-4.86-2.19-7-3.72-6.18-4.45-13.05-7.66-19.53-11.56-4.78-2.88-9.83-5.37-14.53-8.29-6.43-4-13.12-7.55-19.57-11.5-5.49-3.37-11-6.76-16.64-9.81-7-3.79-13.69-8.12-20.73-11.83a61.52,61.52,0,0,1-7.34-4c-4.36-3.11-9.14-5.49-13.75-8.16s-9.21-5.19-12.8-9.27c-5.35-6.06-8.71-13-8.72-21.13q0-164.89-.08-329.79c0-6.44,2.35-11.79,5.54-17.08,2-3.36,5.09-5.7,7.68-8.51A25.21,25.21,0,0,1,64,166.3a81.34,81.34,0,0,0,8.76-4.89c6.31-4.2,13.08-7.58,19.58-11.42,4.68-2.78,9.53-5.3,14.16-8.11,5.52-3.33,11.1-6.54,16.69-9.75,2.41-1.39,4.9-2.67,7.29-4.1,4.58-2.71,9-5.76,13.72-8.18s9.16-5.32,13.82-7.84c5.53-3,10.87-6.39,16.31-9.57,2.4-1.41,4.94-2.57,7.33-4,4.7-2.8,9.18-6,14.05-8.47s9-5.54,13.84-7.83c4.66-2.21,8.86-5.37,13.42-7.81,4.8-2.57,9.42-5.48,14.14-8.16,5-2.83,10-5.56,14.87-8.71,5.39-3.52,11.21-6.32,16.67-9.77,2.56-1.62,5.31-3.07,7.95-4.62,2.9-1.69,5.94-3.1,8.76-5a110.17,110.17,0,0,1,13-7.59c4.79-2.32,9.09-5.44,13.84-7.83s9.11-5.51,13.73-8.17,9.47-4.81,13.86-7.74a25.31,25.31,0,0,1,12.21-4.27C352.35,2.47,352.56,1.93,352.8,1.63ZM491.4,262.35c-3.43-4.55-8.35-6.13-12.59-8.67-3.92-2.36-8.35-3.93-12.11-6.5a73.39,73.39,0,0,0-8.46-4.63c-2.13-1.09-2.57-.82-3.77,1.1a8.11,8.11,0,0,0-.87,4.59v75.64c-1.32-.1-2.73.23-3.27-.3-2.79-2.78-6.87-3.25-9.81-5.87-1.41-1.27-3.87-1.81-5.87-1.84a9,9,0,0,0-5,1.86c-5.14,3.71-10.89,6.38-16.26,9.67-2.37,1.45-5.05,2.42-7.33,4-6.25,4.29-13.05,7.61-19.58,11.4-2.75,1.6-5.57,3.09-7.58,6,0,19.63,0,39.56,0,59.5a6.57,6.57,0,0,0,4,6.47,91.43,91.43,0,0,1,8.35,4.77c5.18,3.38,10.67,6.19,15.93,9.41,2.49,1.52,5.27,2.59,7.69,4.2,5,3.33,10.34,6.18,15.58,9.14a9.25,9.25,0,0,0,9.74-.14c4.59-2.64,9.12-5.37,13.83-7.82a54.93,54.93,0,0,0,6.54-3.74c4.38-3.09,9.18-5.42,13.75-8.16s9.29-5.1,13.85-7.78a7.85,7.85,0,0,0,2.5-2.9c.93-1.59.76-3.09.76-4.65Q491.41,334.71,491.4,262.35ZM341.1,379.2V350a6.56,6.56,0,0,0-2.68-5.36A109.8,109.8,0,0,0,326.83,338c-4.84-2.51-9.44-5.43-14.14-8.13-5.46-3.13-11.09-6-16.29-9.59-2.65-1.82-5.66-3-8.38-4.78a6.69,6.69,0,0,0-7.09-.07c-2.57,1.78-5.41,3-8,4.71-5.49,3.57-11.28,6.75-17,9.9-7,3.84-13.66,8.14-20.7,11.84a23.31,23.31,0,0,0-3.95,2.36,8.93,8.93,0,0,0-3.62,7.5q.23,27.19,0,54.4a8,8,0,0,0,4.21,7.58c2.85,1.47,5.5,3.29,8.39,4.68,4.65,2.24,8.85,5.28,13.46,7.64s9.12,5.48,13.71,8.17c3.62,2.12,7.36,4,10.88,6.32s7.44,3.29,11.41.38c2.13-1.56,4.76-2.44,6.91-3.86,6.2-4.12,12.79-7.58,19.19-11.33,6.85-4,13.65-8.14,20.68-11.86a8,8,0,0,0,4.66-7.64C341,397.18,341.1,388.19,341.1,379.2Zm263.51,7.4c3.87.78,6.24-.87,8.67-2.4,4.76-3,9.5-6,14.31-8.89,3.35-2,6.9-3.68,10.18-5.79a8.64,8.64,0,0,0,3.91-7.33c.09-3.75.07-7.5,0-11.25a7.86,7.86,0,0,0-4.11-7.17c-2.91-1.4-5.53-3.25-8.4-4.67a71.15,71.15,0,0,1-8.82-4.75c-5-3.39-10.45-6-15.57-9.14s-10.08-6-15.21-8.88a9.19,9.19,0,0,0-4.76-1.38,10.41,10.41,0,0,0-5,2c-5,3.63-10.64,6.24-15.89,9.46-2.37,1.45-5.11,2.31-7.36,3.89-6.22,4.36-13,7.72-19.54,11.52-2.89,1.67-5.83,3.17-7.84,6.09v62.41c1.2,1.32,2,2.83,3.24,3.47,7.59,3.89,14.71,8.59,22.18,12.68,5.38,2.94,10.89,5.73,16,9.09,2.71,1.79,5.72,3,8.34,5,3.88,3,7.72,2.84,11.83.31.74-.46,1.21-1.42,2-1.75,7.33-3.13,13.9-7.66,21-11.24,1.61-.81,3.31-1.45,4.89-2.31a3,3,0,0,0,.62-4.82,11.41,11.41,0,0,0-2.08-1.46c-2.85-1.81-5.61-3.79-8.58-5.36-6.43-3.4-12.61-7.21-19-10.75-5.35-3-10.65-6.1-16-9.1-2.2-1.23-4.38-2.48-6.57-3.73v-21a12.58,12.58,0,0,1,6-4.36,15.39,15.39,0,0,0,2.5-1.55c2.78-1.6,5.62-3.12,8.35-4.8a2.57,2.57,0,0,1,3.12,0c3.11,1.84,6.4,3.38,9.55,5.15,2.44,1.38,4.8,2.92,7.31,4.46,0,4.3-.07,8.63,0,13A48.4,48.4,0,0,0,604.61,386.6ZM115.2,368.42a38.74,38.74,0,0,1,6.35-5.15c2.72-1.77,5.81-2.85,8.38-4.94a5.3,5.3,0,0,1,6.75-.33c1,.74,2.2,1.21,3.28,1.85,2.54,1.48,5,3,7.61,4.45,1.51.82,3.47,1.28,4.12,2.89a14.91,14.91,0,0,1,1.37,5.77c-.12,12.28-.06,24.58-.06,36.82a22,22,0,0,0,2.94,2.87c2,1.31,4.16,2.29,6.16,3.56,5.68,3.58,12.05,6,17.39,10.16,2.39.27,3.79,2.34,5.88,3.2,3,1.23,4.52.36,4.52-2.81,0-26.68,0-53.37,0-80.35a61.49,61.49,0,0,0-5.77-4.43c-3-1.78-6.3-3-9.21-4.87-5.31-3.42-10.85-6.42-16.25-9.67-2.64-1.59-5.33-3.07-8-4.59-4.85-2.76-9.76-5.44-14.54-8.33a3.72,3.72,0,0,0-3.67-.26,53.1,53.1,0,0,0-5.57,2.85c-5.32,3.1-10.56,6.33-15.91,9.39-2.89,1.66-6.11,2.79-8.85,4.65-5.7,3.86-11.86,6.91-17.77,10.39-2.61,1.54-5.15,3.06-7,5.36v73.52c0,2.25,0,4.5,0,6.75.06,2.42,1.46,3.48,3.77,2.83a4.83,4.83,0,0,0,2.22-1.09c2.3-2.46,5.58-3.29,8.3-5.06,5.23-3.42,11-6.08,16.43-9.14,5.86-3.27,7.07-5.42,7.07-12.1Zm480.59,3.36a6.2,6.2,0,0,1-1.45-.39c-2.4-1.45-4.83-2.85-7.12-4.46-1.07-.76-1.84-1.16-3.1-.41-2.63,1.56-5.41,2.87-8,4.5a3.79,3.79,0,0,0-2,3.65c.22,3.39.06,6.8.06,9.93,3.1,1.8,6,3.25,8.59,5.07a3.41,3.41,0,0,0,4,.3c3-1.71,6-3.5,9-5.22Z" transform="translate(0 -1.63)"/><path class="cls-2" d="M368.1,721.63c1.95-1.62,4.49-1.77,6.72-2.69a13.66,13.66,0,0,0,2.74-1c5.7-4.12,12.14-7,18.07-10.71,4.26-2.68,8.54-5.37,13-7.64s8.91-5.22,13.44-7.71c4.78-2.63,9.41-5.52,14.14-8.25,2.65-1.53,5.42-2.88,8-4.48,5.27-3.21,10.67-6.18,15.89-9.47,4.48-2.81,9.3-5.06,13.89-7.71s9.11-5.51,13.69-8.24c2.39-1.42,4.84-2.77,7.28-4.12,5.65-3.11,11.06-6.65,16.69-9.73,4.78-2.61,9.38-5.52,14.15-8.14a141.77,141.77,0,0,0,13.4-7.86c2.27-1.59,5-2.56,7.33-4,5.41-3.25,10.79-6.57,16.3-9.6,4.77-2.62,9.35-5.56,14.14-8.14,4.57-2.44,8.91-5.28,13.39-7.89,2.65-1.55,5.36-3,8-4.47,5.26-2.93,10.41-6,15.55-9.18,4.52-2.75,9.31-5,13.9-7.7s9.1-5.53,13.69-8.23c3-1.77,6.12-3.35,9.14-5.09,2.67-1.54,5.38-3,7.89-4.82a48.62,48.62,0,0,0,12.86-13.44c2.6-3.93,3.6-8.09,4.56-12.56,1.07-5,.71-10,.71-15q.07-156.78,0-313.57c0-6.21-1.76-12-4-17.67a16.7,16.7,0,0,0-2.3-4,36.61,36.61,0,0,0-10.66-9.68c-4.37-2.5-8.66-5.25-13.06-7.66-4.64-2.55-9.09-5.44-13.81-7.86s-9.14-5.47-13.72-8.18c-2.4-1.43-4.88-2.71-7.3-4.1-5.58-3.21-11.15-6.44-16.68-9.75-4.77-2.84-9.76-5.39-14.54-8.27-6.47-3.91-13.35-7.12-19.52-11.56a53.65,53.65,0,0,0-7-3.71c-7.06-3.67-13.84-7.86-20.71-11.85-6.42-3.72-12.82-7.55-19.2-11.35-4.65-2.77-9.35-5.55-14.12-8.17a141.92,141.92,0,0,1-13.41-7.86c-2.26-1.59-4.94-2.56-7.33-4C474,61.36,468.62,58,463.12,55c-4.78-2.62-9.41-5.48-14.14-8.16-6.7-3.78-13.58-7.27-19.93-11.67a80.43,80.43,0,0,0-8-4.48c-5.2-2.76-10.22-5.81-15.22-8.89-2.36-1.46-4.93-2.6-7.33-4-5.44-3.18-10.81-6.51-16.31-9.55-3.46-1.92-6.69-4.74-11-4.91-1-1.39-2.47-.56-3.7-.86-.44-.1-.78-.56-1.17-.86H720v720Z" transform="translate(0 -1.63)"/><path class="cls-3" d="M352.8,1.63c-.24.3-.45.84-.72.86a25.31,25.31,0,0,0-12.21,4.27c-4.39,2.93-9.27,5.1-13.86,7.74s-9,5.78-13.73,8.17-9,5.51-13.84,7.83a110.17,110.17,0,0,0-13,7.59c-2.82,1.88-5.86,3.29-8.76,5-2.64,1.55-5.39,3-7.95,4.62-5.46,3.45-11.28,6.25-16.67,9.77-4.82,3.15-9.89,5.88-14.87,8.71-4.72,2.68-9.34,5.59-14.14,8.16-4.56,2.44-8.76,5.6-13.42,7.81-4.81,2.29-9.09,5.44-13.84,7.83s-9.35,5.67-14.05,8.47c-2.39,1.43-4.93,2.59-7.33,4-5.44,3.18-10.78,6.57-16.31,9.57-4.66,2.52-9.1,5.42-13.82,7.84s-9.14,5.47-13.72,8.18c-2.39,1.43-4.88,2.71-7.29,4.1-5.59,3.21-11.17,6.42-16.69,9.75-4.63,2.81-9.48,5.33-14.16,8.11-6.5,3.84-13.27,7.22-19.58,11.42A81.34,81.34,0,0,1,64,166.3a25.21,25.21,0,0,0-7.68,5.33c-2.59,2.81-5.65,5.15-7.68,8.51-3.19,5.29-5.55,10.64-5.54,17.08q.12,164.9.08,329.79c0,8.17,3.37,15.07,8.72,21.13,3.59,4.08,8.19,6.61,12.8,9.27s9.39,5.05,13.75,8.16a61.52,61.52,0,0,0,7.34,4c7,3.71,13.72,8,20.73,11.83,5.64,3,11.15,6.44,16.64,9.81,6.45,4,13.14,7.5,19.57,11.5,4.7,2.92,9.75,5.41,14.53,8.29,6.48,3.9,13.35,7.11,19.53,11.56,2.12,1.53,4.7,2.4,7,3.72,5.45,3.16,10.92,6.29,16.27,9.63,4.49,2.81,9.3,5.07,13.89,7.71s9.11,5.52,13.69,8.24c2.76,1.64,5.54,3.27,8.38,4.77,5.2,2.74,10.22,5.79,15.21,8.89,2.36,1.47,5,2.54,7.35,4,5.4,3.24,10.79,6.56,16.29,9.59,4.77,2.63,9.41,5.49,14.14,8.16,6.7,3.78,13.55,7.31,20,11.65,2.85,1.94,6.21,3.12,9.21,4.86,4.73,2.76,9.28,5.81,14,8.53,4.34,2.49,8.83,4.72,13.29,7a6.19,6.19,0,0,0,2.46.56,2.22,2.22,0,0,1,2.13,1.83H0V1.63Z" transform="translate(0 -1.63)"/><path class="cls-4" d="M491.4,262.35q0,72.31,0,144.78c0,1.56.17,3.06-.76,4.65a7.85,7.85,0,0,1-2.5,2.9c-4.56,2.68-9.31,5.06-13.85,7.78s-9.37,5.07-13.75,8.16a54.93,54.93,0,0,1-6.54,3.74c-4.71,2.45-9.24,5.18-13.83,7.82a9.25,9.25,0,0,1-9.74.14c-5.24-3-10.55-5.81-15.58-9.14-2.42-1.61-5.2-2.68-7.69-4.2-5.26-3.22-10.75-6-15.93-9.41a91.43,91.43,0,0,0-8.35-4.77,6.57,6.57,0,0,1-4-6.47c0-19.94,0-39.87,0-59.5,2-2.95,4.83-4.44,7.58-6,6.53-3.79,13.33-7.11,19.58-11.4,2.28-1.57,5-2.54,7.33-4,5.37-3.29,11.12-6,16.26-9.67a9,9,0,0,1,5-1.86c2,0,4.46.57,5.87,1.84,2.94,2.62,7,3.09,9.81,5.87.54.53,1.95.2,3.27.3V248.24a8.11,8.11,0,0,1,.87-4.59c1.2-1.92,1.64-2.19,3.77-1.1a73.39,73.39,0,0,1,8.46,4.63c3.76,2.57,8.19,4.14,12.11,6.5C483.05,256.22,488,257.8,491.4,262.35ZM415.8,370c0,5.87,0,11.56,0,17.24a4.73,4.73,0,0,0,2.79,4.64c2.35,1.23,4.55,2.74,6.84,4.08,2.77,1.61,5.6,3.12,8.34,4.78a2.25,2.25,0,0,0,2.77,0,139.33,139.33,0,0,1,14.41-8.55,4.32,4.32,0,0,0,2.72-4.49c-.2-4.18,0-8.38-.07-12.57,0-2.06.33-4.34-.45-6.09-.55-1.24-2.73-1.75-4.16-2.62-4.77-2.89-9.53-5.8-14.14-8.61C428.45,362.35,421.22,364.9,415.8,370Z" transform="translate(0 -1.63)"/><path class="cls-5" d="M341.1,379.2c0,9-.08,18,0,27a8,8,0,0,1-4.66,7.64c-7,3.72-13.83,7.86-20.68,11.86-6.4,3.75-13,7.21-19.19,11.33-2.15,1.42-4.78,2.3-6.91,3.86-4,2.91-7.8,2-11.41-.38s-7.26-4.2-10.88-6.32c-4.59-2.69-9-5.75-13.71-8.17s-8.81-5.4-13.46-7.64c-2.89-1.39-5.54-3.21-8.39-4.68a8,8,0,0,1-4.21-7.58q.2-27.19,0-54.4a8.93,8.93,0,0,1,3.62-7.5,23.31,23.31,0,0,1,3.95-2.36c7-3.7,13.73-8,20.7-11.84,5.74-3.15,11.53-6.33,17-9.9,2.6-1.68,5.44-2.93,8-4.71a6.69,6.69,0,0,1,7.09.07c2.72,1.76,5.73,3,8.38,4.78,5.2,3.58,10.83,6.46,16.29,9.59,4.7,2.7,9.3,5.62,14.14,8.13a109.8,109.8,0,0,1,11.59,6.67A6.56,6.56,0,0,1,341.1,350V379.2Zm-56.6-21.27c-6,3.44-11.64,6.74-17.35,10a2.82,2.82,0,0,0-1.68,2.74q.11,9,0,18a2.84,2.84,0,0,0,1.69,2.74c2.18,1.27,4.24,2.74,6.43,4,3.26,1.87,6.62,3.57,9.87,5.44a2.31,2.31,0,0,0,2.78,0,148.19,148.19,0,0,1,14.41-8.57,16.66,16.66,0,0,0,2.65-2.1c0-6.44,0-12.73,0-19a3.09,3.09,0,0,0-1.69-3.19C295.94,364.66,290.3,361.31,284.5,357.93Z" transform="translate(0 -1.63)"/><path class="cls-4" d="M604.61,386.6a48.4,48.4,0,0,1-.68-5.39c-.1-4.33,0-8.66,0-13-2.51-1.54-4.87-3.08-7.31-4.46-3.15-1.77-6.44-3.31-9.55-5.15a2.57,2.57,0,0,0-3.12,0c-2.73,1.68-5.57,3.2-8.35,4.8a15.39,15.39,0,0,1-2.5,1.55,12.58,12.58,0,0,0-6,4.36v21c2.19,1.25,4.37,2.5,6.57,3.73,5.36,3,10.66,6.1,16,9.1,6.34,3.54,12.52,7.35,19,10.75,3,1.57,5.73,3.55,8.58,5.36a11.41,11.41,0,0,1,2.08,1.46,3,3,0,0,1-.62,4.82c-1.58.86-3.28,1.5-4.89,2.31-7.08,3.58-13.65,8.11-21,11.24-.77.33-1.24,1.29-2,1.75-4.11,2.53-7.95,2.67-11.83-.31-2.62-2-5.63-3.18-8.34-5-5.11-3.36-10.62-6.15-16-9.09-7.47-4.09-14.59-8.79-22.18-12.68-1.24-.64-2-2.15-3.24-3.47V347.88c2-2.92,4.95-4.42,7.84-6.09,6.53-3.8,13.32-7.16,19.54-11.52,2.25-1.58,5-2.44,7.36-3.89,5.25-3.22,10.87-5.83,15.89-9.46a10.41,10.41,0,0,1,5-2,9.19,9.19,0,0,1,4.76,1.38c5.13,2.84,10.22,5.79,15.21,8.88s10.57,5.75,15.57,9.14a71.15,71.15,0,0,0,8.82,4.75c2.87,1.42,5.49,3.27,8.4,4.67a7.86,7.86,0,0,1,4.11,7.17c.06,3.75.08,7.5,0,11.25a8.64,8.64,0,0,1-3.91,7.33c-3.28,2.11-6.83,3.78-10.18,5.79-4.81,2.9-9.55,5.91-14.31,8.89C610.85,385.73,608.48,387.38,604.61,386.6Z" transform="translate(0 -1.63)"/><path class="cls-4" d="M115.2,368.42v34.19c0,6.68-1.21,8.83-7.07,12.1-5.47,3.06-11.2,5.72-16.43,9.14-2.72,1.77-6,2.6-8.3,5.06A4.83,4.83,0,0,1,81.18,430c-2.31.65-3.71-.41-3.77-2.83,0-2.25,0-4.5,0-6.75V346.9c1.81-2.3,4.35-3.82,7-5.36,5.91-3.48,12.07-6.53,17.77-10.39,2.74-1.86,6-3,8.85-4.65,5.35-3.06,10.59-6.29,15.91-9.39a53.1,53.1,0,0,1,5.57-2.85,3.72,3.72,0,0,1,3.67.26c4.78,2.89,9.69,5.57,14.54,8.33,2.67,1.52,5.36,3,8,4.59,5.4,3.25,10.94,6.25,16.25,9.67,2.91,1.88,6.23,3.09,9.21,4.87a61.49,61.49,0,0,1,5.77,4.43c0,27,0,53.67,0,80.35,0,3.17-1.53,4-4.52,2.81-2.09-.86-3.49-2.93-5.88-3.2-5.34-4.17-11.71-6.58-17.39-10.16-2-1.27-4.19-2.25-6.16-3.56a22,22,0,0,1-2.94-2.87c0-12.24-.06-24.54.06-36.82a14.91,14.91,0,0,0-1.37-5.77c-.65-1.61-2.61-2.07-4.12-2.89-2.58-1.4-5.07-3-7.61-4.45-1.08-.64-2.27-1.11-3.28-1.85a5.3,5.3,0,0,0-6.75.33c-2.57,2.09-5.66,3.17-8.38,4.94A38.74,38.74,0,0,0,115.2,368.42Z" transform="translate(0 -1.63)"/><path class="cls-6" d="M595.79,371.78v13c-3,1.72-6,3.51-9,5.22a3.41,3.41,0,0,1-4-.3c-2.62-1.82-5.49-3.27-8.59-5.07,0-3.13.16-6.54-.06-9.93a3.79,3.79,0,0,1,2-3.65c2.58-1.63,5.36-2.94,8-4.5,1.26-.75,2-.35,3.1.41,2.29,1.61,4.72,3,7.12,4.46A6.2,6.2,0,0,0,595.79,371.78Z" transform="translate(0 -1.63)"/><path class="cls-7" d="M415.8,370c5.42-5.13,12.65-7.68,19-12.19,4.61,2.81,9.37,5.72,14.14,8.61,1.43.87,3.61,1.38,4.16,2.62.78,1.75.43,4,.45,6.09,0,4.19-.13,8.39.07,12.57a4.32,4.32,0,0,1-2.72,4.49,139.33,139.33,0,0,0-14.41,8.55,2.25,2.25,0,0,1-2.77,0c-2.74-1.66-5.57-3.17-8.34-4.78-2.29-1.34-4.49-2.85-6.84-4.08a4.73,4.73,0,0,1-2.79-4.64C415.83,381.59,415.8,375.9,415.8,370Z" transform="translate(0 -1.63)"/><path class="cls-8" d="M284.5,357.93c5.8,3.38,11.44,6.73,17.14,10a3.09,3.09,0,0,1,1.69,3.19c-.07,6.28,0,12.57,0,19a16.66,16.66,0,0,1-2.65,2.1,148.19,148.19,0,0,0-14.41,8.57,2.31,2.31,0,0,1-2.78,0c-3.25-1.87-6.61-3.57-9.87-5.44-2.19-1.25-4.25-2.72-6.43-4a2.84,2.84,0,0,1-1.69-2.74q.11-9,0-18a2.82,2.82,0,0,1,1.68-2.74C272.86,364.67,278.53,361.37,284.5,357.93Z" transform="translate(0 -1.63)"/></svg>