<svg id="Layer_1" data-name="Layer 1" xmlns="http://www.w3.org/2000/svg" viewBox="0 0 720 440.4"><defs><style>.cls-1{fill:#fff;}.cls-2{fill:#fefefe;}.cls-3{fill:#343434;}.cls-4{fill:#333;}.cls-5{fill:#5f5f5f;}.cls-6{fill:#494949;}.cls-7{fill:#71a46d;}.cls-8{fill:#699f64;}.cls-9{fill:#6aa065;}.cls-10{fill:#76af62;}.cls-11{fill:#3e863d;}.cls-12{fill:#71a861;}.cls-13{fill:#6ba35d;}.cls-14{fill:#639a58;}.cls-15{fill:#75b65b;}.cls-16{fill:#6bbe48;}.cls-17{fill:#70ba51;}.cls-18{fill:#56994c;}.cls-19{fill:#659e5a;}.cls-20{fill:#488b44;}.cls-21{fill:#5a9752;}.cls-22{fill:#699f5c;}.cls-23{fill:#58a548;}.cls-24{fill:#3f863e;}.cls-25{fill:#51924b;}.cls-26{fill:#3f873e;}.cls-27{fill:#569452;}.cls-28{fill:#fdfdfd;}.cls-29{fill:#f8faf8;}</style></defs><rect class="cls-1" width="720" height="440.4"/><path class="cls-2" d="M17.14,148.58V10.49H476.57c-.88.69-1.92,1.28-2.16,2.47a13.23,13.23,0,0,0-.12,2.52q0,48.21,0,96.43v3.47L472.07,118a17.08,17.08,0,0,1-2-.71c-2.05-1-4.14-2-6.08-3.24-3.67-2.34-7.47-4.45-11.31-6.49a7.67,7.67,0,0,0-5.32-.24c-2.08.62-3.79,1.9-5.66,2.89-3,1.58-5.78,3.5-8.71,5.18-1.91,1.1-4.07,1.82-5.85,3.09-3.28,2.34-6.93,4-10.31,6.16-1.49.94-3.23,1.5-4.67,2.49-4,2.78-8.4,5-12.66,7.4-3,1.69-6,3.47-9,5.18-3.39,1.93-6.83,3.82-10.14,5.91-2.77,1.75-4.4,3.93-4.39,7.3q0,34.09,0,68.18c0,2.57-.09,5.14,0,7.7a7.06,7.06,0,0,0,3.25,6c3,1.87,6.12,3.59,9.2,5.34s6.13,3.22,9,5.12c1.36.89,2.81,1.54,4.18,2.36,3.37,2,6.61,4.22,10.1,6,3,1.52,5.74,3.51,8.78,5,2.22,1.07,4.32,2.44,6.48,3.66,2.78,1.57,5.46,3.3,8.3,4.79,3.84,2,7.5,4.41,11.27,6.59a6.3,6.3,0,0,0,4.58.49,12.27,12.27,0,0,0,4.09-1.79c4.05-2.78,8.41-5,12.66-7.4,3-1.69,5.95-3.51,9-5.16,3.5-1.92,6.92-4,10.35-6.08,1.52-.91,3.15-1.62,4.67-2.52,3-1.77,5.89-3.67,8.9-5.42,1.9-1.1,4-1.89,5.85-3.07,3.38-2.15,6.9-4.06,10.32-6.14a16.79,16.79,0,0,0,4.09-2.82,10.1,10.1,0,0,0,2.38-7q-.06-92.56,0-185.14a12.32,12.32,0,0,0-1.76-6.42,4.84,4.84,0,0,0-1.18-1.49,25.87,25.87,0,0,0-3.17-2c-2.26-1.2-4.68-2.14-6.81-3.54-2.61-1.72-5.38-3.1-8.11-4.58-2.4-1.31-4.86-2.58-7.19-4-4.51-2.68-9.14-5.12-13.65-7.76-.72-.42-1.76-.32-2.16-1.28H702.86V149.72h-.57c-.34-1.72-1-3.48-2.46-4.35-2.3-1.34-4.57-2.74-6.87-4.08-2.91-1.68-6-3-8.8-4.91s-5.49-3.31-8.28-4.87c-3.09-1.73-6.16-3.52-9.21-5.28-3.53-2-7.06-4.13-10.6-6.17-1.53-.89-3.14-1.65-4.63-2.59-4.06-2.57-8.21-5-12.42-7.25-1.87-1-3.71-2.1-5.51-3.23-2.24-1.41-4.65-1.83-6.94-.56-4.2,2.31-8.35,4.71-12.48,7.15-3.67,2.16-7.3,4.39-11.05,6.4-4.45,2.4-8.69,5.14-13.16,7.49-1.57.82-3.15,1.61-4.67,2.52-3,1.77-5.89,3.67-8.9,5.41-1.9,1.11-4,1.85-5.84,3.08-3.24,2.22-6.73,4-10.1,6-2.71,1.61-4.38,3.73-4.38,7q0,37.93,0,75.87a7.79,7.79,0,0,0,3.94,6.8c3.5,2.25,7.22,4.17,10.82,6.26,4,2.32,8,4.58,12,6.86l12,6.85c4.38,2.51,8.87,4.83,13.2,7.44,3.33,2,6.79,3.81,10.18,5.73,1.78,1,3.49,2.13,5.29,3.1s3.74,2.11,6,2a10.73,10.73,0,0,0,4.25-1.44c1.21-.56,2.29-1.36,3.47-2a84.63,84.63,0,0,0,7.71-4.1c2.74-1.85,5.76-3.17,8.53-4.95,1.85-1.19,4-1.92,5.85-3.09,2.93-1.84,6-3.48,9-5.05,2.16-1.1,4.38-2.22,6-4.27,0-.49,0-1.06,0-1.62a4,4,0,0,0-2.28-3.75c-2-1.14-4-2.3-6-3.41-1.62-.9-3.33-1.66-4.89-2.65-3.3-2.1-6.8-3.85-10.13-5.9-1.8-1.11-3.9-1.77-5.6-3-3.84-2.78-8.12-4.81-12.16-7.23-3.34-2-6.75-3.89-10.16-5.78a50.72,50.72,0,0,1-4.66-2.51c-3.17-2.16-6.55-3.95-9.9-5.78a11.9,11.9,0,0,1-3.92-2.88V175.58c.77-.22.91-1.43,2-1.32,1.09-1.28,2.78-1.59,4.11-2.45,2.76-1.79,5.71-3.27,8.49-5,2.41-1.53,5-2.68,7.34-4.38a3.7,3.7,0,0,1,3.63-.55,11.39,11.39,0,0,1,2.35,1.22c2.74,2,5.81,3.45,8.7,5.2,3.41,2.08,6.91,4,10.36,6a3,3,0,0,1,1.63,3c-.09,5.51,0,11-.06,16.54,0,2.54.49,4.73,2.74,6.18,2.86,0,2.86,0,5-1.14s4.34-2.42,6.45-3.69c2.82-1.7,5.66-3.36,8.53-5,3-1.67,5.76-3.85,9-5.06,4.11-3.17,9-5.12,13.25-8,1.93-1.29,3.78-2.62,4.18-5.14h.57V429.91H17.14V253.58h.57c.57,1.84,1.87,2.37,3.7,2.32A9.16,9.16,0,0,0,26,254c3.08-2,6.29-3.7,9.47-5.46,4.81-2.64,9.41-5.64,14.31-8.14,1.48-.75,3-1.61,4.41-2.46,2.08-1.21,4-2.67,6.18-3.7,4-1.89,5.91-4.84,5.9-9.26-.06-15.31,0-30.61,0-45.92a6.94,6.94,0,0,1,.48-2.93,9.75,9.75,0,0,1,4.38-4.69c1.52-.88,3.21-1.51,4.68-2.46,3.51-2.27,7.2-4.2,10.83-6.25a8.88,8.88,0,0,1,9.07.23c4.67,3.11,9.65,5.65,14.48,8.48,1.25.73,2.81,1.3,3.43,2.6a13.83,13.83,0,0,1,1.82,6.11c-.08,15.59,0,31.18-.06,46.77a7.18,7.18,0,0,0,3.2,6,19.85,19.85,0,0,0,3,1.78c3.51,1.71,6.77,3.85,10.18,5.73,1.55.85,3.24,1.49,4.68,2.48,3.23,2.24,6.8,3.87,10.1,6,2.16,1.38,4.53,2.43,6.69,3.85a51,51,0,0,0,4.89,2.64c1.87.94,4.08.63,5-.69a5.83,5.83,0,0,0,.88-3.64q0-50.48,0-101a7.48,7.48,0,0,0,0-1.42,4.51,4.51,0,0,0-.59-2,13.79,13.79,0,0,0-3.21-3.17c-2.26-1.38-4.58-2.72-6.91-4-3.43-1.86-6.76-3.88-10.17-5.76-1.54-.85-3.22-1.5-4.67-2.48-4-2.69-8.33-4.76-12.41-7.26-3.79-2.32-7.67-4.52-11.52-6.71-4.39-2.49-8.71-5.11-13.13-7.55a38.94,38.94,0,0,1-5.54-3.22c-2.18-1.69-4.91-1.65-7.42-1.22a12.2,12.2,0,0,0-4.73,2.28c-3.86,2.74-8.15,4.75-12.16,7.24-3.29,2-6.74,3.91-10.15,5.79-1.55.85-3.22,1.5-4.67,2.49-2.8,1.92-5.8,3.49-8.73,5.16-3.29,1.88-6.64,3.72-9.93,5.6-3.55,2-7.14,4-10.6,6.16-2.33,1.46-4.7,2.82-7.16,4.06-.61.3-.91,1.14-1.43,1.65C18,146.55,18,147.82,17.14,148.58Zm326.29,78.75v-69.6a56.79,56.79,0,0,0-.05-6c-.19-1.81-.39-3.76-2.24-4.88.14-.87-.33-1.34-1.06-1.72-4.14-2.15-8-4.76-12.19-6.91a40.83,40.83,0,0,1-4.37-2.47c-2.79-1.91-5.76-3.49-8.7-5.12-2-1.11-4-2.18-6-3.35q-5.22-3.15-10.55-6.11c-.37-.27-.71-.57-1.1-.8-2.83-1.64-5.66-3.29-8.51-4.9-1.92-1.08-4-1.93-5.79-3.18-2.87-2-6.2-3.15-8.92-5.35-.29-.24-.92,0-1.4,0a5.53,5.53,0,0,0-4.57-.27,1.14,1.14,0,0,0,0,.27,4.25,4.25,0,0,0-1.84.34c-3.32,1.93-6.73,3.71-10.08,5.6-1,.58-2,1.36-2.94,2-1.06-.28-1.38.76-2.07,1.14-3.14,1.72-6.3,3.41-9.43,5.16a5.2,5.2,0,0,0-1.07,1.12,4.44,4.44,0,0,0-1,.21c-3.13,1.61-6,3.72-9.19,5.21-.28.13-.42.57-.62.86a3.76,3.76,0,0,0-1,.21c-1.4.78-2.75,1.61-4.14,2.4-1.69.95-3.42,1.83-5.09,2.82-2.91,1.71-5.76,3.51-8.67,5.2s-6,3.35-9,5c-.28.16-.42.57-.62.87-.28,0-.68-.12-.83,0-1.89,1.7-3.21,3.61-3.2,6.36.07,12.14,0,24.28,0,36.42,0,13.14,0,26.28,0,39.43a6.16,6.16,0,0,0,1.74,4.51,1.87,1.87,0,0,0,.2.48c1.82,2.26,4.59,3.16,7,4.54,2.89,1.68,5.82,3.34,8.77,5,3.42,1.88,6.61,4.2,10.09,5.94,3,1.52,5.75,3.46,8.77,5,3.24,1.61,6.23,3.71,9.45,5.41,1.79,1,3.56,2,5.29,3,3.35,2,6.74,4,10.09,6,1.66,1,3.44,1.81,5.09,2.84,2.24,1.41,4.46,2.78,7.28,2.39a5.37,5.37,0,0,0,3.37-.77c2.65-1.59,5.35-3.07,8-4.63.27-.17.41-.58.61-.87a18,18,0,0,0,2.91-1.17,72,72,0,0,1,8.28-4.62c.35-.16.54-.7.81-1.06.28,0,.69.12.82,0a12.7,12.7,0,0,1,4.73-2.79c.66-.27,1.11-.52,1.3-1.18,1.61-.4,3.22-.8,3.43-2.86,2.76.19,4.81-1.35,6.86-2.85a36.47,36.47,0,0,0,6.86-4c2-1,4.11-1.77,5.71-3.42,1.18.42,1.48-.91,2.37-1.19a14.62,14.62,0,0,0,3.78-1.86c2.79-1.94,5.87-3.36,8.72-5.2C341.87,232.34,343.44,230.34,343.43,227.33ZM326.62,413.71c.37.48.56.94.91,1.15,3.86,2.38,7.73,4.75,11.64,7.05,2.52,1.48,5.18,2.72,7.64,4.29,4.55,2.91,5,3.14,10.13,3.14a5.42,5.42,0,0,1,.57,0,7.56,7.56,0,0,0,3.88-1c1.79-.84,3.38-2,5.08-2.9,1.94-1,4-1.86,5.86-3.07,3.34-2.23,6.9-4.07,10.32-6.16,1.5-.91,3.21-1.51,4.66-2.5,4-2.78,8.4-5,12.65-7.4,3-1.7,6-3.46,9-5.18,3.38-1.94,6.87-3.74,10.13-5.92,2-1.33,4.29-2.18,6.2-3.59a12.57,12.57,0,0,0,5.58-10.43q0-35.94,0-71.89a12.38,12.38,0,0,0-4.4-9.56,23.06,23.06,0,0,0-4.72-3c-3.38-1.75-6.68-3.68-10-5.58-3.53-2.05-7-4.14-10.6-6.17-1.54-.88-3.11-1.7-4.63-2.6-2.91-1.73-5.77-3.54-8.69-5.23s-6-3.06-8.81-4.9c-3.28-2.15-6.89-3.73-10.1-6-1.74-1.23-3.75-2-5.54-3.2a11.79,11.79,0,0,0-6.28-2c-3.44-.11-6.74.3-9.39,2.82-4.62,2.09-8.77,5-13.2,7.44-1.63.89-3.3,1.72-4.9,2.66-2.91,1.71-5.76,3.53-8.69,5.22-1.91,1.09-4,1.86-5.86,3.08-3.34,2.22-6.89,4.07-10.31,6.15-1.51.91-3.17,1.57-4.67,2.5-3.17,2-6.4,3.82-9.64,5.67-2.19,1.25-4.56,2.32-6.19,4.4s-3.14,4.18-3.14,7q0,37.23,0,74.46a5.79,5.79,0,0,0,.09,1.67,13.87,13.87,0,0,0,5.5,7.6c2.12,1.45,4.44,2.61,6.62,4,1.81,1.13,3.8,1.92,5.55,3.18,1.43,1,3.11,1.68,4.63,2.58,1.69,1,3.61,1.47,5.3,2.36s3.47.78,5.05,1.63c4,0,8,.31,11.81-1.14,4.9-1.84,7.82-5.57,9.68-10.22a17.66,17.66,0,0,0,.62-4,31.25,31.25,0,0,0,.55-4.05q0-34.23,0-68.46a5.55,5.55,0,0,0-.86-3.42c-2.63,0-5.3.09-8,0s-2.81.64-2.64,2.74c0,.29,0,.57,0,.86q0,33.09,0,66.18a17.39,17.39,0,0,1-.6,4.6,7.5,7.5,0,0,1-1.73,3c-2.49,2.71-5.74,3.2-9.06,2.21a27.68,27.68,0,0,1-7.21-3.23c-4.17-2.74-8.65-4.93-12.88-7.57-1-.61-1.68-1.21-1.64-2.43,0-.67,0-1.33,0-2V308.85c1.71-1.1,3.42-2.28,5.2-3.33,3.9-2.29,7.82-4.57,11.77-6.77,4.41-2.47,8.68-5.16,13.16-7.51,1.56-.82,3.15-1.61,4.66-2.52,3-1.77,5.9-3.67,8.9-5.41,1.91-1.11,4-1.86,5.85-3.08,4.66-3.14,9.71-5.56,14.4-8.47l10.33,5.79c1.55.87,3.11,1.72,4.63,2.62,2.91,1.73,5.76,3.54,8.69,5.22,1.91,1.1,4.06,1.83,5.85,3.09,3.95,2.77,8.26,4.91,12.42,7.29,3.07,1.75,6.13,3.55,9.21,5.28,3.25,1.83,6.46,3.74,9.72,5.57a5.57,5.57,0,0,1,3.25,5.44c-.07,22.06,0,44.12,0,66.18a7,7,0,0,1,0,1.71c-.34,1.22-.53,2.52-1.94,3.16a34.19,34.19,0,0,0-4.7,2.42c-3.35,2.2-6.88,4.09-10.32,6.14-1.51.9-3.2,1.54-4.65,2.54-4.1,2.84-8.65,4.92-12.85,7.61-1.85,1.18-4.07,1.82-5.84,3.1-3.84,2.78-8.14,4.78-12.17,7.23-3.39,2.07-6.9,4-10.33,6a2.1,2.1,0,0,1-2.32,0c-.69-.43-1.31-1-2-1.4-.9-.57-1.81-1.13-2.76-1.61s-1.86-1.11-2.79-1.56c-2.65-1.27-4.9-3.18-7.61-4.36a2.9,2.9,0,0,0-2.77,0,51.92,51.92,0,0,1-7,3.07A34.3,34.3,0,0,0,326.62,413.71Zm76.82-79.36a35.77,35.77,0,0,0-.48-3.83,22.8,22.8,0,0,0-2.92-8c-2.16-3.87-5.73-6.05-9.47-7.78-2.78-1.28-6-1.74-9-2.38a31.15,31.15,0,0,0-4-.06c-1.26-.09-2.51-.42-3.77-.53a18.29,18.29,0,0,0-3.14,0c-1,.09-1.93.45-2.91.53-1.55.12-3.08.22-4.64.48a32.4,32.4,0,0,0-4.64,1.28c-4.55,1.46-8.68,3.63-11.22,7.89-1.51,2.54-3,5.13-2.71,8.31.13,1.6,0,3.23,0,4.84a5.94,5.94,0,0,0,.18,1.64,15.52,15.52,0,0,0,8.49,9.89c3.6,1.72,7.41,2.42,11.19,3.33,2.56.61,5.25.39,7.81,1.14,1.49.43,3-.22,4.67.48,1.31.57,3.06.46,4.58.57,2.75.21,5.23,1.26,7.83,1.9a6.46,6.46,0,0,1,3.18,2.21,5.07,5.07,0,0,1,1.16,4.6c-.57,2-.8,4.21-2.83,5.37-1.37.78-2.9,1.28-4.29,2-1.13.62-2.4.25-3.46.62a9.69,9.69,0,0,1-3.51.49c-5.57-.15-11.19.58-16.67-1.11a15.57,15.57,0,0,1-5-2.42c-2.2-1.7-3.1-4.17-3.6-6.77-.57-2.88-1.07-3.38-4-3.39h-6.57l-1.43,1.43a41.73,41.73,0,0,0,.48,5.19,20,20,0,0,0,4.58,9.54c1.58,1.95,3.85,3,5.88,4.39s4.88,1.56,7.11,2.85c3.31,0,6.45,1.32,9.81,1.19,1.72-.07,3.55-.59,5.21.49.23.15.71,0,1.07-.11a6.33,6.33,0,0,1,1.53-.41,37.09,37.09,0,0,0,10.11-1.12,31.81,31.81,0,0,0,7-2.41,26.77,26.77,0,0,0,6.51-5.08c1.84-1.81,4.23-7.72,4.16-10-.06-1.81.08-3.62,0-5.42a12.47,12.47,0,0,0-2.1-6.24,15.26,15.26,0,0,0-3.27-3.52c-2.41-1.83-5.22-2.65-7.87-3.84-1.11-.5-2.64-.19-3.65-.8-1.19-.72-2.66.19-3.62-1-3.05.13-5.91-1.15-8.95-1.17a22.37,22.37,0,0,1-2.34-.52c-.85-.09-1.88.28-2.53-.09a6.47,6.47,0,0,0-2.66-.52c-.88-.11-1.74-.37-2.62-.55A22.33,22.33,0,0,1,359,335.8a4.93,4.93,0,0,1-1.88-1.83c-1.56-2.6.11-6.93,2.86-8.49a16.12,16.12,0,0,1,8.2-2.26c2.95-.08,5.91.11,8.86-.06A18.16,18.16,0,0,1,384,324.4a11.2,11.2,0,0,1,7.44,8.59c.46,2,1.22,2.74,3.22,2.76,2.47,0,4.94,0,7.28,0ZM643.43,197c0-5-.07-9.53,0-14.09a3.17,3.17,0,0,0-1.61-3c-1.84-1.25-3.91-2.09-5.75-3.37s-3.79-1.89-5.58-3c-.82-.52-1.79-.74-2.29-.3-1.25,1.11-2.81,1.54-4.18,2.36-2.89,1.73-5.75,3.5-8.52,5.2v16.53c3.24,1.89,6.28,3.7,9.36,5.45a20.3,20.3,0,0,0,4.5,2.18c1.26.34,2.15-1.09,3.25-1.65,2.12-1.08,4.22-2.22,6.28-3.42C640.48,199,642,198,643.43,197ZM452.13,317.5c3.28,0,3.28,0,6.4-1.68a10.44,10.44,0,0,0,4.91-5.89c.75-2.11,1.78-4.15.56-6.42-.27-3.89-2.9-6.22-5.77-8.22a10.89,10.89,0,0,0-5.81-1.67,9.63,9.63,0,0,0-5.18,1.13c-3.8,2.38-6.93,5.42-6.67,10.48a12.19,12.19,0,0,1,0,1.71c-.22,2.64,1.09,4.73,2.66,6.58C445.58,316.29,448.55,318,452.13,317.5Z"/><path class="cls-3" d="M479.43,10.49c.4,1,1.44.86,2.16,1.28,4.51,2.64,9.14,5.08,13.65,7.76,2.33,1.38,4.79,2.65,7.19,4,2.73,1.48,5.5,2.86,8.11,4.58,2.13,1.4,4.55,2.34,6.81,3.54a25.87,25.87,0,0,1,3.17,2,4.84,4.84,0,0,1,1.18,1.49,12.32,12.32,0,0,1,1.76,6.42q-.06,92.57,0,185.14a10.1,10.1,0,0,1-2.38,7,16.79,16.79,0,0,1-4.09,2.82c-3.42,2.08-6.94,4-10.32,6.14-1.85,1.18-3.95,2-5.85,3.07-3,1.75-5.92,3.65-8.9,5.42-1.52.9-3.15,1.61-4.67,2.52-3.43,2.05-6.85,4.16-10.35,6.08-3,1.65-6,3.47-9,5.16-4.25,2.4-8.61,4.62-12.66,7.4a12.27,12.27,0,0,1-4.09,1.79,6.3,6.3,0,0,1-4.58-.49c-3.77-2.18-7.43-4.56-11.27-6.59-2.84-1.49-5.52-3.22-8.3-4.79-2.16-1.22-4.26-2.59-6.48-3.66-3-1.47-5.76-3.46-8.78-5-3.49-1.75-6.73-4-10.1-6-1.37-.82-2.82-1.47-4.18-2.36-2.87-1.9-6-3.41-9-5.12s-6.19-3.47-9.2-5.34a7.06,7.06,0,0,1-3.25-6c-.12-2.56,0-5.13,0-7.7q0-34.1,0-68.18c0-3.37,1.62-5.55,4.39-7.3,3.31-2.09,6.75-4,10.14-5.91,3-1.71,6-3.49,9-5.18,4.26-2.4,8.62-4.62,12.66-7.4,1.44-1,3.18-1.55,4.67-2.49,3.38-2.14,7-3.82,10.31-6.16,1.78-1.27,3.94-2,5.85-3.09,2.93-1.68,5.73-3.6,8.71-5.18,1.87-1,3.58-2.27,5.66-2.89a7.67,7.67,0,0,1,5.32.24c3.84,2,7.64,4.15,11.31,6.49,1.94,1.23,4,2.2,6.08,3.24a17.08,17.08,0,0,0,2,.71l2.22-2.57v-3.47q0-48.21,0-96.43a13.23,13.23,0,0,1,.12-2.52c.24-1.19,1.28-1.78,2.16-2.47ZM473.65,176a30.81,30.81,0,0,1-3.78-1.86c-2.74-1.83-5.7-3.28-8.48-5-2.42-1.52-5-2.68-7.33-4.39a10.82,10.82,0,0,0-3.32-1.59,4.39,4.39,0,0,0-2.66,0,31.63,31.63,0,0,0-3.95,2.16c-1.54.89-3.05,1.81-4.59,2.69-2.17,1.23-4.35,2.4-6.46,3.72-2.54,1.61-5.24,3-7.94,4.45,0,9,0,18,0,27.07a2.57,2.57,0,0,0,1.59,2.39c1,.51,1.81,1.22,2.73,1.67,4.55,2.22,8.75,5.05,13.16,7.5,1.78,1,3.53,2,5.31,3a2.9,2.9,0,0,0,3.09,0c1.68-1,3.42-1.86,5.1-2.84,3-1.75,5.94-3.57,8.94-5.29,1.84-1.06,3.8-1.9,5.61-3a29.34,29.34,0,0,0,3-2.34Z"/><path class="cls-4" d="M17.14,148.58c.88-.76.89-2,1.71-2.84.52-.51.82-1.35,1.43-1.65,2.46-1.24,4.83-2.6,7.16-4.06,3.46-2.18,7.05-4.15,10.6-6.16,3.29-1.88,6.64-3.72,9.93-5.6,2.93-1.67,5.93-3.24,8.73-5.16,1.45-1,3.12-1.64,4.67-2.49,3.41-1.88,6.86-3.74,10.15-5.79,4-2.49,8.3-4.5,12.16-7.24a12.2,12.2,0,0,1,4.73-2.28c2.51-.43,5.24-.47,7.42,1.22a38.94,38.94,0,0,0,5.54,3.22c4.42,2.44,8.74,5.06,13.13,7.55,3.85,2.19,7.73,4.39,11.52,6.71,4.08,2.5,8.42,4.57,12.41,7.26,1.45,1,3.13,1.63,4.67,2.48,3.41,1.88,6.74,3.9,10.17,5.76,2.33,1.27,4.65,2.61,6.91,4a13.79,13.79,0,0,1,3.21,3.17,4.51,4.51,0,0,1,.59,2,7.48,7.48,0,0,1,0,1.42q0,50.49,0,101a5.83,5.83,0,0,1-.88,3.64c-.95,1.32-3.16,1.63-5,.69a51,51,0,0,1-4.89-2.64c-2.16-1.42-4.53-2.47-6.69-3.85-3.3-2.11-6.87-3.74-10.1-6-1.44-1-3.13-1.63-4.68-2.48-3.41-1.88-6.67-4-10.18-5.73a19.85,19.85,0,0,1-3-1.78,7.18,7.18,0,0,1-3.2-6c0-15.59,0-31.18.06-46.77a13.83,13.83,0,0,0-1.82-6.11c-.62-1.3-2.18-1.87-3.43-2.6-4.83-2.83-9.81-5.37-14.48-8.48a8.88,8.88,0,0,0-9.07-.23c-3.63,2-7.32,4-10.83,6.25-1.47.95-3.16,1.58-4.68,2.46a9.75,9.75,0,0,0-4.38,4.69A6.94,6.94,0,0,0,66.3,179c0,15.31,0,30.61,0,45.92,0,4.42-1.92,7.37-5.9,9.26-2.16,1-4.1,2.49-6.18,3.7-1.45.85-2.93,1.71-4.41,2.46-4.9,2.5-9.5,5.5-14.31,8.14C32.33,250.28,29.12,252,26,254a9.16,9.16,0,0,1-4.63,1.92c-1.83,0-3.13-.48-3.7-2.32V182.66c0-2.84,0-5.68,0-8.52,0-.41.22-1-.57-1Z"/><ellipse class="cls-5" cx="17.43" cy="233.04" rx="0.4" ry="29.05"/><path class="cls-6" d="M17.71,212.5h-.57V173.12c.79,0,.56.61.57,1,0,2.84,0,5.68,0,8.52Z"/><ellipse class="cls-7" cx="702.57" cy="160.85" rx="0.4" ry="15.74"/><path class="cls-4" d="M702.29,149.72V172c-.4,2.52-2.25,3.85-4.18,5.14-4.29,2.86-9.14,4.81-13.25,8-3.28,1.21-6,3.39-9,5.06-2.87,1.59-5.71,3.25-8.53,5-2.11,1.27-4.28,2.5-6.45,3.69s-2.12,1.14-5,1.14c-2.25-1.45-2.77-3.64-2.74-6.18.07-5.51,0-11,.06-16.54a3,3,0,0,0-1.63-3c-3.45-2-6.95-3.9-10.36-6-2.89-1.75-6-3.2-8.7-5.2a11.39,11.39,0,0,0-2.35-1.22,3.7,3.7,0,0,0-3.63.55c-2.32,1.7-4.93,2.85-7.34,4.38-2.78,1.75-5.73,3.23-8.49,5-1.33.86-3,1.17-4.11,2.45-1.08-.11-1.22,1.1-2,1.32V203a11.9,11.9,0,0,0,3.92,2.88c3.35,1.83,6.73,3.62,9.9,5.78a50.72,50.72,0,0,0,4.66,2.51c3.41,1.89,6.82,3.78,10.16,5.78,4,2.42,8.32,4.45,12.16,7.23,1.7,1.22,3.8,1.88,5.6,3,3.33,2,6.83,3.8,10.13,5.9,1.56,1,3.27,1.75,4.89,2.65,2,1.11,4,2.27,6,3.41a4,4,0,0,1,2.28,3.75c0,.56,0,1.13,0,1.62-1.62,2.05-3.84,3.17-6,4.27-3.09,1.57-6.12,3.21-9,5.05-1.86,1.17-4,1.9-5.85,3.09-2.77,1.78-5.79,3.1-8.53,4.95a84.63,84.63,0,0,1-7.71,4.1c-1.18.62-2.26,1.42-3.47,2a10.73,10.73,0,0,1-4.25,1.44c-2.27.07-4.14-1-6-2s-3.51-2.09-5.29-3.1c-3.39-1.92-6.85-3.72-10.18-5.73-4.33-2.61-8.82-4.93-13.2-7.44l-12-6.85c-4-2.28-8-4.54-12-6.86-3.6-2.09-7.32-4-10.82-6.26a7.79,7.79,0,0,1-3.94-6.8q.06-37.93,0-75.87c0-3.27,1.67-5.39,4.38-7,3.37-2,6.86-3.77,10.1-6,1.8-1.23,3.94-2,5.84-3.08,3-1.74,5.92-3.64,8.9-5.41,1.52-.91,3.1-1.7,4.67-2.52,4.47-2.35,8.71-5.09,13.16-7.49,3.75-2,7.38-4.24,11.05-6.4,4.13-2.44,8.28-4.84,12.48-7.15,2.29-1.27,4.7-.85,6.94.56,1.8,1.13,3.64,2.2,5.51,3.23,4.21,2.3,8.36,4.68,12.42,7.25,1.49.94,3.1,1.7,4.63,2.59,3.54,2,7.07,4.12,10.6,6.17,3.05,1.76,6.12,3.55,9.21,5.28,2.79,1.56,5.61,3.08,8.28,4.87s5.89,3.23,8.8,4.91c2.3,1.34,4.57,2.74,6.87,4.08C701.32,146.24,702,148,702.29,149.72Z"/><path class="cls-8" d="M326.62,413.71a34.3,34.3,0,0,1,3.32-1.4,51.92,51.92,0,0,0,7-3.07,2.9,2.9,0,0,1,2.77,0c2.71,1.18,5,3.09,7.61,4.36.93.45,1.82,1.09,2.79,1.56s1.86,1,2.76,1.61c.68.43,1.3,1,2,1.4a2.1,2.1,0,0,0,2.32,0c3.43-2.05,6.94-4,10.33-6,4-2.45,8.33-4.45,12.17-7.23,1.77-1.28,4-1.92,5.84-3.1,4.2-2.69,8.75-4.77,12.85-7.61,1.45-1,3.14-1.64,4.65-2.54,3.44-2.05,7-3.94,10.32-6.14a34.19,34.19,0,0,1,4.7-2.42c1.41-.64,1.6-1.94,1.94-3.16a7,7,0,0,0,0-1.71c0-22.06,0-44.12,0-66.18a5.57,5.57,0,0,0-3.25-5.44c-3.26-1.83-6.47-3.74-9.72-5.57-3.08-1.73-6.14-3.53-9.21-5.28-4.16-2.38-8.47-4.52-12.42-7.29-1.79-1.26-3.94-2-5.85-3.09-2.93-1.68-5.78-3.49-8.69-5.22-1.52-.9-3.08-1.75-4.63-2.62l-10.33-5.79c-4.69,2.91-9.74,5.33-14.4,8.47-1.81,1.22-3.94,2-5.85,3.08-3,1.74-5.91,3.64-8.9,5.41-1.51.91-3.1,1.7-4.66,2.52-4.48,2.35-8.75,5-13.16,7.51-4,2.2-7.87,4.48-11.77,6.77-1.78,1.05-3.49,2.23-5.2,3.33v69.53c0,.67,0,1.33,0,2,0,1.22.67,1.82,1.64,2.43,4.23,2.64,8.71,4.83,12.88,7.57a27.68,27.68,0,0,0,7.21,3.23c3.32,1,6.57.5,9.06-2.21a7.5,7.5,0,0,0,1.73-3,17.39,17.39,0,0,0,.6-4.6q0-33.09,0-66.18c0-.29,0-.57,0-.86-.17-2.1.06-2.85,2.64-2.74s5.32,0,8,0a5.55,5.55,0,0,1,.86,3.42q0,34.23,0,68.46A31.25,31.25,0,0,1,336,390a17.66,17.66,0,0,1-.62,4c-1.86,4.65-4.78,8.38-9.68,10.22-3.84,1.45-7.84,1.11-11.81,1.14-1.58-.85-3.42-.77-5.05-1.63s-3.61-1.36-5.3-2.36c-1.52-.9-3.2-1.56-4.63-2.58-1.75-1.26-3.74-2.05-5.55-3.18-2.18-1.37-4.5-2.53-6.62-4a13.87,13.87,0,0,1-5.5-7.6,5.79,5.79,0,0,1-.09-1.67q0-37.23,0-74.46c0-2.79,1.53-4.9,3.14-7s4-3.15,6.19-4.4c3.24-1.85,6.47-3.71,9.64-5.67,1.5-.93,3.16-1.59,4.67-2.5,3.42-2.08,7-3.93,10.31-6.15,1.83-1.22,4-2,5.86-3.08,2.93-1.69,5.78-3.51,8.69-5.22,1.6-.94,3.27-1.77,4.9-2.66,4.43-2.43,8.58-5.35,13.2-7.44,2.65-2.52,5.95-2.93,9.39-2.82a11.79,11.79,0,0,1,6.28,2c1.79,1.2,3.8,2,5.54,3.2,3.21,2.26,6.82,3.84,10.1,6,2.8,1.84,5.89,3.23,8.81,4.9s5.78,3.5,8.69,5.23c1.52.9,3.09,1.72,4.63,2.6,3.55,2,7.07,4.12,10.6,6.17,3.27,1.9,6.57,3.83,10,5.58a23.06,23.06,0,0,1,4.72,3,12.38,12.38,0,0,1,4.4,9.56q0,35.94,0,71.89a12.57,12.57,0,0,1-5.58,10.43c-1.91,1.41-4.22,2.26-6.2,3.59-3.26,2.18-6.75,4-10.13,5.92-3,1.72-6,3.48-9,5.18-4.25,2.4-8.61,4.62-12.65,7.4-1.45,1-3.16,1.59-4.66,2.5-3.42,2.09-7,3.93-10.32,6.16-1.82,1.21-3.92,2-5.86,3.07-1.7.93-3.29,2.06-5.08,2.9a7.56,7.56,0,0,1-3.88,1,5.42,5.42,0,0,0-.57,0c-5.09,0-5.58-.23-10.13-3.14-2.46-1.57-5.12-2.81-7.64-4.29-3.91-2.3-7.78-4.67-11.64-7.05C327.18,414.65,327,414.19,326.62,413.71Z"/><path class="cls-9" d="M403.44,334.35l-1.53,1.41c-2.34,0-4.81,0-7.28,0-2,0-2.76-.8-3.22-2.76A11.2,11.2,0,0,0,384,324.4a18.16,18.16,0,0,0-6.93-1.24c-3,.17-5.91,0-8.86.06a16.12,16.12,0,0,0-8.2,2.26c-2.75,1.56-4.42,5.89-2.86,8.49A4.93,4.93,0,0,0,359,335.8a22.33,22.33,0,0,0,7.08,2.24c.88.18,1.74.44,2.62.55a6.47,6.47,0,0,1,2.66.52c.65.37,1.68,0,2.53.09a22.37,22.37,0,0,0,2.34.52c3,0,5.9,1.3,8.95,1.17,1,1.15,2.43.24,3.62,1,1,.61,2.54.3,3.65.8,2.65,1.19,5.46,2,7.87,3.84a15.26,15.26,0,0,1,3.27,3.52,12.47,12.47,0,0,1,2.1,6.24c.12,1.8,0,3.61,0,5.42.07,2.29-2.32,8.2-4.16,10a26.77,26.77,0,0,1-6.51,5.08,31.81,31.81,0,0,1-7,2.41A37.09,37.09,0,0,1,378,380.29a6.33,6.33,0,0,0-1.53.41c-.36.08-.84.26-1.07.11-1.66-1.08-3.49-.56-5.21-.49-3.36.13-6.5-1.18-9.81-1.19-2.23-1.29-4.94-1.39-7.11-2.85s-4.3-2.44-5.88-4.39a20,20,0,0,1-4.58-9.54,41.73,41.73,0,0,1-.48-5.19l1.43-1.43h6.57c3,0,3.46.51,4,3.39.5,2.6,1.4,5.07,3.6,6.77a15.57,15.57,0,0,0,5,2.42c5.48,1.69,11.1,1,16.67,1.11a9.69,9.69,0,0,0,3.51-.49c1.06-.37,2.33,0,3.46-.62,1.39-.76,2.92-1.26,4.29-2,2-1.16,2.26-3.42,2.83-5.37a5.07,5.07,0,0,0-1.16-4.6,6.46,6.46,0,0,0-3.18-2.21c-2.6-.64-5.08-1.69-7.83-1.9-1.52-.11-3.27,0-4.58-.57-1.63-.7-3.18-.05-4.67-.48-2.56-.75-5.25-.53-7.81-1.14-3.78-.91-7.59-1.61-11.19-3.33a15.52,15.52,0,0,1-8.49-9.89,5.94,5.94,0,0,1-.18-1.64c0-1.61.1-3.24,0-4.84-.27-3.18,1.2-5.77,2.71-8.31,2.54-4.26,6.67-6.43,11.22-7.89a32.4,32.4,0,0,1,4.64-1.28c1.56-.26,3.09-.36,4.64-.48,1-.08,1.93-.44,2.91-.53a18.29,18.29,0,0,1,3.14,0c1.26.11,2.51.44,3.77.53a31.15,31.15,0,0,1,4,.06c3,.64,6.22,1.1,9,2.38,3.74,1.73,7.31,3.91,9.47,7.78a22.8,22.8,0,0,1,2.92,8A35.77,35.77,0,0,1,403.44,334.35Z"/><path class="cls-10" d="M253.14,114.91c1-.68,1.9-1.46,2.94-2,3.35-1.89,6.76-3.67,10.08-5.6a4.25,4.25,0,0,1,1.84-.34c1.43,1,1.14,2.51,1.14,3.92V262.22c0,.57,0,1.14,0,1.71a2.39,2.39,0,0,1-1.15,2.21c-.09,0-.26,0-.27,0-2-4.22-4.46-8.15-6.62-12.27-1.59-3-3.31-6-5-9-.26-.46-.56-.9-.79-1.37-.85-1.73-2.27-3.22-2.2-5.32Z"/><path class="cls-11" d="M253.14,238.18c-.07,2.1,1.35,3.59,2.2,5.32.23.47.53.91.79,1.37,1.67,3,3.39,6,5,9,2.16,4.12,4.66,8.05,6.62,12.27,0,0,.18,0,.27,0a3.82,3.82,0,0,0,.39,1.21,14.29,14.29,0,0,1,2.47,5.06c-2.82.39-5-1-7.28-2.39-1.65-1-3.43-1.84-5.09-2.84-3.35-2-6.74-3.95-10.09-6-1.73-1-3.5-2.07-5.29-3-3.22-1.7-6.21-3.8-9.45-5.41-3-1.5-5.76-3.44-8.77-5-3.48-1.74-6.67-4.06-10.09-5.94-3-1.61-5.88-3.27-8.77-5-2.38-1.38-5.15-2.28-7-4.54a1.87,1.87,0,0,1-.2-.48c0-.29-.12-.66,0-.84a75.43,75.43,0,0,0,5.34-8.88c1.72-3,3.39-6,5.16-8.91,2.89-4.77,5.47-9.7,8.33-14.47a30.14,30.14,0,0,0,2.86-4.54,37.68,37.68,0,0,1,4-6.3c.16.06.41.08.47.2,1.4,2.71,2.76,5.43,4.19,8.12.19.36.7.54,1.06.81a3.84,3.84,0,0,0,.2,1c1.06,2,2.13,4,3.23,6,1.7,3.08,3.44,6.13,5.13,9.2a19.52,19.52,0,0,0,2.29,3.7,7.45,7.45,0,0,0,.42,1.26c1.86,3.41,3.77,6.8,5.64,10.22,1.43,2.63,2.78,5.32,4.26,7.93A9.35,9.35,0,0,0,253.14,238.18Z"/><path class="cls-12" d="M270.86,272.41a14.29,14.29,0,0,0-2.47-5.06,3.82,3.82,0,0,1-.39-1.21,2.39,2.39,0,0,0,1.15-2.21c0-.57,0-1.14,0-1.71V110.85c0-1.41.29-2.92-1.14-3.92a1.14,1.14,0,0,1,0-.27,5.53,5.53,0,0,1,4.57.27,4.32,4.32,0,0,0,1,3c.87,1.43,1.72,2.87,2.59,4.29,1.78,2.93,3.6,5.84,5.34,8.8a13.09,13.09,0,0,1,.81,2.2c-.79,0-.7.71-.54,1,.77,1.39.53,2.88.53,4.34q0,66.08,0,132.14a9.76,9.76,0,0,0,0,1.71,12.77,12.77,0,0,0,.55,1.76c-.2.29-.34.7-.61.87-2.67,1.56-5.37,3-8,4.63A5.37,5.37,0,0,1,270.86,272.41Z"/><path class="cls-13" d="M282.86,266.14a12.77,12.77,0,0,1-.55-1.76,9.76,9.76,0,0,1,0-1.71q0-66.08,0-132.14c0-1.46.24-3-.53-4.34-.16-.29-.25-1,.54-1,2.28,2.71,3.76,5.95,5.64,8.92s3.51,6.36,5.51,9.41c.41.62,1.06,1.29.85,2.21-.79,0-.7.72-.54,1,.79,1.4.53,2.89.53,4.35q0,52.59,0,105.19c0,.86,0,1.71,0,2.57,0,.16.36.3.55.45-.27.36-.46.9-.81,1.06a72,72,0,0,0-8.28,4.62A18,18,0,0,1,282.86,266.14Z"/><path class="cls-14" d="M294.29,145.73c.21-.92-.44-1.59-.85-2.21-2-3.05-3.57-6.35-5.51-9.41s-3.36-6.21-5.64-8.92a13.09,13.09,0,0,0-.81-2.2c-1.74-3-3.56-5.87-5.34-8.8-.87-1.42-1.72-2.86-2.59-4.29a4.32,4.32,0,0,1-1-3c.48,0,1.11-.21,1.4,0,2.72,2.2,6,3.38,8.92,5.35,1.8,1.25,3.87,2.1,5.79,3.18,2.85,1.61,5.68,3.26,8.51,4.9.39.23.73.53,1.1.8a3.26,3.26,0,0,0,.57,2.33c1,1.48,2,3,3.06,4.42,1.42,1.9,2.94,3.71,4.36,5.61,1.93,2.6,3.8,5.26,5.71,7.88,1.32,1.83,2.67,3.64,4,5.46,1.82,2.48,3.67,4.93,5.44,7.43,1.41,2,3.07,3.79,4.29,5.91a15.11,15.11,0,0,0,2,2.59,33.29,33.29,0,0,0,2.57,2.31,5,5,0,0,1-.23,1.62c-1.7,3.1-3.33,6.24-5.17,9.27-.62,1-1.52,2-1.46,3.38l-1.72,2.28c-1.07.26-1.54-.61-2-1.23-1.15-1.4-2.2-2.88-3.25-4.35-1.37-1.9-2.66-3.86-4.06-5.74-1.91-2.55-3.88-5.06-5.86-7.55-.24-.3-.7-.42-1.36-.78v90.41c-.21,2.06-1.82,2.46-3.43,2.86V162.43a7.48,7.48,0,0,0,0-1.42c-.48-2.53-.58-5.18-2.48-7.24a7.44,7.44,0,0,1-.93-1.6c-1-1.94-2.06-3.9-3.13-5.83C295,146.07,294.58,145.93,294.29,145.73Z"/><path class="cls-15" d="M253.14,238.18a9.35,9.35,0,0,1-1.68-1.71c-1.48-2.61-2.83-5.3-4.26-7.93-1.87-3.42-3.78-6.81-5.64-10.22a7.45,7.45,0,0,1-.42-1.26c1.23-.45.53-1.47.53-2.16q.08-45.63,0-91.26c0-.44-.06-.88-.09-1.31h-1.05a5.2,5.2,0,0,1,1.07-1.12c3.13-1.75,6.29-3.44,9.43-5.16.69-.38,1-1.42,2.07-1.14Z"/><path class="cls-16" d="M230.29,197.09c-.36-.27-.87-.45-1.06-.81-1.43-2.69-2.79-5.41-4.19-8.12-.06-.12-.31-.14-.47-.2a6.75,6.75,0,0,0-.63-2c-3-4.31-5.07-9.12-7.76-13.6-2.26-3.78-4.36-7.69-6.38-11.59-2.59-5-5.51-9.85-8.09-14.86a5,5,0,0,0-.57-.74c.2-.3.34-.71.62-.87,3-1.7,6-3.32,9-5s5.76-3.49,8.67-5.2c1.67-1,3.4-1.87,5.09-2.82,1.39-.79,2.74-1.62,4.14-2.4a3.76,3.76,0,0,1,1-.21c.68.21,1.16.57,1.15,1.36,0,.47,0,.94,0,1.42v63.54a13.75,13.75,0,0,1,0,1.7C230.81,196.81,230.48,196.94,230.29,197.09Z"/><path class="cls-17" d="M230.29,197.09c.19-.15.52-.28.54-.46a13.75,13.75,0,0,0,0-1.7V131.39c0-.48,0-.95,0-1.42,0-.79-.47-1.15-1.15-1.36.2-.29.34-.73.62-.86,3.2-1.49,6.06-3.6,9.19-5.21a4.44,4.44,0,0,1,1-.21h1.05c0,.43.09.87.09,1.31q0,45.63,0,91.26c0,.69.7,1.71-.53,2.16a19.52,19.52,0,0,1-2.29-3.7c-1.69-3.07-3.43-6.12-5.13-9.2-1.1-2-2.17-4-3.23-6A3.84,3.84,0,0,1,230.29,197.09Z"/><path class="cls-18" d="M201.14,145.16a5,5,0,0,1,.57.74c2.58,5,5.5,9.84,8.09,14.86,2,3.9,4.12,7.81,6.38,11.59,2.69,4.48,4.78,9.29,7.76,13.6a6.75,6.75,0,0,1,.63,2,37.68,37.68,0,0,0-4,6.3,30.14,30.14,0,0,1-2.86,4.54c-.35-1.32-1.6-1.74-2.59-2.24-5.28-2.74-10.62-5.36-16-8a12.12,12.12,0,0,0-2-.61c0-12.14,0-24.28,0-36.42,0-2.75,1.31-4.66,3.2-6.36C200.46,145,200.86,145.16,201.14,145.16Z"/><path class="cls-19" d="M294.29,145.73c.29.2.71.34.87.61,1.07,1.93,2.09,3.89,3.13,5.83a7.44,7.44,0,0,0,.93,1.6c1.9,2.06,2,4.71,2.48,7.24a7.48,7.48,0,0,1,0,1.42V255.3c-.19.66-.64.91-1.3,1.18a12.7,12.7,0,0,0-4.73,2.79c-.13.14-.54,0-.82,0-.19-.15-.54-.29-.55-.45-.05-.86,0-1.71,0-2.57q0-52.59,0-105.19c0-1.46.26-3-.53-4.35C293.59,146.45,293.5,145.74,294.29,145.73Z"/><path class="cls-20" d="M321.71,181.68l1.72-2.28c.82.53,1.6,1.14,2.46,1.58,4.2,2.15,8.39,4.33,12.67,6.33a8.74,8.74,0,0,0,4.87,1.22v21.68a4.53,4.53,0,0,1-1.84-.34c-2.46-1.31-5.13-2.27-7.5-3.72a7.28,7.28,0,0,0-4.38-1.07,22.49,22.49,0,0,1-2.84-4.63,1.62,1.62,0,0,0-2.3-.92v42.64c-1.6,1.65-3.74,2.4-5.71,3.42-.76-.85-.57-1.9-.57-2.9q0-28.22,0-56.44c.28,0,.62.1.83,0A17.64,17.64,0,0,0,321.71,181.68Z"/><path class="cls-8" d="M643.43,197c-1.48,1-2.95,2-4.5,2.91-2.06,1.2-4.16,2.34-6.28,3.42-1.1.56-2,2-3.25,1.65a20.3,20.3,0,0,1-4.5-2.18c-3.08-1.75-6.12-3.56-9.36-5.45V180.84c2.77-1.7,5.63-3.47,8.52-5.2,1.37-.82,2.93-1.25,4.18-2.36.5-.44,1.47-.22,2.29.3,1.79,1.12,3.85,1.82,5.58,3s3.91,2.12,5.75,3.37a3.17,3.17,0,0,1,1.61,3C643.36,187.49,643.43,192.05,643.43,197Z"/><path class="cls-21" d="M321.71,181.68a17.64,17.64,0,0,1-2.59,4.55c-.21.12-.55,0-.83,0,0-.19.07-.43,0-.57-1.39-2.27-2.81-4.54-4.23-6.81-.41-.64-.85-1.27-1.5-2.24a8.78,8.78,0,0,0-1.08,1.89,8.72,8.72,0,0,0,0,2v64.19a22,22,0,0,0,0,2.57,19.65,19.65,0,0,0,.55,2.33c-2.05,1.5-4.1,3-6.86,2.85V162c.66.36,1.12.48,1.36.78,2,2.49,3.95,5,5.86,7.55,1.4,1.88,2.69,3.84,4.06,5.74,1.05,1.47,2.1,3,3.25,4.35C320.17,181.07,320.64,181.94,321.71,181.68Z"/><path class="cls-22" d="M330.29,165.13a33.29,33.29,0,0,1-2.57-2.31,15.11,15.11,0,0,1-2-2.59c-1.22-2.12-2.88-3.92-4.29-5.91-1.77-2.5-3.62-4.95-5.44-7.43-1.34-1.82-2.69-3.63-4-5.46-1.91-2.62-3.78-5.28-5.71-7.88-1.42-1.9-2.94-3.71-4.36-5.61-1.07-1.44-2.05-2.94-3.06-4.42a3.26,3.26,0,0,1-.57-2.33q5.32,3,10.55,6.11c1.94,1.17,4,2.24,6,3.35,2.94,1.63,5.91,3.21,8.7,5.12a40.83,40.83,0,0,0,4.37,2.47c4.16,2.15,8.05,4.76,12.19,6.91.73.38,1.2.85,1.06,1.72-1.25.95-1.37,2.56-2.25,3.76a40,40,0,0,0-2.32,4.16c-.43.77-.91,1.52-1.36,2.29-1.07,1.83-2.43,3.57-3.1,5.55A3.81,3.81,0,0,1,330.29,165.13Z"/><path class="cls-23" d="M197.14,188a12.12,12.12,0,0,1,2,.61c5.34,2.63,10.68,5.25,16,8,1,.5,2.24.92,2.59,2.24-2.86,4.77-5.44,9.7-8.33,14.47-1.77,2.91-3.44,5.94-5.16,8.91a75.43,75.43,0,0,1-5.34,8.88c-.14.18,0,.55,0,.84a6.16,6.16,0,0,1-1.74-4.51C197.16,214.24,197.14,201.1,197.14,188Z"/><path class="cls-24" d="M330.29,165.13a3.81,3.81,0,0,0,1.82-2.5c.67-2,2-3.72,3.1-5.55.45-.77.93-1.52,1.36-2.29a40,40,0,0,1,2.32-4.16c.88-1.2,1-2.81,2.25-3.76,1.85,1.12,2.05,3.07,2.24,4.88a56.79,56.79,0,0,1,.05,6v30.8a8.74,8.74,0,0,1-4.87-1.22c-4.28-2-8.47-4.18-12.67-6.33-.86-.44-1.64-1-2.46-1.58-.06-1.36.84-2.36,1.46-3.38,1.84-3,3.47-6.17,5.17-9.27A5,5,0,0,0,330.29,165.13Z"/><path class="cls-25" d="M312,249.59a19.65,19.65,0,0,1-.55-2.33,22,22,0,0,1,0-2.57V180.5a8.72,8.72,0,0,1,0-2,8.78,8.78,0,0,1,1.08-1.89c.65,1,1.09,1.6,1.5,2.24,1.42,2.27,2.84,4.54,4.23,6.81.09.14,0,.38,0,.57q0,28.22,0,56.44c0,1-.19,2.05.57,2.9A36.47,36.47,0,0,1,312,249.59Z"/><path class="cls-26" d="M324.57,242.17V199.53a1.62,1.62,0,0,1,2.3.92,22.49,22.49,0,0,0,2.84,4.63c0,.19-.07.42,0,.56,1.25,2.14,2.52,4.26,3.8,6.39,1.74,2.88,3.51,5.74,5.22,8.65,1.25,2.12,2.4,4.31,3.65,6.44.12.2.68.15,1,.21,0,3-1.56,5-4,6.59-2.85,1.84-5.93,3.26-8.72,5.2a14.62,14.62,0,0,1-3.78,1.86C326.05,241.26,325.75,242.59,324.57,242.17Z"/><path class="cls-7" d="M452.13,317.5c-3.58.47-6.55-1.21-8.91-4-1.57-1.85-2.88-3.94-2.66-6.58a12.19,12.19,0,0,0,0-1.71c-.26-5.06,2.87-8.1,6.67-10.48a9.63,9.63,0,0,1,5.18-1.13,10.89,10.89,0,0,1,5.81,1.67c2.87,2,5.5,4.33,5.77,8.22,1.22,2.27.19,4.31-.56,6.42a10.44,10.44,0,0,1-4.91,5.89C455.41,317.5,455.41,317.5,452.13,317.5Zm10.16-11.56c.59-5.17-5.09-10.25-9.93-10.23a10.23,10.23,0,0,0-10,10.08c.19,5.7,4.06,9.81,10,9.93C457.76,315.82,462.58,310.88,462.29,305.94Z"/><path class="cls-27" d="M343.43,227.33c-.35-.06-.91,0-1-.21-1.25-2.13-2.4-4.32-3.65-6.44-1.71-2.91-3.48-5.77-5.22-8.65-1.28-2.13-2.55-4.25-3.8-6.39-.09-.14,0-.37,0-.56a7.28,7.28,0,0,1,4.38,1.07c2.37,1.45,5,2.41,7.5,3.72a4.53,4.53,0,0,0,1.84.34Z"/><path class="cls-28" d="M473.65,176v28.38a29.34,29.34,0,0,1-3,2.34c-1.81,1.09-3.77,1.93-5.61,3-3,1.72-6,3.54-8.94,5.29-1.68,1-3.42,1.86-5.1,2.84a2.9,2.9,0,0,1-3.09,0c-1.78-1-3.53-2-5.31-3-4.41-2.45-8.61-5.28-13.16-7.5-.92-.45-1.78-1.16-2.73-1.67a2.57,2.57,0,0,1-1.59-2.39c.05-9,0-18,0-27.07,2.7-1.49,5.4-2.84,7.94-4.45,2.11-1.32,4.29-2.49,6.46-3.72,1.54-.88,3-1.8,4.59-2.69a31.63,31.63,0,0,1,3.95-2.16,4.39,4.39,0,0,1,2.66,0,10.82,10.82,0,0,1,3.32,1.59c2.3,1.71,4.91,2.87,7.33,4.39,2.78,1.75,5.74,3.2,8.48,5A30.81,30.81,0,0,0,473.65,176Z"/><path class="cls-29" d="M462.29,305.94c.29,4.94-4.53,9.88-9.93,9.78-6-.12-9.83-4.23-10-9.93a10.23,10.23,0,0,1,10-10.08C457.2,295.69,462.88,300.77,462.29,305.94Zm-5.15-1.85v-2.84l-1.9-1.92H448c.06,4.41-.09,8.73.08,12.93h2.22v-4.77c.17-.15.24-.26.31-.26.57,0,1.14,0,1.71,0,1.61,0,2,.33,1.94,1.93a6.68,6.68,0,0,0,.85,3.21l2-.12a10,10,0,0,0-1.6-6.56Z"/><path class="cls-9" d="M457.14,304.09l-1.61,1.6a10,10,0,0,1,1.6,6.56l-2,.12a6.68,6.68,0,0,1-.85-3.21c.07-1.6-.33-1.9-1.94-1.93-.57,0-1.14,0-1.71,0-.07,0-.14.11-.31.26v4.77h-2.22c-.17-4.2,0-8.52-.08-12.93h7.25l1.9,1.92Zm-6.76-3.16c0,.63-.08,1.25-.09,1.87s0,1.43,0,2.14c.56,0,.84,0,1.12,0,3.21.23,3-.74,2.87-3,0-.08,0-.16.13.36C453.16,300.66,451.83,301,450.38,300.93Z"/><path class="cls-29" d="M450.38,300.93c1.45.06,2.78-.27,4,1.39-.18-.52-.13-.44-.13-.36.09,2.24.34,3.21-2.87,3-.28,0-.56,0-1.12,0,0-.71,0-1.43,0-2.14S450.35,301.56,450.38,300.93Z"/></svg>