<svg id="Layer_1" data-name="Layer 1" xmlns="http://www.w3.org/2000/svg" viewBox="0 0 714.14 714.14"><defs><style>.cls-1{fill:#fefefe;}.cls-2{fill:#61d9fa;}.cls-3{fill:#fdfefe;}</style></defs><path class="cls-1" d="M717.07,717.07H2.93V2.93H717.07ZM359.85,558.57l2.71,2.53c17.28,16.21,35.37,31.39,55.68,43.71,17.57,10.65,35.91,19.22,56.64,21.83,30.08,3.77,55.67-10.94,67.56-38.76,6.93-16.24,9.33-33.29,9.65-50.66a216.76,216.76,0,0,0-1.56-32.63c-2.06-15.37-5.28-30.58-8.17-45.83-1-5.44-1.26-5.38,4.06-6.94,24.25-7.08,47.69-16.14,69.56-28.87,16.56-9.64,31.75-21,42.9-36.9,14.85-21.2,17.14-43.53,5.14-66.75-7-13.57-17.72-24-29.78-33.13-21.48-16.23-45.76-26.93-71-35.67-7.15-2.47-14.39-4.68-21.65-7a8.55,8.55,0,0,1,0-1.53C544,229,546.1,216,548.93,203.21c2.93-13.33,2.48-26.86,3.16-40.3.36-7-.51-14.18-1.3-21.22-1.67-14.87-5.41-29.17-13.36-42.06C525.93,81,509.24,71,487.29,69.94c-17.69-.83-34,4.36-49.72,11.78-24.63,11.63-46,28-66.14,46.07-3.95,3.55-7.84,7.16-11.81,10.8-.65-.56-1.12-.92-1.54-1.33a350,350,0,0,0-45.57-37.62c-20.67-14.06-42.35-26-67.68-29.21-15.25-1.93-29.86.19-43.1,8.62-14.55,9.26-23.13,23-28.2,39-6.45,20.43-7.4,41.41-5.88,62.64a346.33,346.33,0,0,0,6.57,46c1.16,5.54,2.48,11,3.75,16.68-1,.34-1.66.59-2.32.78-21.65,6.47-42.87,14.06-62.91,24.61-18.1,9.53-34.88,20.8-48.19,36.66-8.42,10-14.54,21.38-16.42,34.27a59.19,59.19,0,0,0,5.72,35.36c8.47,17,21.79,29.52,37.16,40,24.87,17,52.55,27.88,81.2,36.54,1.88.56,3.75,1.18,5.77,1.82-.32,1.48-.57,2.51-.75,3.54-3.17,18-7,35.83-9.23,53.91-1.41,11.7-.62,23.7-.26,35.55a115.62,115.62,0,0,0,9.29,41.8c10.34,24.42,31.86,38.85,58.26,38.87,13,0,25.36-3.16,37.33-7.93,22.53-9,42.34-22.45,60.92-37.78C342.41,574.15,350.91,566.38,359.85,558.57Z" transform="translate(-2.93 -2.93)"/><path class="cls-2" d="M359.85,558.57c-8.94,7.81-17.44,15.58-26.31,22.9-18.58,15.33-38.39,28.79-60.92,37.78-12,4.77-24.33,7.94-37.33,7.93-26.4,0-47.92-14.45-58.26-38.87a115.62,115.62,0,0,1-9.29-41.8c-.36-11.85-1.15-23.85.26-35.55,2.18-18.08,6.06-35.95,9.23-53.91.18-1,.43-2.06.75-3.54-2-.64-3.89-1.26-5.77-1.82C143.56,443,115.88,432.17,91,415.15c-15.37-10.53-28.69-23-37.16-40a59.19,59.19,0,0,1-5.72-35.36c1.88-12.89,8-24.23,16.42-34.27,13.31-15.86,30.09-27.13,48.19-36.66,20-10.55,41.26-18.14,62.91-24.61.66-.19,1.31-.44,2.32-.78-1.27-5.63-2.59-11.14-3.75-16.68a346.33,346.33,0,0,1-6.57-46c-1.52-21.23-.57-42.21,5.88-62.64,5.07-16.06,13.65-29.76,28.2-39,13.24-8.43,27.85-10.55,43.1-8.62,25.33,3.2,47,15.15,67.68,29.21a350,350,0,0,1,45.57,37.62c.42.41.89.77,1.54,1.33,4-3.64,7.86-7.25,11.81-10.8,20.13-18.1,41.51-34.44,66.14-46.07,15.72-7.42,32-12.61,49.72-11.78,21.95,1,38.64,11,50.14,29.69,8,12.89,11.69,27.19,13.36,42.06.79,7,1.66,14.18,1.3,21.22-.68,13.44-.23,27-3.16,40.3C546.1,216,544,229,541.59,241.94a8.55,8.55,0,0,0,0,1.53c7.26,2.35,14.5,4.56,21.65,7,25.25,8.74,49.53,19.44,71,35.67C646.3,295.28,657,305.73,664,319.3c12,23.22,9.71,45.55-5.14,66.75C647.73,402,632.54,413.31,616,423c-21.87,12.73-45.31,21.79-69.56,28.87-5.32,1.56-5.09,1.5-4.06,6.94,2.89,15.25,6.11,30.46,8.17,45.83a216.76,216.76,0,0,1,1.56,32.63c-.32,17.37-2.72,34.42-9.65,50.66-11.89,27.82-37.48,42.53-67.56,38.76-20.73-2.61-39.07-11.18-56.64-21.83-20.31-12.32-38.4-27.5-55.68-43.71Zm42.2-109,0-.53c3.41-.3,6.82-.87,10.23-.83a7,7,0,0,0,6.64-3.57,786.2,786.2,0,0,0,53.14-91.86c1.54-3.13,1.61-5.59,0-8.57-7.87-14.64-15.17-29.61-23.54-44-9.63-16.51-20.15-32.5-30.37-48.66a5.19,5.19,0,0,0-3.14-2.38c-5.19-.48-10.42-.6-15.64-.85-7.92-.38-15.85-.94-23.78-1.08-10.69-.18-21.39-.26-32.08,0-11.82.34-23.63,1.36-35.46,1.65-3.82.09-6.2,1.05-8.39,4.33A753.6,753.6,0,0,0,246.61,346a6.74,6.74,0,0,0,0,5.18c5,10.23,9.84,20.61,15.62,30.42,12.65,21.49,25.81,42.67,38.84,63.93.66,1.07,2,2.32,3.12,2.42,7.79.71,15.59,1.51,23.4,1.57C352.42,449.65,377.23,449.54,402.05,449.54ZM203.48,236.64c14-2.55,27.06-5.24,40.25-7.28,12.15-1.88,24.41-3.05,36.62-4.58,4-.5,7.55-1,10.54-4.95C302.77,204,315.18,188.51,327.54,173c4.13-5.17,8.7-10,13.18-15.08-.84-.93-1.5-1.75-2.26-2.48C325,142.54,310.87,130.36,295.33,120,279,109,261.93,99.63,241.94,96.82c-18.18-2.56-33.15,5.49-40.59,22.4-5.58,12.7-7.41,26.13-7.79,39.8a226.09,226.09,0,0,0,3.53,45.21C199,215.05,201.32,225.78,203.48,236.64ZM340.71,539.39A8.83,8.83,0,0,0,340,538a660.46,660.46,0,0,1-50.84-62.83,6.46,6.46,0,0,0-4.1-2.11c-10.07-1.33-20.21-2.18-30.24-3.73-13.55-2.08-27-4.63-40.53-7-3.44-.62-6.85-1.43-10.25-2.15a13.08,13.08,0,0,0-.55,1.36c-4.66,20.21-9.11,40.49-9.41,61.34-.15,10.51.09,21.06,1,31.53a69,69,0,0,0,8.75,28c7.85,14,21.23,19.65,35.47,18.28s27.1-6.61,39.47-13.43c18.11-10,34.24-22.65,49.65-36.3C332.62,547.18,336.65,543.2,340.71,539.39ZM378,540a22,22,0,0,1,3.36,2.17c13.45,12.61,27.39,24.63,42.71,34.94s31.41,19.18,49.91,22.67c14.07,2.65,27,.6,36.6-10.77,4.05-4.78,7-10.76,9.37-16.62,4.52-11.11,5.42-23.06,5.74-34.89.48-18.41-1.89-36.63-5.29-54.7-1.42-7.52-3.18-15-4.76-22.38a8.21,8.21,0,0,0-1.56-.08,574.65,574.65,0,0,1-76.15,12.1c-4.53.4-7.52,2.09-10.32,6-8,11.21-16.5,22.07-25.15,32.79C394.85,520.64,386.79,529.68,378,540ZM184.55,269.47c-1.32.31-1.79.4-2.24.53-23.62,7-46.57,15.66-67.85,28.27-12,7.13-23.13,15.46-31.59,26.8C73,338.28,71,352.24,79.62,366.92,87,379.47,98,388.29,110,395.94c22.52,14.36,47.3,23.54,72.73,31.19,2.23.67,2.92-.19,3.51-2.08a605.61,605.61,0,0,1,28-72.7,8.51,8.51,0,0,0,0-7.68c-5.73-13.28-11.38-26.61-16.61-40.1-4.11-10.61-7.54-21.48-11.34-32.22A15.44,15.44,0,0,0,184.55,269.47Zm194-111.87a10.6,10.6,0,0,0,.9,1.56,634.56,634.56,0,0,1,51,63.1,4.68,4.68,0,0,0,2.87,1.71c7.83,1.07,15.7,1.88,23.53,3,12.06,1.69,24.12,3.41,36.14,5.39,7.43,1.22,14.79,2.92,22.38,4.45a336.48,336.48,0,0,0,9.06-50.41c1.38-13.21,1.88-26.4.17-39.71-1.21-9.48-2.9-18.69-6.7-27.45-7.36-17-22.38-25-40.56-22.42-12,1.7-23,5.82-33.54,11.29-20.1,10.37-37.67,24.28-54.36,39.37C385.77,150.78,382.19,154.21,378.54,157.6ZM534.07,427.44a13.49,13.49,0,0,0,2.21-.27c22.45-6.7,44.4-14.64,64.83-26.31,14-8,27-17.22,36.55-30.64s9.89-27.93,1.11-41.65c-7.94-12.41-19.25-21.23-31.57-28.82-21.59-13.28-45.07-22.19-69.24-29.47-3.17-1-4.31-.33-5.27,2.77a588.7,588.7,0,0,1-27.36,71c-1.5,3.26-1.27,5.79.06,9q10.82,26.15,21.14,52.48C529.33,412.69,531.55,420.06,534.07,427.44Zm-323.52,6.88c19.45,4.21,37.92,8,57,9.74-12.43-21.56-24.47-42.46-37-64.16C223.81,398.22,217.28,416,210.55,434.32Zm.3-172.19a561.9,561.9,0,0,0,20,54.29L268,252.18Zm277.9,117.78-37.4,64.91,57.56-10.05Zm0-62.85c6.79-18.45,13.3-36.16,20.17-54.84l-57.51-10C463.87,273.92,476,295,488.74,317.06ZM396.8,220.88l-36.87-44.11c-13.37,14.63-25.43,28.93-36.77,44.11Zm-.08,255.33H322.56l37.09,44.38Z" transform="translate(-2.93 -2.93)"/><path class="cls-1" d="M402.05,449.54c-24.82,0-49.63.11-74.44-.07-7.81-.06-15.61-.86-23.4-1.57-1.12-.1-2.46-1.35-3.12-2.42-13-21.26-26.19-42.44-38.84-63.93-5.78-9.81-10.59-20.19-15.62-30.42a6.74,6.74,0,0,1,0-5.18,753.6,753.6,0,0,1,53.08-92.68c2.19-3.28,4.57-4.24,8.39-4.33,11.83-.29,23.64-1.31,35.46-1.65,10.69-.3,21.39-.22,32.08,0,7.93.14,15.86.7,23.78,1.08,5.22.25,10.45.37,15.64.85a5.19,5.19,0,0,1,3.14,2.38c10.22,16.16,20.74,32.15,30.37,48.66,8.37,14.35,15.67,29.32,23.54,44,1.6,3,1.53,5.44,0,8.57a786.2,786.2,0,0,1-53.14,91.86,7,7,0,0,1-6.64,3.57c-3.41,0-6.82.53-10.23.83ZM415.4,348.91c.75-29.5-23.22-55.92-55-56.33-32.92-.42-56.58,26.69-56.63,55.52,0,29.7,22.69,55,53,56.35C391.57,406.05,415.78,377.84,415.4,348.91Z" transform="translate(-2.93 -2.93)"/><path class="cls-1" d="M203.48,236.64c-2.16-10.86-4.5-21.59-6.39-32.41A226.09,226.09,0,0,1,193.56,159c.38-13.67,2.21-27.1,7.79-39.8,7.44-16.91,22.41-25,40.59-22.4,20,2.81,37,12.21,53.39,23.15,15.54,10.39,29.66,22.57,43.13,35.49.76.73,1.42,1.55,2.26,2.48-4.48,5.11-9.05,9.91-13.18,15.08-12.36,15.49-24.77,30.95-36.65,46.81-3,4-6.52,4.45-10.54,4.95-12.21,1.53-24.47,2.7-36.62,4.58C230.54,231.4,217.44,234.09,203.48,236.64Z" transform="translate(-2.93 -2.93)"/><path class="cls-1" d="M340.71,539.39c-4.06,3.81-8.09,7.79-12.33,11.54-15.41,13.65-31.54,26.33-49.65,36.3-12.37,6.82-25.35,12.07-39.47,13.43s-27.62-4.26-35.47-18.28a69,69,0,0,1-8.75-28c-.89-10.47-1.13-21-1-31.53.3-20.85,4.75-41.13,9.41-61.34a13.08,13.08,0,0,1,.55-1.36c3.4.72,6.81,1.53,10.25,2.15,13.5,2.4,27,5,40.53,7,10,1.55,20.17,2.4,30.24,3.73a6.46,6.46,0,0,1,4.1,2.11A660.46,660.46,0,0,0,340,538,8.83,8.83,0,0,1,340.71,539.39Z" transform="translate(-2.93 -2.93)"/><path class="cls-1" d="M378,540c8.8-10.31,16.86-19.35,24.46-28.77,8.65-10.72,17.15-21.58,25.15-32.79,2.8-3.91,5.79-5.6,10.32-6a574.65,574.65,0,0,0,76.15-12.1,8.21,8.21,0,0,1,1.56.08c1.58,7.4,3.34,14.86,4.76,22.38,3.4,18.07,5.77,36.29,5.29,54.7-.32,11.83-1.22,23.78-5.74,34.89-2.39,5.86-5.32,11.84-9.37,16.62-9.63,11.37-22.53,13.42-36.6,10.77-18.5-3.49-34.55-12.35-49.91-22.67s-29.26-22.33-42.71-34.94A22,22,0,0,0,378,540Z" transform="translate(-2.93 -2.93)"/><path class="cls-1" d="M184.55,269.47a15.44,15.44,0,0,1,1.72,2.88c3.8,10.74,7.23,21.61,11.34,32.22,5.23,13.49,10.88,26.82,16.61,40.1a8.51,8.51,0,0,1,0,7.68,605.61,605.61,0,0,0-28,72.7c-.59,1.89-1.28,2.75-3.51,2.08-25.43-7.65-50.21-16.83-72.73-31.19-12-7.65-23-16.47-30.36-29C71,352.24,73,338.28,82.87,325.07c8.46-11.34,19.57-19.67,31.59-26.8C135.74,285.66,158.69,277,182.31,270,182.76,269.87,183.23,269.78,184.55,269.47Z" transform="translate(-2.93 -2.93)"/><path class="cls-1" d="M378.54,157.6c3.65-3.39,7.23-6.82,10.91-10.14,16.69-15.09,34.26-29,54.36-39.37,10.59-5.47,21.59-9.59,33.54-11.29,18.18-2.57,33.2,5.47,40.56,22.42,3.8,8.76,5.49,18,6.7,27.45,1.71,13.31,1.21,26.5-.17,39.71a336.48,336.48,0,0,1-9.06,50.41c-7.59-1.53-14.95-3.23-22.38-4.45-12-2-24.08-3.7-36.14-5.39-7.83-1.1-15.7-1.91-23.53-3a4.68,4.68,0,0,1-2.87-1.71,634.56,634.56,0,0,0-51-63.1A10.6,10.6,0,0,1,378.54,157.6Z" transform="translate(-2.93 -2.93)"/><path class="cls-1" d="M534.07,427.44c-2.52-7.38-4.74-14.75-7.54-21.9q-10.32-26.34-21.14-52.48c-1.33-3.2-1.56-5.73-.06-9a588.7,588.7,0,0,0,27.36-71c1-3.1,2.1-3.73,5.27-2.77,24.17,7.28,47.65,16.19,69.24,29.47,12.32,7.59,23.63,16.41,31.57,28.82,8.78,13.72,8.31,28.33-1.11,41.65s-22.53,22.64-36.55,30.64c-20.43,11.67-42.38,19.61-64.83,26.31A13.49,13.49,0,0,1,534.07,427.44Z" transform="translate(-2.93 -2.93)"/><path class="cls-3" d="M210.55,434.32c6.73-18.34,13.26-36.1,20-54.42,12.5,21.7,24.54,42.6,37,64.16C248.47,442.32,230,438.53,210.55,434.32Z" transform="translate(-2.93 -2.93)"/><path class="cls-3" d="M210.85,262.13,268,252.18l-37.09,64.24A561.9,561.9,0,0,1,210.85,262.13Z" transform="translate(-2.93 -2.93)"/><path class="cls-3" d="M488.75,379.91l20.16,54.86-57.56,10.05Z" transform="translate(-2.93 -2.93)"/><path class="cls-3" d="M488.74,317.06C476,295,463.87,273.92,451.4,252.27l57.51,10C502,280.9,495.53,298.61,488.74,317.06Z" transform="translate(-2.93 -2.93)"/><path class="cls-3" d="M396.8,220.88H323.16c11.34-15.18,23.4-29.48,36.77-44.11Z" transform="translate(-2.93 -2.93)"/><path class="cls-3" d="M396.72,476.21l-37.07,44.38-37.09-44.38Z" transform="translate(-2.93 -2.93)"/><path class="cls-2" d="M415.4,348.91c.38,28.93-23.83,57.14-58.66,55.54-30.27-1.39-53-26.65-53-56.35.05-28.83,23.71-55.94,56.63-55.52C392.18,293,416.15,319.41,415.4,348.91Z" transform="translate(-2.93 -2.93)"/></svg>