<svg id="Layer_1" data-name="Layer 1" xmlns="http://www.w3.org/2000/svg" viewBox="0 0 551.25 551.25"><defs><style>.cls-1{fill:#fefefe;}.cls-2{fill:#000100;}.cls-3{fill:#0b7c13;}</style></defs><path class="cls-1" d="M551.25,553.52H0V2.27H551.25ZM274.71,517.21c131,.16,238.57-105.46,240.16-237C516.43,150.39,413.38,41,281.66,37.64,145.54,34.12,36.41,142.57,35.27,274.7,34.07,415.28,148.62,517.46,274.71,517.21Z" transform="translate(0 -2.27)"/><path class="cls-2" d="M274.71,517.21C148.62,517.46,34.07,415.28,35.27,274.7,36.41,142.57,145.54,34.12,281.66,37.64,413.38,41,516.43,150.39,514.87,280.26,513.28,411.75,405.73,517.37,274.71,517.21Zm35.88-220.33c-1.87-7.2-5.73-12.77-8-19l7.13-2.43c3.28-6.69.91-13.71,1.73-20.33-1.34-1.67-2.41-3.14-4.51-4.22-4.91,0-10.21,0-15.51,0s-10.83-.11-16.1.09v46c4.05,0,7.79.43,11.79-.33.23-12.06-.16-23.87.11-35.59H298a24.77,24.77,0,0,1,0,7c-2.85,1.22-5.75-.21-8.43,1.16v8a158.29,158.29,0,0,0,9.18,19.58ZM157.34,292.6c0-5.17-.06-10.47,0-15.78.06-3.59-1.17-6.38-4.21-8.13-6.32-.42-12.52.38-18.81-.47-.2-2.59-.56-4.88.39-7.45h18.6c.74-1.82,1.25-3.37,2-4.81s1.35-3,.41-4.83H124c-3.09,1.86-3.87,4.78-4,8.31-.19,4.49,1,8.94.11,13.52.86,2.14,1.73,4.35,5.11,5.75h19c-.29,2.68.41,5-.74,7.67H124.33c-1.38,3.6-3.06,6.71-3.06,10.68,9.34,0,18.29.25,27.21-.15C151.48,296.78,155.21,296.8,157.34,292.6Zm2.54-41.5c-1,10.35-.6,41.88.48,45.72,13.25.89,31.13.5,35.13-.86V251.07c-4.35-.17-8.44-.54-12.8.32,0,6.11,0,11.95,0,17.78s.11,11.92-.1,17.76h-11V251.1Zm233.63,46c10.8-.56,21,1.06,30.92-1.52a7.69,7.69,0,0,0,2.43-6.61c-.66-6.22,1.68-12.78-1.89-18.83-6.77-3.37-14.14-.39-21.08-2.11-.12-2.5-.62-4.81.54-7.36H423l3.5-9.65H393.61a8.56,8.56,0,0,0-4,8.11c.12,3.66.11,7.33,0,11s1,6.42,4.92,8.61h19a34.23,34.23,0,0,1-.16,8.45h-22.5C390.49,291.06,393.18,293.32,393.51,297.15Zm-121.75-10H248.88a30.84,30.84,0,0,1,.17-8.71h19.29c.24-3.2.52-5.85-.2-8.57-6.54-.79-12.92.34-19.31-.7-.05-2.94-.68-5.62.69-8.57h19.12c1.51-3.17,3.11-5.92,2.94-9.32H236.84v44.71H269A20.17,20.17,0,0,0,271.76,287.1Zm112.9-26.39c-.33-3.59,3-5.78,2.37-9.53H352.3v44.73h32.28c.9-2.71,1.8-5.4,2.9-8.72h-23a21,21,0,0,1,.24-8.93h19.2c0-3.23.61-5.94-.67-8.87h-18.8a21.89,21.89,0,0,1,.19-8.68ZM198.21,295.9h12V276.21h21.28a8.82,8.82,0,0,0,2.92-7c-.12-3.66,0-7.33,0-11-.08-5.54-1.68-7.24-7.15-7.3-8.44-.08-16.87,0-25.31,0-1.22,0-2.58-.41-3.69.82Zm255.24,15V261.45c2.32-1.35,4.59.13,6.18-1.41v-8.72H428.2c.12,3.21-.84,6.11.91,9.06,3.45,1,7.19-.27,11.15.91v53.26C445.39,315,448.9,312.07,453.45,310.87ZM324.54,261.24c.51,12-.37,23.62.48,35,5.87,1.18,8.67,1.06,12.82-.58V261.33c4.15-1.48,8.23.72,11.8-1.82.17-2.86.73-5.69-.36-8.28H312.73c-.05,3.17-.71,6,.57,8.89C316.87,261.54,320.63,260.09,324.54,261.24Z" transform="translate(0 -2.27)"/><path class="cls-3" d="M310.59,296.88H298.71a158.29,158.29,0,0,1-9.18-19.58v-8c2.68-1.37,5.58.06,8.43-1.16a24.77,24.77,0,0,0,0-7H287.23c-.27,11.72.12,23.53-.11,35.59-4,.76-7.74.32-11.79.33V251c5.27-.2,10.69-.07,16.1-.09s10.6,0,15.51,0c2.1,1.08,3.17,2.55,4.51,4.22-.82,6.62,1.55,13.64-1.73,20.33l-7.13,2.43C304.86,284.11,308.72,289.68,310.59,296.88Z" transform="translate(0 -2.27)"/><path class="cls-3" d="M157.34,292.54c-2.13,4.2-5.86,4.18-8.86,4.31-8.92.4-17.87.14-27.21.14,0-4,1.68-7.07,3.06-10.68h19.12c1.15-2.67.45-5,.74-7.66h-19c-3.38-1.41-4.25-3.62-5.11-5.75-.13-5.34-.3-9-.11-13.52.15-3.53.93-6.45,4-8.31h31.76c.94,1.88.35,3.32-.41,4.83s-1.24,3-2,4.81h-18.6c-1,2.57-.59,4.86-.39,7.44,6.29.86,12.49.05,18.81.48,3,1.75,4.27,4.53,4.21,8.13C157.28,282.06,157.34,287.37,157.34,292.54Z" transform="translate(0 -2.27)"/><path class="cls-3" d="M159.88,251.1h11.7v35.83h11c.21-5.84.07-11.8.1-17.76s0-11.67,0-17.78c4.36-.86,8.45-.49,12.8-.32V296c-4,1.36-21.88,1.75-35.13.86C159.28,293,158.91,261.45,159.88,251.1Z" transform="translate(0 -2.27)"/><path class="cls-3" d="M393.51,297.15c-.33-3.83-3-6.09-2.67-9.92h22.5a34.23,34.23,0,0,0,.16-8.45h-19c-3.91-2.19-5-5-4.92-8.61s.11-7.33,0-11a8.56,8.56,0,0,1,4-8.11h32.88l-3.5,9.65H404.43c-1.16,2.55-.66,4.86-.54,7.36,6.94,1.72,14.31-1.26,21.08,2.11,3.57,6.05,1.23,12.61,1.89,18.83a7.69,7.69,0,0,1-2.43,6.61C414.52,298.21,404.31,296.59,393.51,297.15Z" transform="translate(0 -2.27)"/><path class="cls-3" d="M271.76,287.1a20.17,20.17,0,0,1-2.77,8.84H236.84V251.23h34.74c.17,3.4-1.43,6.15-2.94,9.32H249.52c-1.37,2.95-.74,5.63-.69,8.57,6.39,1,12.77-.09,19.31.7.72,2.72.44,5.37.2,8.57H249.05a30.84,30.84,0,0,0-.17,8.71Z" transform="translate(0 -2.27)"/><path class="cls-3" d="M384.66,260.71h-20a21.89,21.89,0,0,0-.19,8.68h18.8c1.28,2.93.65,5.64.67,8.87h-19.2a21,21,0,0,0-.24,8.93h23c-1.1,3.32-2,6-2.9,8.72H352.3V251.18H387C387.65,254.93,384.33,257.12,384.66,260.71Z" transform="translate(0 -2.27)"/><path class="cls-3" d="M198.21,295.9V251.73c1.11-1.23,2.47-.81,3.69-.82,8.44,0,16.87-.07,25.31,0,5.47.06,7.07,1.76,7.15,7.3,0,3.67-.08,7.34,0,11a8.82,8.82,0,0,1-2.92,7H210.2V295.9Zm22.24-26.47c1.27-2.69.7-5.46.41-8.47a53.74,53.74,0,0,0-10.55.14c-.07,3-.59,5.67.45,8.33Z" transform="translate(0 -2.27)"/><path class="cls-3" d="M453.45,310.87c-4.55,1.2-8.06,4.17-13.19,3.68V261.29c-4-1.18-7.7.09-11.15-.91-1.75-2.95-.79-5.85-.91-9.06h31.43V260c-1.59,1.54-3.86.06-6.18,1.41Z" transform="translate(0 -2.27)"/><path class="cls-3" d="M324.54,261.24c-3.91-1.15-7.67.3-11.24-1.12-1.28-2.87-.62-5.72-.57-8.89h36.55c1.09,2.59.53,5.42.36,8.28-3.57,2.54-7.65.34-11.8,1.82V295.7c-4.15,1.64-6.95,1.76-12.82.58C324.17,284.86,325.05,273.22,324.54,261.24Z" transform="translate(0 -2.27)"/><path class="cls-2" d="M220.45,269.43h-9.69c-1-2.66-.52-5.31-.45-8.33a53.74,53.74,0,0,1,10.55-.14C221.15,264,221.72,266.74,220.45,269.43Z" transform="translate(0 -2.27)"/></svg>