<svg id="Layer_1" data-name="Layer 1" xmlns="http://www.w3.org/2000/svg" viewBox="0 0 720 720"><defs><style>.cls-1{fill:#fff;}</style></defs><rect class="cls-1" width="720" height="720"/><path class="cls-1" d="M356,137.23C320,194.75,254.85,314.16,253.12,325.5h208.4C426,262.14,391.57,200.65,356,137.23Zm-55.1,349.15c6.48-34.47-13.45-60.42-47.82-63.26-21.09-1.74-40,4.5-51.93,23.5-11.32,18-11.76,37.08-1,55.4,19.27,32.78,71.76,35.69,96.36,4.9l-20.22-11.69c-24.5,14.77-43.38,11.69-52.58-8.85Zm233.39-.13H612C617.24,450,597.2,424.7,562.33,423c-21.22-1.06-40.13,5.82-51,25.38-10.53,18.88-10.37,38.76,2.06,56.9,22.27,32.54,77.47,28.62,94,1.91l-19.59-11.5C562.21,509.52,544.77,506.69,534.33,486.25Zm-350-95.79c-16.77,29.18-32.8,57.07-50.27,87.44L84.48,391.56H54.38l79.71,139.88c27.27-47.88,53.29-93,79.45-139.64-4.42-.69-6.47-1.26-8.52-1.3C198.56,390.38,192.09,390.46,184.32,390.46Zm311,57.5c-17.83-23.15-43.79-30.87-69.22-21.35C403.31,435.16,391.75,454.17,393,479s16.34,42.3,39.41,47.51c27.14,6.14,49.72-2.3,61.33-23.09a26.71,26.71,0,0,0-3.58-3.05c-5.11-3.05-10.29-6-15.36-8.88-18.09,15-36.56,16.91-47.93,5.18-10-10.31-10-31.44,0-41.77,11.44-11.82,29.76-9.94,48,5.17Zm-150,77.1c.31-3.63.71-6.25.73-8.87.09-11.36-.36-22.75.2-34.08.9-18.31,10.17-27.26,28.53-28.56,3.05-.22,6.09-.53,8.75-.76V426.12c-15.42.3-27.16,5.85-36.72,18-.6-6.7-1.07-11.94-1.57-17.58H320.67v98.49Zm312.23,0c-.16-44.51.56-88.58-.49-133.22H632.37V525Z"/><path d="M356,137.23c35.53,63.42,70,124.91,105.48,188.27H253.12C254.85,314.16,320,194.75,356,137.23Z"/><path d="M300.94,486.38H223.75c9.2,20.54,28.08,23.62,52.58,8.85l20.22,11.69c-24.6,30.79-77.09,27.88-96.36-4.9-10.76-18.32-10.32-37.4,1-55.4,11.95-19,30.84-25.24,51.93-23.5C287.49,426,307.42,451.91,300.94,486.38Zm-27.19-22.17c-4.86-13.7-14.74-17.28-26.85-17.09-12.86.2-18.65,4.38-23.63,17.09Z"/><path d="M534.33,486.25c10.44,20.44,27.88,23.27,53.42,9.4l19.59,11.5c-16.51,26.71-71.71,30.63-94-1.91-12.43-18.14-12.59-38-2.06-56.9,10.9-19.56,29.81-26.44,51-25.38,34.87,1.74,54.91,27,49.67,63.29Zm51-21.95c-6.81-14.34-16.69-17.84-28.87-17.13-10.93.64-19.06,5.09-23.12,17.13Z"/><path d="M184.32,390.46c7.77,0,14.24-.08,20.7,0,2,0,4.1.61,8.52,1.3-26.16,46.63-52.18,91.76-79.45,139.64L54.38,391.56h30.1l49.57,86.34C151.52,447.53,167.55,419.64,184.32,390.46Z"/><path d="M495.35,448,474.84,460c-18.24-15.11-36.56-17-48-5.17-10,10.33-10,31.46,0,41.77,11.37,11.73,29.84,9.8,47.93-5.18,5.07,2.92,10.25,5.83,15.36,8.88a26.71,26.71,0,0,1,3.58,3.05c-11.61,20.79-34.19,29.23-61.33,23.09-23.07-5.21-38.2-22.65-39.41-47.51s10.36-43.79,33.18-52.34C451.56,417.09,477.52,424.81,495.35,448Z"/><path d="M345.3,525.06H320.67V426.57h24.55c.5,5.64,1,10.88,1.57,17.58,9.56-12.18,21.3-17.73,36.72-18v26.67c-2.66.23-5.7.54-8.75.76-18.36,1.3-27.63,10.25-28.53,28.56-.56,11.33-.11,22.72-.2,34.08C346,518.81,345.61,521.43,345.3,525.06Z"/><path d="M657.53,525H632.37V391.8H657C658.09,436.44,657.37,480.51,657.53,525Z"/><path class="cls-1" d="M273.75,464.21H223.27c5-12.71,10.77-16.89,23.63-17.09C259,446.93,268.89,450.51,273.75,464.21Z"/><path class="cls-1" d="M585.36,464.3h-52c4.06-12,12.19-16.49,23.12-17.13C568.67,446.46,578.55,450,585.36,464.3Z"/></svg>